# Blender v2.79 (sub 0) OBJ File: ''
# www.blender.org
mtllib good_teeth_box21.mtl
o Box21
v 0.301843 0.655519 0.800406
v 0.307278 0.663971 0.803615
v 0.262559 0.662313 0.836176
v 0.198422 0.667680 0.861537
v 0.197005 0.656377 0.854853
v 0.115046 0.672170 0.875254
v 0.113726 0.660789 0.868627
v 0.026250 0.670826 0.871985
v 0.024933 0.659441 0.865361
v -0.029300 0.686086 0.855938
v 0.290891 0.650124 0.792572
v 0.261002 0.651136 0.829401
v 0.193714 0.647796 0.840699
v 0.110441 0.652777 0.854122
v -0.035324 0.676682 0.852310
v -0.027465 0.671792 0.844160
v 0.276000 1.162461 0.570212
v 0.296523 1.141158 0.522240
v 0.216225 1.191074 0.548741
v 0.222826 1.217051 0.601458
v 0.162745 1.208487 0.559936
v 0.112491 1.238367 0.609833
v 0.173671 1.233604 0.604246
v 0.075106 1.235439 0.614319
v 0.107558 1.210203 0.570090
v 0.025056 1.199467 0.611196
v 0.070175 1.207325 0.574631
v 0.239953 1.123505 0.504896
v 0.214123 1.163055 0.502456
v 0.159489 1.175365 0.505367
v 0.102081 1.171041 0.518665
v 0.065989 1.169006 0.526162
v 0.004087 1.173251 0.574528
v 0.309832 0.722685 0.791042
v 0.262897 0.724261 0.821278
v 0.197205 0.723471 0.846147
v 0.114641 0.725720 0.861058
v 0.030380 0.733634 0.858058
v 0.311362 0.787318 0.768155
v 0.260361 0.798417 0.789884
v 0.192302 0.812400 0.814085
v 0.114089 0.818915 0.832322
v 0.035540 0.815348 0.832020
v -0.020894 0.810246 0.824603
v 0.251462 0.876728 0.768247
v 0.310233 0.862002 0.732961
v 0.286105 0.963729 0.682965
v 0.189290 0.887241 0.791469
v 0.239436 0.974696 0.724652
v 0.113865 0.895325 0.802846
v 0.183338 0.984508 0.749302
v 0.121631 0.994005 0.761936
v 0.054589 0.991457 0.757602
v 0.043035 0.893049 0.799962
v 0.004166 0.985471 0.748367
v 0.291978 1.069603 0.627683
v 0.213523 1.100945 0.667468
v 0.163740 1.117810 0.673427
v 0.133790 1.135568 0.686851
v 0.072893 1.128314 0.686509
v 0.002687 1.102800 0.672943
v -0.027652 0.734649 0.847199
v -0.037180 0.719817 0.833687
v -0.039523 0.792170 0.802588
v -0.016555 0.765899 0.796962
v -0.015732 0.888126 0.791684
v -0.028038 0.966065 0.717010
v -0.036406 0.875518 0.759864
v -0.015484 0.949156 0.689079
v -0.019074 1.075118 0.629396
v 0.002769 1.150536 0.543980
v -0.017359 0.712169 0.820985
v 0.027069 0.711269 0.819120
v 0.021159 0.653289 0.855223
v 0.110087 0.703830 0.812903
v 0.257461 0.643192 0.815985
v 0.194074 0.697868 0.798593
v 0.265419 0.704236 0.774821
v 0.027185 0.761297 0.786912
v 0.108612 0.754212 0.775515
v 0.189552 0.744639 0.764532
v 0.301440 0.701001 0.766275
v 0.266885 0.744394 0.749039
v 0.030634 0.855118 0.725657
v -0.015352 0.866647 0.745923
v 0.107820 0.844359 0.707282
v 0.035699 0.938201 0.669730
v 0.104502 0.935853 0.648481
v 0.171717 0.930132 0.630229
v 0.189095 0.837813 0.695636
v 0.219443 0.923119 0.617689
v 0.255028 0.833723 0.687813
v 0.260164 0.922230 0.613927
v -0.011002 1.059937 0.602959
v 0.041819 1.058956 0.582679
v 0.102899 1.057877 0.568697
v 0.170300 1.038067 0.559876
v 0.224291 1.034558 0.548719
v 0.265232 1.027182 0.557069
v 0.319580 0.703156 0.771333
v 0.303163 0.741389 0.739261
v 0.317653 0.763941 0.739195
v 0.288682 0.834978 0.687896
v 0.307986 0.939068 0.629521
v 0.317282 0.836154 0.690251
v 0.311731 1.044425 0.573442
vt 0.049620 0.047120
vt 0.036590 0.055950
vt 0.167960 0.027150
vt 0.351940 0.014030
vt 0.352640 0.004150
vt 0.585850 0.009480
vt 0.586280 -0.000560
vt 0.829560 0.011050
vt 0.829990 0.001000
vt 0.980580 0.045550
vt 0.922920 0.046320
vt 0.950380 0.047120
vt 0.830960 0.017520
vt 0.830960 0.742150
vt 0.647360 0.645750
vt 0.643050 0.769960
vt 0.413720 0.648900
vt 0.409440 0.773090
vt 0.170010 0.786110
vt 0.170010 0.001000
vt 0.005000 0.035770
vt 0.029390 0.035770
vt 0.128850 0.928670
vt 0.057170 0.939090
vt 0.291880 0.985890
vt 0.290630 0.040430
vt 0.291880 0.473070
vt 0.444450 0.405030
vt 0.599690 0.046570
vt 0.429010 0.022100
vt 0.703490 0.077160
vt 0.599380 0.405380
vt 0.835880 0.296590
vt 0.703200 0.435450
vt 0.708120 0.985890
vt 0.942830 0.939090
vt 0.793690 0.929790
vt 0.282100 0.868140
vt 0.435050 0.872130
vt 0.596110 0.878890
vt 0.400620 0.995200
vt 0.403890 0.984320
vt 0.302760 0.975640
vt 0.119190 0.941970
vt 0.296800 0.987820
vt 0.034080 0.146370
vt 0.171390 0.123920
vt 0.358720 0.102820
vt 0.590400 0.094220
vt 0.822920 0.108160
vt 0.028840 0.253370
vt 0.180140 0.250980
vt 0.375780 0.250590
vt 0.596870 0.245030
vt 0.812820 0.241040
vt 0.965790 0.240650
vt 0.209470 0.375700
vt 0.032800 0.384280
vt 0.103630 0.564490
vt 0.388170 0.371340
vt 0.244390 0.545380
vt 0.600040 0.373560
vt 0.406620 0.538840
vt 0.581190 0.541840
vt 0.764520 0.542480
vt 0.794220 0.373400
vt 0.900330 0.542340
vt 0.087270 0.754460
vt 0.317840 0.764960
vt 0.458810 0.783420
vt 0.547140 0.796780
vt 0.713940 0.787660
vt 0.900580 0.764630
vt 0.290630 0.977720
vt 0.429010 0.998370
vt 0.599690 1.000740
vt 0.703490 0.993330
vt 0.835880 0.947260
vt 0.980210 0.118970
vt 1.001040 0.109980
vt -0.001040 0.109980
vt 1.009090 0.234340
vt -0.009090 0.234340
vt 0.059120 0.202980
vt 0.953410 0.373990
vt 0.978490 0.542040
vt -0.000570 0.383250
vt 0.021510 0.542040
vt 0.065510 0.541950
vt 0.054260 0.763030
vt 0.880810 0.941970
vt 0.126390 0.936240
vt 0.057850 0.109890
vt 0.180900 0.109850
vt 0.409440 0.000530
vt 0.163020 0.001020
vt 0.643050 0.004170
vt 0.412280 0.104180
vt 0.825700 0.017800
vt 0.648220 0.107210
vt 0.850110 0.134970
vt 0.182860 0.204660
vt 0.411140 0.203780
vt 0.638310 0.199160
vt 0.952010 0.137330
vt 0.855450 0.211010
vt 0.195660 0.383160
vt 0.062210 0.382500
vt 0.414540 0.383050
vt 0.212980 0.542600
vt 0.408370 0.556400
vt 0.599050 0.563150
vt 0.642390 0.383110
vt 0.734740 0.563560
vt 0.826660 0.383470
vt 0.848060 0.565140
vt 0.085290 0.764100
vt 0.236200 0.779100
vt 0.408270 0.788690
vt 0.598930 0.768440
vt 0.751050 0.772440
vt 0.862720 0.755160
vt 0.564950 1.000750
vt 0.717900 0.985940
vt -0.000420 0.135950
vt 1.000420 0.135950
vt 0.958340 0.214700
vt 0.000990 0.245360
vt 0.922920 0.384830
vt 0.973630 0.574840
vt -0.000990 0.384260
vt 0.026370 0.574840
vt 0.015590 0.764780
vt 1.000570 0.383250
vt 0.999010 0.245360
vt 0.169040 0.017520
vt 0.995000 0.035770
vt 0.825700 0.859660
vt 0.163020 0.876870
vt 0.880810 0.649220
vt 0.945740 0.763030
vt 1.000990 0.384260
vt 0.984410 0.764780
vn 0.6687 -0.7427 0.0358
vn 0.8499 -0.3031 0.4311
vn 0.4613 -0.1716 0.8705
vn 0.2541 -0.1327 0.9580
vn 0.1480 -0.7017 0.6970
vn 0.0631 -0.1235 0.9903
vn 0.0292 -0.7052 0.7084
vn -0.1633 -0.1587 0.9737
vn -0.1812 -0.6717 0.7183
vn -0.4797 0.0799 0.8738
vn 0.1617 -0.8443 -0.5110
vn 0.3479 -0.7110 0.6111
vn -0.0936 -0.9881 -0.1220
vn -0.0671 -0.9823 -0.1748
vn -0.8382 -0.4397 0.3226
vn -0.4509 -0.7700 -0.4513
vn 0.7546 0.6237 0.2037
vn 0.7516 0.3317 -0.5702
vn 0.3322 0.8047 -0.4921
vn 0.5131 0.8193 0.2560
vn 0.0517 0.8477 -0.5280
vn -0.0012 0.9882 0.1531
vn 0.2356 0.9531 0.1902
vn -0.2982 0.9338 0.1975
vn -0.1103 0.8054 -0.5823
vn -0.6539 0.7217 0.2269
vn -0.2910 0.7925 -0.5360
vn 0.0425 -0.0708 -0.9966
vn 0.3153 0.3305 -0.8896
vn -0.1019 0.3529 -0.9301
vn -0.2077 0.2614 -0.9426
vn -0.2742 0.2642 -0.9247
vn -0.7846 0.5865 -0.2012
vn 0.7686 0.1931 0.6099
vn 0.4384 0.2810 0.8537
vn 0.2664 0.2994 0.9162
vn 0.0869 0.2773 0.9569
vn -0.0966 0.2572 0.9615
vn 0.7931 0.2336 0.5625
vn 0.4225 0.3274 0.8452
vn 0.3014 0.3051 0.9034
vn 0.1011 0.3236 0.9408
vn -0.0874 0.3483 0.9333
vn -0.5338 0.3289 0.7790
vn 0.4731 0.3586 0.8047
vn 0.8327 0.2890 0.4723
vn 0.8098 0.3055 0.5009
vn 0.2919 0.3549 0.8882
vn 0.5371 0.3958 0.7449
vn 0.0646 0.3769 0.9240
vn 0.3226 0.4305 0.8430
vn 0.0982 0.4325 0.8963
vn -0.1511 0.4474 0.8815
vn -0.1059 0.3969 0.9117
vn -0.4839 0.4449 0.7536
vn 0.7977 0.3427 0.4962
vn 0.4249 0.4663 0.7759
vn 0.4005 0.4388 0.8044
vn 0.2497 0.4844 0.8384
vn -0.2067 0.5191 0.8293
vn -0.6794 0.4553 0.5754
vn -0.5753 0.2192 0.7880
vn -0.9796 -0.1089 -0.1690
vn -0.9865 -0.0682 -0.1489
vn -0.4016 -0.4095 -0.8191
vn -0.5580 0.3773 0.7391
vn -0.9812 0.1468 0.1255
vn -0.9882 -0.0617 -0.1399
vn -0.7185 -0.3657 -0.5917
vn -0.9925 0.1218 -0.0042
vn -0.6588 0.1294 -0.7411
vn -0.3158 -0.3995 -0.8606
vn -0.0891 -0.5261 -0.8458
vn -0.1946 -0.9699 -0.1463
vn -0.1426 -0.6095 -0.7799
vn 0.0016 -0.9811 -0.1935
vn -0.2120 -0.5941 -0.7759
vn -0.2424 -0.5053 -0.8282
vn -0.2190 -0.5111 -0.8312
vn -0.1707 -0.5768 -0.7989
vn -0.1773 -0.5827 -0.7931
vn 0.0478 -0.5359 -0.8429
vn -0.1977 -0.5372 -0.8199
vn -0.3462 -0.5215 -0.7799
vn -0.5260 -0.4440 -0.7254
vn -0.2219 -0.5703 -0.7909
vn -0.3264 -0.5339 -0.7800
vn -0.2599 -0.5348 -0.8040
vn -0.2642 -0.5493 -0.7928
vn -0.1602 -0.5992 -0.7844
vn -0.1705 -0.5657 -0.8068
vn -0.0547 -0.6071 -0.7927
vn 0.1511 -0.5394 -0.8284
vn -0.7329 -0.3402 -0.5892
vn -0.2501 -0.4950 -0.8321
vn -0.2189 -0.4595 -0.8607
vn -0.2286 -0.4500 -0.8633
vn -0.0757 -0.4594 -0.8850
vn 0.2637 -0.4535 -0.8514
vn 0.8998 -0.3150 -0.3020
vn 0.1663 -0.4865 -0.8577
vn 0.9180 -0.1716 -0.3575
vn 0.0834 -0.5572 -0.8262
vn 0.9062 -0.1973 -0.3739
vn 0.7844 -0.3074 -0.5387
vn 0.9256 -0.1235 -0.3579
usemtl teeths
s 1
f 1/1/1 2/2/2 3/3/3
f 3/3/3 4/4/4 5/5/5
f 4/4/4 6/6/6 7/7/7
f 7/7/7 6/6/6 8/8/8
f 9/9/9 8/8/8 10/10/10
f 11/11/11 1/12/1 12/13/12
f 12/14/12 5/15/5 13/16/13
f 13/16/13 5/15/5 7/17/7
f 14/18/14 7/17/7 9/19/9
f 9/20/9 15/21/15 16/22/16
f 17/23/17 18/24/18 19/25/19
f 20/26/20 19/27/19 21/28/21
f 22/29/22 23/30/23 21/28/21
f 24/31/24 22/29/22 25/32/25
f 26/33/26 24/31/24 27/34/27
f 19/35/19 18/36/18 28/37/28
f 19/27/19 29/38/29 30/39/30
f 21/28/21 30/39/30 31/40/31
f 25/41/25 31/42/31 32/43/32
f 33/44/33 27/45/27 32/43/32
f 2/2/2 34/46/34 35/47/35
f 3/3/3 35/47/35 36/48/36
f 6/6/6 4/4/4 36/48/36
f 8/8/8 6/6/6 37/49/37
f 10/10/10 8/8/8 38/50/38
f 34/46/34 39/51/39 40/52/40
f 36/48/36 35/47/35 40/52/40
f 37/49/37 36/48/36 41/53/41
f 38/50/38 37/49/37 42/54/42
f 38/50/38 43/55/43 44/56/44
f 45/57/45 46/58/46 47/59/47
f 48/60/48 45/57/45 49/61/49
f 50/62/50 48/60/48 51/63/51
f 50/62/50 52/64/52 53/65/53
f 54/66/54 53/65/53 55/67/55
f 49/61/49 47/59/47 56/68/56
f 51/63/51 49/61/49 57/69/57
f 52/64/52 51/63/51 58/70/58
f 52/64/52 59/71/59 60/72/60
f 53/65/53 60/72/60 61/73/61
f 57/69/57 56/68/56 17/23/17
f 58/70/58 57/69/57 20/74/20
f 59/71/59 58/70/58 23/75/23
f 59/71/59 22/76/22 24/77/24
f 60/72/60 24/77/24 26/78/26
f 10/10/10 62/79/62 63/80/63
f 16/22/16 15/21/15 63/81/63
f 62/79/62 44/56/44 64/82/64
f 63/81/63 64/83/64 65/84/65
f 66/85/66 55/67/55 67/86/67
f 68/87/68 67/88/67 69/89/69
f 67/86/67 55/67/55 61/73/61
f 69/89/69 67/88/67 70/90/70
f 61/73/61 26/78/26 33/91/33
f 70/90/70 33/44/33 71/92/71
f 16/22/16 72/93/72 73/94/73
f 14/95/14 74/96/74 73/94/73
f 13/97/13 14/95/14 75/98/75
f 76/99/76 13/97/13 77/100/77
f 11/11/11 76/99/76 78/101/78
f 73/94/73 72/93/72 65/84/65
f 73/94/73 79/102/79 80/103/80
f 75/98/75 80/103/80 81/104/81
f 78/101/78 77/100/77 81/104/81
f 82/105/82 78/101/78 83/106/83
f 84/107/84 85/108/85 69/89/69
f 86/109/86 84/107/84 87/110/87
f 86/109/86 88/111/88 89/112/89
f 90/113/90 89/112/89 91/114/91
f 92/115/92 91/114/91 93/116/93
f 87/110/87 69/89/69 94/117/94
f 88/111/88 87/110/87 95/118/95
f 88/111/88 96/119/96 97/120/97
f 91/114/91 89/112/89 97/120/97
f 91/114/91 98/121/98 99/122/99
f 95/118/95 94/117/94 71/92/71
f 96/119/96 95/118/95 32/43/32
f 96/119/96 31/42/31 30/123/30
f 97/120/97 30/123/30 29/124/29
f 98/121/98 29/124/29 28/37/28
f 1/12/1 11/11/11 82/105/82
f 2/2/2 1/1/1 100/125/100
f 100/126/100 82/105/82 101/127/101
f 34/46/34 100/125/100 102/128/102
f 103/129/103 93/116/93 104/130/104
f 46/58/46 105/131/105 104/132/104
f 104/130/104 93/116/93 99/122/99
f 104/132/104 106/133/106 56/68/56
f 99/122/99 28/37/28 18/36/18
f 106/133/106 18/24/18 17/23/17
f 40/52/40 39/51/39 46/58/46
f 41/53/41 40/52/40 45/57/45
f 42/54/42 41/53/41 48/60/48
f 54/66/54 43/55/43 42/54/42
f 66/85/66 44/56/44 43/55/43
f 68/134/68 64/82/64 44/56/44
f 85/108/85 65/84/65 64/83/64
f 79/102/79 65/84/65 85/108/85
f 80/103/80 79/102/79 84/107/84
f 90/113/90 81/104/81 80/103/80
f 83/106/83 81/104/81 90/113/90
f 103/129/103 101/127/101 83/106/83
f 102/135/102 101/127/101 103/129/103
f 39/51/39 102/128/102 105/131/105
f 1/1/1 3/3/3 12/136/12
f 3/3/3 5/5/5 12/136/12
f 4/4/4 7/7/7 5/5/5
f 7/7/7 8/8/8 9/9/9
f 9/9/9 10/10/10 15/137/15
f 11/11/11 12/13/12 76/99/76
f 12/14/12 13/16/13 76/138/76
f 13/16/13 7/17/7 14/18/14
f 14/18/14 9/19/9 74/139/74
f 9/20/9 16/22/16 74/96/74
f 17/23/17 19/25/19 20/74/20
f 20/26/20 21/28/21 23/30/23
f 22/29/22 21/28/21 25/32/25
f 24/31/24 25/32/25 27/34/27
f 26/33/26 27/34/27 33/140/33
f 19/35/19 28/37/28 29/124/29
f 19/27/19 30/39/30 21/28/21
f 21/28/21 31/40/31 25/32/25
f 25/41/25 32/43/32 27/45/27
f 33/44/33 32/43/32 71/92/71
f 2/2/2 35/47/35 3/3/3
f 3/3/3 36/48/36 4/4/4
f 6/6/6 36/48/36 37/49/37
f 8/8/8 37/49/37 38/50/38
f 10/10/10 38/50/38 62/79/62
f 34/46/34 40/52/40 35/47/35
f 36/48/36 40/52/40 41/53/41
f 37/49/37 41/53/41 42/54/42
f 38/50/38 42/54/42 43/55/43
f 38/50/38 44/56/44 62/79/62
f 45/57/45 47/59/47 49/61/49
f 48/60/48 49/61/49 51/63/51
f 50/62/50 51/63/51 52/64/52
f 50/62/50 53/65/53 54/66/54
f 54/66/54 55/67/55 66/85/66
f 49/61/49 56/68/56 57/69/57
f 51/63/51 57/69/57 58/70/58
f 52/64/52 58/70/58 59/71/59
f 52/64/52 60/72/60 53/65/53
f 53/65/53 61/73/61 55/67/55
f 57/69/57 17/23/17 20/74/20
f 58/70/58 20/74/20 23/75/23
f 59/71/59 23/75/23 22/76/22
f 59/71/59 24/77/24 60/72/60
f 60/72/60 26/78/26 61/73/61
f 10/10/10 63/80/63 15/137/15
f 16/22/16 63/81/63 72/93/72
f 62/79/62 64/82/64 63/80/63
f 63/81/63 65/84/65 72/93/72
f 66/85/66 67/86/67 68/134/68
f 68/87/68 69/89/69 85/108/85
f 67/86/67 61/73/61 70/141/70
f 69/89/69 70/90/70 94/117/94
f 61/73/61 33/91/33 70/141/70
f 70/90/70 71/92/71 94/117/94
f 16/22/16 73/94/73 74/96/74
f 14/95/14 73/94/73 75/98/75
f 13/97/13 75/98/75 77/100/77
f 76/99/76 77/100/77 78/101/78
f 11/11/11 78/101/78 82/105/82
f 73/94/73 65/84/65 79/102/79
f 73/94/73 80/103/80 75/98/75
f 75/98/75 81/104/81 77/100/77
f 78/101/78 81/104/81 83/106/83
f 82/105/82 83/106/83 101/127/101
f 84/107/84 69/89/69 87/110/87
f 86/109/86 87/110/87 88/111/88
f 86/109/86 89/112/89 90/113/90
f 90/113/90 91/114/91 92/115/92
f 92/115/92 93/116/93 103/129/103
f 87/110/87 94/117/94 95/118/95
f 88/111/88 95/118/95 96/119/96
f 88/111/88 97/120/97 89/112/89
f 91/114/91 97/120/97 98/121/98
f 91/114/91 99/122/99 93/116/93
f 95/118/95 71/92/71 32/43/32
f 96/119/96 32/43/32 31/42/31
f 96/119/96 30/123/30 97/120/97
f 97/120/97 29/124/29 98/121/98
f 98/121/98 28/37/28 99/122/99
f 1/12/1 82/105/82 100/126/100
f 2/2/2 100/125/100 34/46/34
f 100/126/100 101/127/101 102/135/102
f 34/46/34 102/128/102 39/51/39
f 103/129/103 104/130/104 105/142/105
f 46/58/46 104/132/104 47/59/47
f 104/130/104 99/122/99 106/143/106
f 104/132/104 56/68/56 47/59/47
f 99/122/99 18/36/18 106/143/106
f 106/133/106 17/23/17 56/68/56
f 40/52/40 46/58/46 45/57/45
f 41/53/41 45/57/45 48/60/48
f 42/54/42 48/60/48 50/62/50
f 54/66/54 42/54/42 50/62/50
f 66/85/66 43/55/43 54/66/54
f 68/134/68 44/56/44 66/85/66
f 85/108/85 64/83/64 68/87/68
f 79/102/79 85/108/85 84/107/84
f 80/103/80 84/107/84 86/109/86
f 90/113/90 80/103/80 86/109/86
f 83/106/83 90/113/90 92/115/92
f 103/129/103 83/106/83 92/115/92
f 102/135/102 103/129/103 105/142/105
f 39/51/39 105/131/105 46/58/46
