# Blender v2.79 (sub 0) OBJ File: ''
# www.blender.org
mtllib good_teeth_box11.mtl
o Box11
v -0.347436 0.668467 0.815828
v -0.314992 0.654484 0.826212
v -0.317115 0.668825 0.837352
v -0.252394 0.660861 0.855920
v -0.254529 0.675222 0.867099
v -0.171980 0.663190 0.870500
v -0.174088 0.677502 0.881600
v -0.100812 0.678768 0.877869
v -0.098729 0.664550 0.866910
v -0.057209 0.682081 0.866512
v -0.350122 0.648130 0.794503
v -0.363924 0.650982 0.799386
v -0.245373 0.651064 0.840431
v -0.163861 0.654669 0.850641
v -0.051227 0.660886 0.842254
v -0.032735 0.670370 0.859887
v -0.306939 1.180870 0.558813
v -0.245016 1.188565 0.533087
v -0.322324 1.148006 0.505958
v -0.252732 1.217136 0.578855
v -0.206946 1.202415 0.544773
v -0.154944 1.230586 0.593643
v -0.214658 1.230885 0.590386
v -0.111708 1.214424 0.598547
v -0.150335 1.206190 0.554542
v -0.069562 1.202573 0.601171
v -0.071906 1.184986 0.551479
v -0.296790 1.135885 0.487062
v -0.200218 1.159350 0.475745
v -0.238689 1.152638 0.475662
v -0.143608 1.163092 0.485460
v -0.100453 1.153488 0.501039
v -0.061381 1.154046 0.525617
v -0.322093 0.730428 0.829232
v -0.356529 0.721909 0.799599
v -0.253384 0.738354 0.857458
v -0.171385 0.739700 0.870459
v -0.094546 0.734060 0.866886
v -0.359303 0.777722 0.780378
v -0.319715 0.791433 0.808884
v -0.169920 0.804569 0.850326
v -0.251539 0.804172 0.836171
v -0.088980 0.794386 0.847835
v -0.050823 0.786164 0.837515
v -0.313067 0.880655 0.771765
v -0.338931 0.972363 0.689661
v -0.358765 0.866681 0.744285
v -0.243632 0.894149 0.798821
v -0.297952 0.988698 0.727343
v -0.167813 0.897181 0.809020
v -0.233919 1.002599 0.754101
v -0.097553 0.993936 0.757586
v -0.164852 1.005207 0.756859
v -0.089811 0.892084 0.806641
v -0.055951 0.971017 0.745958
v -0.338511 1.078345 0.634887
v -0.263688 1.103141 0.669124
v -0.230988 1.118645 0.678941
v -0.096856 1.105867 0.686978
v -0.160309 1.121961 0.687880
v -0.053725 1.095571 0.680185
v -0.027497 0.704845 0.839730
v -0.050620 0.723580 0.859825
v -0.047996 0.699616 0.827914
v -0.025812 0.762172 0.807775
v -0.038053 0.757093 0.806868
v -0.051699 0.883607 0.795514
v -0.038624 0.953437 0.717077
v -0.028536 0.862391 0.760823
v -0.035986 0.940631 0.699006
v -0.030112 1.063608 0.628920
v -0.046965 1.050190 0.609926
v -0.040822 1.167646 0.544925
v -0.069646 0.702220 0.828224
v -0.096420 0.656316 0.855420
v -0.164502 0.701655 0.819242
v -0.309397 0.646630 0.813857
v -0.245004 0.698473 0.803268
v -0.307601 0.695828 0.782650
v -0.065043 0.755807 0.801976
v -0.161915 0.755250 0.784531
v -0.241025 0.753737 0.768461
v -0.360076 0.694181 0.765014
v -0.305434 0.748511 0.751373
v -0.067553 0.847944 0.738037
v -0.041497 0.852110 0.746367
v -0.158108 0.842000 0.720341
v -0.064285 0.924320 0.670677
v -0.237043 0.835726 0.704776
v -0.152648 0.921777 0.640740
v -0.271653 0.923522 0.616520
v -0.231502 0.926100 0.624531
v -0.305707 0.830084 0.689970
v -0.324767 0.919670 0.605213
v -0.075240 1.039230 0.582539
v -0.147476 1.035248 0.548580
v -0.266370 1.024691 0.536623
v -0.228259 1.030031 0.536503
v -0.324346 1.025464 0.550146
v -0.373085 0.697090 0.769642
v -0.365397 0.742036 0.736192
v -0.376411 0.747132 0.739961
v -0.358838 0.826756 0.680172
v -0.350210 0.931308 0.623801
v -0.371774 0.832784 0.690114
v -0.349762 1.037112 0.568726
vt 0.098970 0.043810
vt 0.191040 0.017990
vt 0.190980 0.027960
vt 0.376290 0.005190
vt 0.376210 0.015150
vt 0.604930 0.000500
vt 0.604900 0.010470
vt 0.806910 0.019240
vt 0.806940 0.009280
vt 0.924100 0.035550
vt 0.918760 0.033980
vt 0.808960 0.017990
vt 0.954910 0.033010
vt 0.808960 0.610810
vt 0.611100 0.621760
vt 0.623710 0.509090
vt 0.395070 0.511890
vt 0.380850 0.643300
vt 0.193060 0.599620
vt 0.193060 0.009280
vt 0.070770 0.027480
vt 0.011880 0.026570
vt 0.180030 0.349920
vt 0.343300 0.515870
vt 0.114010 0.692800
vt 0.342130 0.197310
vt 0.454860 0.455360
vt 0.620390 0.183250
vt 0.453620 0.137890
vt 0.740130 0.251540
vt 0.615900 0.453360
vt 0.856520 0.959950
vt 0.829710 0.977540
vt 0.740130 0.975890
vt 0.176440 0.847920
vt 0.443010 0.930780
vt 0.335460 0.912400
vt 0.604030 0.929120
vt 0.728240 0.925160
vt 0.170290 0.977540
vt 0.154350 0.957870
vt 0.271760 0.975530
vt 0.181740 0.117740
vt 0.074350 0.129110
vt 0.383580 0.108600
vt 0.615920 0.103990
vt 0.827050 0.103490
vt 0.066460 0.220450
vt 0.188360 0.217320
vt 0.620570 0.208550
vt 0.388980 0.215440
vt 0.842890 0.201230
vt 0.943940 0.200800
vt 0.204140 0.369260
vt 0.113620 0.560380
vt 0.065650 0.370850
vt 0.408260 0.368660
vt 0.243050 0.553210
vt 0.622640 0.368340
vt 0.432120 0.553110
vt 0.810550 0.545850
vt 0.625000 0.558060
vt 0.837490 0.367640
vt 0.918870 0.526820
vt 0.107730 0.749380
vt 0.330800 0.758350
vt 0.426980 0.772880
vt 0.800360 0.756130
vt 0.626680 0.773710
vt 0.916240 0.750210
vt 0.180030 0.953170
vt 0.342130 0.988390
vt 0.453620 0.999400
vt 0.620390 0.999500
vt 0.999500 0.090280
vt 0.945010 0.097590
vt 0.062310 0.091970
vt 0.000500 0.090280
vt 0.999500 0.194540
vt 0.035390 0.187770
vt 0.000500 0.194540
vt 0.938080 0.367530
vt 0.954220 0.528100
vt 0.012950 0.369060
vt 0.046640 0.526020
vt 0.045780 0.528100
vt 0.040920 0.751070
vt 0.959080 0.751070
vt 0.096250 0.747890
vt 0.088600 0.961250
vt 0.121930 0.094070
vt 0.191860 0.007870
vt 0.388360 0.095690
vt 0.611100 0.005250
vt 0.380850 0.006000
vt 0.798920 0.017990
vt 0.617860 0.100380
vt 0.799330 0.110640
vt 0.112200 0.188660
vt 0.387320 0.197250
vt 0.612790 0.204350
vt 0.951520 0.120310
vt 0.798310 0.208080
vt 0.131260 0.366450
vt 0.055440 0.366530
vt 0.389610 0.368300
vt 0.137480 0.526100
vt 0.615000 0.368560
vt 0.393810 0.542890
vt 0.732510 0.559050
vt 0.617900 0.558010
vt 0.811530 0.369590
vt 0.884410 0.560410
vt 0.186030 0.754410
vt 0.399270 0.773480
vt 0.734680 0.762780
vt 0.628370 0.772150
vt 0.890440 0.749410
vt 0.556990 0.999190
vt 0.395970 0.999190
vt 0.664540 0.988110
vt 0.823560 0.952810
vt 0.014450 0.119670
vt 0.045090 0.033010
vt 0.985550 0.119670
vt 0.970950 0.208770
vt 0.000500 0.211920
vt 0.962880 0.370410
vt 0.946770 0.559250
vt 0.053230 0.559250
vt 0.005620 0.369550
vt 0.047300 0.748270
vt 0.885990 0.952050
vt 0.114010 0.952050
vt 0.987050 0.369060
vt 0.999500 0.211920
vt 0.988120 0.026570
vt 0.798920 0.700790
vt 0.191860 0.683170
vt 0.829710 0.611570
vt 0.911400 0.961250
vt 0.994380 0.369550
vt 0.952700 0.748270
vn -0.6432 -0.1098 0.7578
vn -0.2906 -0.7401 0.6064
vn -0.4631 -0.2875 0.8384
vn -0.1655 -0.7443 0.6470
vn -0.2725 -0.2480 0.9296
vn -0.0155 -0.7789 0.6270
vn -0.0566 -0.2348 0.9704
vn 0.1489 -0.2280 0.9622
vn 0.1196 -0.7100 0.6940
vn 0.2951 -0.0235 0.9552
vn -0.0340 -0.8999 -0.4348
vn -0.7780 -0.6151 0.1282
vn 0.0860 -0.9869 -0.1368
vn 0.0738 -0.9619 -0.2633
vn 0.2779 -0.8377 -0.4702
vn 0.8113 -0.4148 0.4121
vn -0.6762 0.7354 0.0439
vn -0.2166 0.8162 -0.5356
vn -0.7306 0.4016 -0.5523
vn -0.4524 0.8890 0.0704
vn -0.0503 0.8440 -0.5340
vn 0.1537 0.9776 0.1439
vn -0.1871 0.9685 0.1646
vn 0.2623 0.9350 0.2385
vn 0.1573 0.8499 -0.5030
vn 0.5367 0.7986 0.2723
vn 0.3047 0.8196 -0.4851
vn -0.3468 0.1128 -0.9311
vn 0.0506 0.2837 -0.9576
vn -0.1393 0.2628 -0.9547
vn 0.2555 0.3105 -0.9156
vn 0.4146 0.1588 -0.8960
vn 0.5940 0.0856 -0.7999
vn -0.5288 0.1903 0.8271
vn -0.8059 0.1203 0.5797
vn -0.2809 0.2308 0.9316
vn -0.0476 0.2404 0.9695
vn 0.1496 0.2379 0.9597
vn -0.8267 0.2055 0.5238
vn -0.5100 0.3176 0.7994
vn -0.0437 0.3504 0.9356
vn -0.2854 0.3464 0.8936
vn 0.1968 0.3329 0.9222
vn 0.5960 0.2939 0.7472
vn -0.4957 0.3945 0.7737
vn -0.8839 0.2617 0.3876
vn -0.8383 0.3049 0.4519
vn -0.2760 0.3935 0.8769
vn -0.5525 0.4123 0.7245
vn -0.0338 0.4147 0.9093
vn -0.2474 0.4711 0.8467
vn 0.2474 0.4605 0.8525
vn 0.0077 0.4856 0.8742
vn 0.2122 0.4224 0.8812
vn 0.6977 0.3433 0.6288
vn -0.8275 0.3877 0.4061
vn -0.4810 0.5409 0.6900
vn -0.2979 0.5667 0.7681
vn 0.1961 0.5658 0.8009
vn 0.0187 0.5807 0.8139
vn 0.6706 0.4393 0.5977
vn 0.9846 -0.1721 -0.0314
vn 0.5028 0.2041 0.8400
vn 0.2820 -0.4107 -0.8671
vn 0.9422 -0.2132 -0.2583
vn 0.2437 -0.4659 -0.8506
vn 0.6414 0.3571 0.6791
vn 0.9534 0.1630 0.2539
vn 0.9995 -0.0005 -0.0313
vn 0.9436 -0.1939 -0.2684
vn 0.9940 -0.0290 -0.1053
vn 0.7644 -0.3498 -0.5415
vn 0.8241 0.3653 -0.4330
vn -0.0194 -0.4399 -0.8978
vn 0.0984 -0.9883 -0.1164
vn 0.1352 -0.5441 -0.8281
vn 0.0918 -0.9744 -0.2052
vn 0.2440 -0.5573 -0.7937
vn 0.2932 -0.5045 -0.8121
vn 0.1490 -0.4882 -0.8599
vn 0.1687 -0.5611 -0.8104
vn 0.2213 -0.5628 -0.7964
vn -0.0630 -0.5383 -0.8404
vn 0.2582 -0.5425 -0.7994
vn 0.2890 -0.5627 -0.7745
vn 0.5734 -0.4129 -0.7077
vn 0.1974 -0.6419 -0.7409
vn 0.5257 -0.5426 -0.6551
vn 0.1994 -0.6353 -0.7461
vn 0.2086 -0.6453 -0.7349
vn 0.1737 -0.6096 -0.7735
vn 0.1527 -0.6440 -0.7496
vn 0.2044 -0.6143 -0.7621
vn -0.2056 -0.5112 -0.8345
vn 0.5425 -0.4730 -0.6942
vn 0.2606 -0.5394 -0.8007
vn -0.0534 -0.5403 -0.8398
vn 0.1132 -0.5430 -0.8320
vn -0.4294 -0.4204 -0.7993
vn -0.9274 -0.3017 -0.2210
vn -0.1346 -0.5327 -0.8355
vn -0.9377 -0.2017 -0.2828
vn -0.2977 -0.5109 -0.8065
vn -0.9253 -0.1184 -0.3602
vn -0.9533 -0.0740 -0.2929
vn -0.9357 -0.0760 -0.3446
usemtl teeths
s 1
f 1/1/1 2/2/2 3/3/3
f 3/3/3 4/4/4 5/5/5
f 5/5/5 6/6/6 7/7/7
f 6/6/6 8/8/8 7/7/7
f 9/9/9 10/10/10 8/8/8
f 11/11/11 2/12/2 12/13/12
f 2/14/2 13/15/13 4/16/4
f 13/15/13 6/17/6 4/16/4
f 14/18/14 9/19/9 6/17/6
f 9/20/9 15/21/15 16/22/16
f 17/23/17 18/24/18 19/25/19
f 20/26/20 21/27/21 18/24/18
f 22/28/22 21/27/21 23/29/23
f 24/30/24 25/31/25 22/28/22
f 26/32/26 27/33/27 24/34/24
f 18/24/18 28/35/28 19/25/19
f 18/24/18 29/36/29 30/37/30
f 21/27/21 31/38/31 29/36/29
f 25/31/25 32/39/32 31/38/31
f 27/40/27 33/41/33 32/42/32
f 1/1/1 34/43/34 35/44/35
f 5/5/5 34/43/34 3/3/3
f 7/7/7 36/45/36 5/5/5
f 8/8/8 37/46/37 7/7/7
f 10/10/10 38/47/38 8/8/8
f 34/43/34 39/48/39 35/44/35
f 36/45/36 40/49/40 34/43/34
f 36/45/36 41/50/41 42/51/42
f 37/46/37 43/52/43 41/50/41
f 38/47/38 44/53/44 43/52/43
f 45/54/45 46/55/46 47/56/47
f 48/57/48 49/58/49 45/54/45
f 50/59/50 51/60/51 48/57/48
f 50/59/50 52/61/52 53/62/53
f 54/63/54 55/64/55 52/61/52
f 49/58/49 56/65/56 46/55/46
f 51/60/51 57/66/57 49/58/49
f 53/62/53 58/67/58 51/60/51
f 53/62/53 59/68/59 60/69/60
f 52/61/52 61/70/61 59/68/59
f 57/66/57 17/71/17 56/65/56
f 58/67/58 20/72/20 57/66/57
f 60/69/60 23/73/23 58/67/58
f 60/69/60 24/34/24 22/74/22
f 59/68/59 26/32/26 24/34/24
f 10/10/10 62/75/62 63/76/63
f 16/22/16 64/77/64 62/78/62
f 63/76/63 65/79/65 44/53/44
f 62/78/62 66/80/66 65/81/65
f 67/82/67 68/83/68 55/64/55
f 69/84/69 70/85/70 68/86/68
f 68/83/68 61/70/61 55/64/55
f 70/85/70 71/87/71 68/86/68
f 71/88/71 26/32/26 61/70/61
f 72/89/72 73/90/73 71/87/71
f 15/21/15 74/91/74 64/77/64
f 75/92/75 76/93/76 74/91/74
f 13/94/13 76/93/76 14/95/14
f 77/96/77 78/97/78 13/94/13
f 11/11/11 79/98/79 77/96/77
f 64/77/64 80/99/80 66/80/66
f 76/93/76 80/99/80 74/91/74
f 78/97/78 81/100/81 76/93/76
f 79/98/79 82/101/82 78/97/78
f 83/102/83 84/103/84 79/98/79
f 85/104/85 70/85/70 86/105/86
f 87/106/87 88/107/88 85/104/85
f 89/108/89 90/109/90 87/106/87
f 89/108/89 91/110/91 92/111/92
f 93/112/93 94/113/94 91/110/91
f 88/107/88 72/89/72 70/85/70
f 90/109/90 95/114/95 88/107/88
f 92/111/92 96/115/96 90/109/90
f 92/111/92 97/116/97 98/117/98
f 91/110/91 99/118/99 97/116/97
f 95/114/95 33/41/33 72/89/72
f 96/115/96 32/42/32 95/114/95
f 96/115/96 29/119/29 31/120/31
f 98/117/98 30/121/30 29/119/29
f 97/116/97 28/122/28 30/121/30
f 12/13/12 83/102/83 11/11/11
f 1/1/1 100/123/100 12/124/12
f 100/125/100 101/126/101 83/102/83
f 35/44/35 102/127/102 100/123/100
f 103/128/103 104/129/104 94/113/94
f 47/56/47 104/130/104 105/131/105
f 104/129/104 99/118/99 94/113/94
f 46/55/46 106/132/106 104/130/104
f 99/118/99 19/133/19 28/122/28
f 56/65/56 19/134/19 106/132/106
f 40/49/40 47/56/47 39/48/39
f 42/51/42 45/54/45 40/49/40
f 41/50/41 48/57/48 42/51/42
f 54/63/54 41/50/41 43/52/43
f 67/82/67 43/52/43 44/53/44
f 69/135/69 44/53/44 65/79/65
f 86/105/86 65/81/65 66/80/66
f 80/99/80 86/105/86 66/80/66
f 81/100/81 85/104/85 80/99/80
f 82/101/82 87/106/87 81/100/81
f 84/103/84 89/108/89 82/101/82
f 101/126/101 93/112/93 84/103/84
f 102/136/102 103/128/103 101/126/101
f 39/48/39 105/131/105 102/127/102
f 1/1/1 12/124/12 2/2/2
f 3/3/3 2/2/2 4/4/4
f 5/5/5 4/4/4 6/6/6
f 6/6/6 9/9/9 8/8/8
f 9/9/9 16/137/16 10/10/10
f 11/11/11 77/96/77 2/12/2
f 2/14/2 77/138/77 13/15/13
f 13/15/13 14/18/14 6/17/6
f 14/18/14 75/139/75 9/19/9
f 9/20/9 75/92/75 15/21/15
f 17/23/17 20/26/20 18/24/18
f 20/26/20 23/29/23 21/27/21
f 22/28/22 25/31/25 21/27/21
f 24/30/24 27/140/27 25/31/25
f 26/32/26 73/141/73 27/33/27
f 18/24/18 30/37/30 28/35/28
f 18/24/18 21/27/21 29/36/29
f 21/27/21 25/31/25 31/38/31
f 25/31/25 27/140/27 32/39/32
f 27/40/27 73/90/73 33/41/33
f 1/1/1 3/3/3 34/43/34
f 5/5/5 36/45/36 34/43/34
f 7/7/7 37/46/37 36/45/36
f 8/8/8 38/47/38 37/46/37
f 10/10/10 63/76/63 38/47/38
f 34/43/34 40/49/40 39/48/39
f 36/45/36 42/51/42 40/49/40
f 36/45/36 37/46/37 41/50/41
f 37/46/37 38/47/38 43/52/43
f 38/47/38 63/76/63 44/53/44
f 45/54/45 49/58/49 46/55/46
f 48/57/48 51/60/51 49/58/49
f 50/59/50 53/62/53 51/60/51
f 50/59/50 54/63/54 52/61/52
f 54/63/54 67/82/67 55/64/55
f 49/58/49 57/66/57 56/65/56
f 51/60/51 58/67/58 57/66/57
f 53/62/53 60/69/60 58/67/58
f 53/62/53 52/61/52 59/68/59
f 52/61/52 55/64/55 61/70/61
f 57/66/57 20/72/20 17/71/17
f 58/67/58 23/73/23 20/72/20
f 60/69/60 22/74/22 23/73/23
f 60/69/60 59/68/59 24/34/24
f 59/68/59 61/70/61 26/32/26
f 10/10/10 16/137/16 62/75/62
f 16/22/16 15/21/15 64/77/64
f 63/76/63 62/75/62 65/79/65
f 62/78/62 64/77/64 66/80/66
f 67/82/67 69/135/69 68/83/68
f 69/84/69 86/105/86 70/85/70
f 68/83/68 71/88/71 61/70/61
f 70/85/70 72/89/72 71/87/71
f 71/88/71 73/141/73 26/32/26
f 72/89/72 33/41/33 73/90/73
f 15/21/15 75/92/75 74/91/74
f 75/92/75 14/95/14 76/93/76
f 13/94/13 78/97/78 76/93/76
f 77/96/77 79/98/79 78/97/78
f 11/11/11 83/102/83 79/98/79
f 64/77/64 74/91/74 80/99/80
f 76/93/76 81/100/81 80/99/80
f 78/97/78 82/101/82 81/100/81
f 79/98/79 84/103/84 82/101/82
f 83/102/83 101/126/101 84/103/84
f 85/104/85 88/107/88 70/85/70
f 87/106/87 90/109/90 88/107/88
f 89/108/89 92/111/92 90/109/90
f 89/108/89 93/112/93 91/110/91
f 93/112/93 103/128/103 94/113/94
f 88/107/88 95/114/95 72/89/72
f 90/109/90 96/115/96 95/114/95
f 92/111/92 98/117/98 96/115/96
f 92/111/92 91/110/91 97/116/97
f 91/110/91 94/113/94 99/118/99
f 95/114/95 32/42/32 33/41/33
f 96/115/96 31/120/31 32/42/32
f 96/115/96 98/117/98 29/119/29
f 98/117/98 97/116/97 30/121/30
f 97/116/97 99/118/99 28/122/28
f 12/13/12 100/125/100 83/102/83
f 1/1/1 35/44/35 100/123/100
f 100/125/100 102/136/102 101/126/101
f 35/44/35 39/48/39 102/127/102
f 103/128/103 105/142/105 104/129/104
f 47/56/47 46/55/46 104/130/104
f 104/129/104 106/143/106 99/118/99
f 46/55/46 56/65/56 106/132/106
f 99/118/99 106/143/106 19/133/19
f 56/65/56 17/71/17 19/134/19
f 40/49/40 45/54/45 47/56/47
f 42/51/42 48/57/48 45/54/45
f 41/50/41 50/59/50 48/57/48
f 54/63/54 50/59/50 41/50/41
f 67/82/67 54/63/54 43/52/43
f 69/135/69 67/82/67 44/53/44
f 86/105/86 69/84/69 65/81/65
f 80/99/80 85/104/85 86/105/86
f 81/100/81 87/106/87 85/104/85
f 82/101/82 89/108/89 87/106/87
f 84/103/84 93/112/93 89/108/89
f 101/126/101 103/128/103 93/112/93
f 102/136/102 105/142/105 103/128/103
f 39/48/39 47/56/47 105/131/105
