# Blender v2.79 (sub 0) OBJ File: ''
# www.blender.org
mtllib teeth47.mtl
o Box47
v -0.557527 -0.533526 -0.516848
v -0.613829 -0.544143 -0.469142
v -0.623576 -0.522743 -0.572729
v -0.659856 -0.548500 -0.450933
v -0.670785 -0.525320 -0.563162
v -0.741743 -0.542770 -0.483438
v -0.795252 -0.536092 -0.518808
v -0.571150 -0.518180 -0.591530
v -0.637766 -0.499886 -0.683588
v -0.701355 -0.499583 -0.688870
v -0.807469 -0.508958 -0.650134
v -0.796407 -0.497958 -0.702402
v -0.595382 -0.483472 -0.760037
v -0.558587 -0.497452 -0.690536
v -0.647513 -0.478483 -0.787174
v -0.767183 -0.488342 -0.746925
v -0.816244 -0.520254 -0.596290
v -0.709678 -0.477648 -0.794934
v -0.593929 -0.137258 -0.446605
v -0.617262 -0.141526 -0.509217
v -0.655988 -0.135587 -0.521427
v -0.678805 -0.172784 -0.437963
v -0.654249 -0.157782 -0.407067
v -0.738097 -0.132689 -0.415553
v -0.689571 -0.154850 -0.516159
v -0.759065 -0.101698 -0.481950
v -0.597694 -0.114339 -0.605614
v -0.669053 -0.116912 -0.639130
v -0.789445 -0.161896 -0.571212
v -0.720262 -0.102676 -0.645770
v -0.780263 -0.077522 -0.611708
v -0.620160 -0.107617 -0.649615
v -0.682478 -0.103421 -0.671998
v -0.722530 -0.086557 -0.669037
v -0.744636 -0.099255 -0.658010
v -0.539524 -0.391718 -0.466578
v -0.600862 -0.404084 -0.410750
v -0.678411 -0.409941 -0.387229
v -0.536065 -0.265477 -0.429186
v -0.596788 -0.286155 -0.371063
v -0.775002 -0.403180 -0.425573
v -0.694235 -0.293048 -0.344534
v -0.543164 -0.147745 -0.404197
v -0.594536 -0.155042 -0.344188
v -0.667914 -0.195046 -0.326766
v -0.798306 -0.285764 -0.385846
v -0.839850 -0.376340 -0.558654
v -0.849002 -0.364293 -0.617190
v -0.838070 -0.351091 -0.680059
v -0.800428 -0.338834 -0.736783
v -0.833064 -0.394185 -0.472354
v -0.884071 -0.257519 -0.526941
v -0.835302 -0.243266 -0.592606
v -0.865641 -0.229975 -0.658390
v -0.830638 -0.216592 -0.720711
v -0.792337 -0.152850 -0.361935
v -0.816588 -0.135133 -0.406357
v -0.811984 -0.103622 -0.501931
v -0.806215 -0.172389 -0.569576
v -0.841158 -0.088517 -0.632950
v -0.805107 -0.095839 -0.698167
v -0.732593 -0.326221 -0.793414
v -0.640593 -0.326635 -0.785897
v -0.584178 -0.332672 -0.753442
v -0.773175 -0.203480 -0.780353
v -0.655531 -0.178360 -0.768719
v -0.579126 -0.184387 -0.735121
v -0.729477 -0.063313 -0.729336
v -0.669513 -0.083958 -0.700040
v -0.591274 -0.084131 -0.713265
v -0.540775 -0.349164 -0.671461
v -0.554441 -0.364603 -0.597970
v -0.534439 -0.197594 -0.668866
v -0.595376 -0.233602 -0.586167
v -0.546231 -0.116964 -0.649812
v -0.586857 -0.152963 -0.540610
v -0.763019 -0.134782 -0.403779
v -0.857493 -0.276193 -0.435464
vt 0.903210 0.230300
vt 0.718150 0.128660
vt 0.718150 0.376880
vt 0.572810 0.094980
vt 0.571690 0.363990
vt 0.332840 0.189320
vt 0.180080 0.284530
vt 0.883120 0.410630
vt 0.706700 0.643310
vt 0.514640 0.669130
vt 0.180500 0.599190
vt 0.229160 0.721110
vt 0.857630 0.816160
vt 0.949730 0.643310
vt 0.706700 0.891530
vt 0.330870 0.820830
vt 0.138370 0.473060
vt 0.519680 0.922940
vt 0.189270 0.264600
vt 0.243960 0.410270
vt 0.357990 0.449200
vt 0.246380 0.876580
vt 0.177770 0.925430
vt 0.449200 0.921860
vt 0.773100 0.981830
vt 0.564680 0.880800
vt 0.602710 1.022230
vt 0.156130 0.638550
vt 0.463390 0.435320
vt 0.364560 0.729010
vt 0.753270 0.578870
vt 0.517290 0.761830
vt 0.706620 0.708920
vt 0.212120 0.746800
vt 0.395380 0.813140
vt 0.516470 0.822920
vt 0.587870 0.796560
vt 0.281850 0.000500
vt 0.096790 0.000500
vt 0.042180 0.352250
vt 0.427190 0.000500
vt 0.244890 0.352250
vt 0.667160 0.000500
vt 0.487710 0.352250
vt 0.029830 0.662210
vt 0.232070 0.644060
vt 0.770770 0.352250
vt 0.536330 0.643690
vt 0.047100 0.946820
vt 0.220130 0.960270
vt 0.451820 0.878210
vt 0.841300 0.643690
vt 0.819920 0.000500
vt 0.473060 0.000500
vt 0.460110 0.352250
vt 0.601140 0.352250
vt 0.721110 0.000500
vt 0.748270 0.352250
vt 0.875240 0.352250
vt 0.934120 0.352250
vt 0.453270 0.643690
vt 0.599160 0.643690
vt 0.761830 0.643690
vt 0.902640 0.643690
vt 0.100050 0.643690
vt 0.106850 0.962530
vt 0.221620 0.982870
vt -0.061980 0.643690
vt 0.165090 1.009700
vt 0.194280 0.817910
vt 0.765200 0.982500
vt 0.902640 0.933170
vt 0.330870 0.000500
vt 0.240980 0.352250
vt 0.463710 0.352250
vt 0.519680 0.000500
vt 0.741620 0.352250
vt 0.706700 0.000500
vt 0.904060 0.352250
vt 0.156190 0.643690
vt 0.348200 0.643690
vt 0.705440 0.704000
vt 0.928410 0.704000
vt 0.239150 0.933170
vt 0.480660 0.991260
vt 0.653380 0.955840
vt 0.894980 0.946820
vt 0.183840 0.000500
vt 0.130270 0.352250
vt 0.334160 0.352250
vt 0.356690 0.000500
vt 0.505970 0.352250
vt 0.589370 0.000500
vt 0.821350 0.352250
vt 0.103290 0.704000
vt 0.270080 0.704000
vt 0.462420 0.662210
vt 0.847870 0.662210
vt 0.103290 0.946820
vt 0.273010 0.900050
vt 0.530090 0.870440
vt 0.220130 0.022970
vt 0.047100 0.152130
vt -0.019840 0.878210
vt 0.022970 0.960270
vt 0.451820 -0.019840
vt 0.453180 0.246380
vt 0.635850 0.226900
vt 0.817100 0.106850
vt 0.715030 0.204430
vt 0.320980 1.022230
vt 0.246730 0.840910
vt 0.112720 0.982500
vt 0.293380 1.016390
vt 0.519340 0.972770
vt 0.760850 0.902640
vt 0.346620 0.883430
vt -0.012030 0.726990
vt 0.105020 0.896710
vt 0.361450 0.928870
vt 0.144120 0.469910
vt 0.284530 0.000500
vt 0.253600 0.352250
vt 0.230320 0.643690
vt 0.877380 0.221620
vt 0.679020 0.397290
vt 0.599190 0.000500
vt 0.573810 0.817910
vt 0.805720 0.817910
vt 0.753270 0.840910
vt 0.706620 1.016390
vt 0.385300 0.177770
vt 0.435320 0.880800
vt 0.753620 0.876580
vt 0.795570 0.983380
vt 0.817100 0.962530
vt 0.820830 0.000500
vt 1.007280 0.643690
vt 0.105290 0.643690
vt 0.857630 0.000500
vt 0.769700 0.000500
vt 0.847870 0.946820
vt 0.412130 0.942820
vt 0.589730 0.912870
vt 0.453270 1.009700
vt 0.834910 0.453270
vt 0.887280 0.982500
vn 0.0123 -0.9790 -0.2034
vn 0.0122 -0.9790 -0.2034
vn 0.0605 0.9977 0.0312
vn 0.2276 0.9737 0.0093
vn -0.2472 0.9495 0.1933
vn -0.0391 0.9826 0.1814
vn -0.4676 0.8574 0.2149
vn 0.3601 0.8808 0.3075
vn -0.0512 0.9915 0.1198
vn 0.2601 0.9632 -0.0676
vn 0.1674 0.9493 0.2659
vn 0.0123 0.9527 0.3036
vn -0.1771 0.9546 0.2397
vn 0.1898 0.8860 0.4231
vn 0.1449 0.8564 0.4956
vn -0.0023 0.9529 0.3032
vn 0.1437 0.8520 0.5034
vn 0.0099 0.8777 0.4791
vn 0.0160 0.9949 0.0996
vn 0.4530 0.3372 0.8253
vn 0.7057 0.6041 0.3702
vn 0.9334 -0.1851 0.3075
vn 0.0022 0.3028 0.9530
vn 0.5019 -0.3262 0.8011
vn -0.4298 0.2276 0.8738
vn -0.0374 -0.3867 0.9214
vn 0.9690 -0.0248 0.2460
vn 0.5087 -0.2360 0.8280
vn -0.4894 -0.3907 0.7796
vn -0.0916 -0.2502 0.9638
vn 0.7783 0.5831 0.2331
vn 0.2718 0.5773 0.7700
vn -0.0095 0.3219 0.9467
vn -0.5315 -0.2096 0.8207
vn -0.7306 0.3615 0.5792
vn -0.8655 0.4738 0.1628
vn -0.9802 -0.1969 0.0189
vn -0.9980 -0.0522 -0.0348
vn -0.8455 0.4678 -0.2574
vn -0.9325 -0.1252 -0.3389
vn -0.7319 -0.1176 -0.6711
vn -0.8447 -0.3552 0.4004
vn -0.9813 0.0750 -0.1774
vn -0.9886 0.1423 -0.0497
vn -0.9997 0.0021 -0.0262
vn -0.8099 0.0869 -0.5801
vn -0.4365 0.4607 0.7728
vn -0.6281 0.6336 0.4517
vn -0.4466 0.8624 -0.2384
vn -0.8565 0.5158 0.0178
vn -0.7352 0.6595 0.1564
vn -0.5496 0.7106 -0.4393
vn -0.6827 0.5386 -0.4938
vn -0.2747 -0.0071 -0.9615
vn -0.2470 0.6677 -0.7023
vn 0.2998 0.0602 -0.9521
vn 0.2571 0.6642 -0.7019
vn 0.7097 0.0076 -0.7045
vn -0.3946 0.1731 -0.9024
vn 0.2135 0.2827 -0.9351
vn 0.6584 0.1666 -0.7340
vn -0.0497 0.9104 -0.4107
vn 0.1958 0.9775 -0.0782
vn 0.3971 0.8243 -0.4035
vn 0.5800 0.6826 -0.4447
vn 0.9959 -0.0078 -0.0906
vn 0.7633 0.6460 0.0044
vn 0.9984 0.0563 0.0081
vn 0.8322 0.5477 0.0869
vn 0.9981 0.0611 0.0007
vn 0.9904 0.0668 0.1206
vn 0.8212 0.5593 0.1129
vn 0.8741 0.4809 0.0682
vn 0.0723 0.9008 0.4281
vn -0.8493 -0.0972 0.5188
vn -0.9111 0.4037 -0.0833
usemtl teeths
s off
f 1/1/1 2/2/1 3/3/1
f 2/2/2 4/4/2 5/5/2
f 5/5/1 6/6/1 7/7/1
f 8/8/1 3/3/1 9/9/1
f 9/9/2 3/3/2 5/5/2
f 10/10/2 11/11/2 12/12/2
f 13/13/2 14/14/2 9/9/2
f 15/15/2 9/9/2 10/10/2
f 10/10/2 12/12/2 16/16/2
f 1/1/1 3/3/1 8/8/1
f 2/2/2 5/5/2 3/3/2
f 6/6/2 5/5/2 4/4/2
f 5/5/2 7/7/2 17/17/2
f 8/8/2 9/9/2 14/14/2
f 9/9/2 5/5/2 10/10/2
f 17/17/2 11/11/2 5/5/2
f 5/5/2 11/11/2 10/10/2
f 13/13/2 9/9/2 15/15/2
f 15/15/2 10/10/2 18/18/2
f 10/10/2 16/16/2 18/18/2
s 1
f 19/19/3 20/20/4 21/21/5
f 22/22/6 23/23/7 21/24/5
f 24/25/8 25/26/9 26/27/10
f 21/21/5 20/20/4 27/28/11
f 25/29/9 21/21/5 28/30/12
f 29/31/13 30/32/14 31/33/15
f 28/30/12 27/28/11 32/34/16
f 30/32/14 28/30/12 33/35/17
f 30/32/14 34/36/18 35/37/19
f 2/38/20 1/39/21 36/40/22
f 4/41/23 2/38/20 37/42/24
f 6/43/25 4/41/23 38/44/26
f 36/40/22 39/45/27 40/46/28
f 38/44/26 37/42/24 40/46/28
f 41/47/29 38/44/26 42/48/30
f 39/45/27 43/49/31 44/50/32
f 40/46/28 44/50/32 45/51/33
f 46/52/34 42/48/30 45/51/33
f 7/53/35 6/43/25 41/47/29
f 17/54/36 47/55/37 48/56/38
f 12/57/39 49/58/40 50/59/41
f 51/60/42 41/47/29 46/52/34
f 47/55/37 52/61/43 53/62/44
f 49/58/40 54/63/45 55/64/46
f 46/65/34 56/66/47 57/67/48
f 52/68/43 58/69/49 59/70/50
f 54/63/45 60/71/51 61/72/52
f 16/73/53 50/74/41 62/75/54
f 18/76/55 62/75/54 63/77/56
f 15/78/57 63/77/56 64/79/58
f 50/74/41 55/80/46 65/81/59
f 62/75/54 65/81/59 66/82/60
f 63/77/56 66/82/60 67/83/61
f 65/81/59 55/80/46 61/84/52
f 66/82/60 65/81/59 68/85/62
f 66/82/60 69/86/63 70/87/64
f 13/88/65 64/89/58 71/90/66
f 14/91/67 71/90/66 72/92/68
f 8/93/69 72/92/68 36/94/22
f 64/89/58 67/95/61 73/96/70
f 71/90/66 73/96/70 74/97/71
f 72/92/68 74/97/71 39/98/27
f 67/95/61 70/99/64 75/100/72
f 74/97/71 73/96/70 75/100/72
f 39/98/27 74/97/71 76/101/73
f 44/102/32 43/103/31 19/19/3
f 45/104/33 44/105/32 23/23/7
f 45/106/33 22/107/6 24/108/8
f 56/109/47 24/108/8 77/110/74
f 58/69/49 26/111/10 29/112/13
f 61/84/52 60/113/51 31/114/15
f 68/115/62 61/116/52 35/37/19
f 69/117/63 68/115/62 34/36/18
f 69/117/63 33/35/17 32/34/16
f 75/118/72 70/119/64 32/34/16
f 76/101/73 75/100/72 27/120/11
f 76/121/73 20/20/4 19/19/3
f 7/122/35 51/123/42 47/55/37
f 51/123/42 78/124/75 52/61/43
f 52/61/43 78/124/75 57/67/48
f 57/125/48 77/110/74 26/126/10
f 11/127/76 48/56/38 49/58/40
f 49/58/40 48/56/38 53/62/44
f 54/63/45 53/62/44 59/128/50
f 59/129/50 29/130/13 31/131/15
f 19/19/3 21/21/5 23/132/7
f 22/22/6 21/24/5 25/133/9
f 25/26/9 24/25/8 22/134/6
f 24/25/8 26/27/10 77/135/74
f 21/21/5 27/28/11 28/30/12
f 25/29/9 28/30/12 30/32/14
f 30/32/14 29/31/13 25/29/9
f 25/29/9 29/31/13 26/126/10
f 28/30/12 32/34/16 33/35/17
f 30/32/14 33/35/17 34/36/18
f 30/32/14 35/37/19 31/33/15
f 2/38/20 36/40/22 37/42/24
f 4/41/23 37/42/24 38/44/26
f 6/43/25 38/44/26 41/47/29
f 36/40/22 40/46/28 37/42/24
f 38/44/26 40/46/28 42/48/30
f 41/47/29 42/48/30 46/52/34
f 39/45/27 44/50/32 40/46/28
f 40/46/28 45/51/33 42/48/30
f 46/52/34 45/51/33 56/136/47
f 7/53/35 41/47/29 51/60/42
f 17/54/36 48/56/38 11/127/76
f 12/57/39 50/59/41 16/137/53
f 51/60/42 46/52/34 78/138/75
f 47/55/37 53/62/44 48/56/38
f 49/58/40 55/64/46 50/59/41
f 46/65/34 57/67/48 78/124/75
f 52/68/43 59/70/50 53/139/44
f 54/63/45 61/72/52 55/64/46
f 16/73/53 62/75/54 18/76/55
f 18/76/55 63/77/56 15/78/57
f 15/78/57 64/79/58 13/140/65
f 50/74/41 65/81/59 62/75/54
f 62/75/54 66/82/60 63/77/56
f 63/77/56 67/83/61 64/79/58
f 65/81/59 61/84/52 68/85/62
f 66/82/60 68/85/62 69/86/63
f 66/82/60 70/87/64 67/83/61
f 13/88/65 71/90/66 14/91/67
f 14/91/67 72/92/68 8/93/69
f 8/93/69 36/94/22 1/141/21
f 64/89/58 73/96/70 71/90/66
f 71/90/66 74/97/71 72/92/68
f 72/92/68 39/98/27 36/94/22
f 67/95/61 75/100/72 73/96/70
f 74/97/71 75/100/72 76/101/73
f 39/98/27 76/101/73 43/142/31
f 44/102/32 19/19/3 23/132/7
f 45/104/33 23/23/7 22/22/6
f 45/106/33 24/108/8 56/109/47
f 56/109/47 77/110/74 57/125/48
f 58/69/49 29/112/13 59/70/50
f 61/84/52 31/114/15 35/143/19
f 68/115/62 35/37/19 34/36/18
f 69/117/63 34/36/18 33/35/17
f 69/117/63 32/34/16 70/119/64
f 75/118/72 32/34/16 27/28/11
f 76/101/73 27/120/11 20/144/4
f 76/121/73 19/19/3 43/103/31
f 7/122/35 47/55/37 17/54/36
f 51/123/42 52/61/43 47/55/37
f 52/61/43 57/67/48 58/145/49
f 57/125/48 26/126/10 58/146/49
f 11/127/76 49/58/40 12/57/39
f 49/58/40 53/62/44 54/63/45
f 54/63/45 59/128/50 60/71/51
f 59/129/50 31/131/15 60/147/51
