# Blender v2.79 (sub 0) OBJ File: ''
# www.blender.org
mtllib teeth17.mtl
o Box17
v -0.757332 0.482656 -0.612030
v -0.878760 0.497596 -0.560963
v -0.823133 0.505980 -0.529434
v -0.795751 0.449172 -0.733694
v -0.891464 0.447690 -0.741270
v -0.899217 0.462160 -0.689252
v -0.865099 0.434905 -0.786769
v -0.739365 0.512929 -0.502424
v -0.904583 0.477007 -0.635826
v -0.748201 0.421191 -0.833512
v -0.810730 0.420516 -0.837396
v -0.674121 0.494543 -0.587214
v -0.710817 0.478964 -0.624267
v -0.694576 0.506912 -0.523085
v -0.692417 0.474546 -0.659768
v -0.731955 0.449141 -0.732331
v -0.694466 0.427367 -0.809988
v -0.653374 0.445420 -0.743919
v -0.676033 0.102148 -0.475326
v -0.742632 0.083195 -0.548980
v -0.703148 0.102607 -0.536541
v -0.760080 0.109949 -0.470574
v -0.733768 0.096714 -0.440320
v -0.798598 0.101069 -0.435359
v -0.822736 0.104182 -0.422248
v -0.843262 0.066137 -0.498144
v -0.689733 0.067500 -0.632331
v -0.775700 0.103114 -0.542940
v -0.763000 0.068659 -0.661531
v -0.859232 0.120693 -0.589167
v -0.872568 0.033848 -0.624517
v -0.814614 0.054570 -0.664091
v -0.714909 0.058186 -0.674348
v -0.778512 0.053213 -0.692567
v -0.839711 0.052162 -0.674222
v -0.818381 0.047218 -0.683721
v -0.621267 0.354189 -0.515123
v -0.711705 0.372700 -0.470460
v -0.754886 0.378983 -0.428812
v -0.673248 0.255638 -0.409617
v -0.616355 0.230603 -0.469864
v -0.853696 0.370784 -0.460671
v -0.768830 0.265266 -0.377702
v -0.670217 0.126522 -0.374439
v -0.622688 0.114814 -0.436863
v -0.742120 0.168348 -0.355219
v -0.849302 0.125226 -0.379960
v -0.939606 0.320378 -0.644477
v -0.926789 0.336087 -0.587517
v -0.898651 0.286726 -0.764894
v -0.932648 0.303025 -0.706900
v -0.914585 0.359401 -0.503144
v -0.875292 0.256437 -0.412028
v -0.925222 0.201054 -0.612939
v -0.969761 0.220042 -0.545493
v -0.928626 0.166106 -0.739077
v -0.959638 0.183864 -0.675742
v -0.895801 0.104999 -0.421523
v -0.895246 0.131510 -0.587153
v -0.897300 0.067325 -0.514942
v -0.902561 0.046797 -0.710308
v -0.934580 0.044094 -0.642675
v -0.834515 0.269758 -0.824614
v -0.742229 0.269675 -0.822764
v -0.683883 0.277201 -0.794272
v -0.875031 0.148556 -0.801130
v -0.757064 0.122991 -0.795077
v -0.678698 0.130362 -0.766664
v -0.829179 0.020197 -0.741843
v -0.690116 0.040539 -0.735619
v -0.767393 0.042054 -0.717665
v -0.635409 0.298495 -0.716339
v -0.644421 0.318799 -0.643316
v -0.629934 0.147351 -0.704259
v -0.685423 0.189276 -0.620523
v -0.641066 0.068253 -0.679306
v -0.674654 0.111665 -0.570411
v -0.937485 0.244309 -0.457217
vt 0.571690 0.363990
vt 0.180080 0.284530
vt 0.332840 0.189320
vt 0.514640 0.669130
vt 0.229160 0.721110
vt 0.180500 0.599190
vt 0.330870 0.820830
vt 0.572810 0.094980
vt 0.138370 0.473060
vt 0.706700 0.891530
vt 0.519680 0.922940
vt 0.903210 0.230300
vt 0.718150 0.376880
vt 0.718150 0.128660
vt 0.883120 0.410630
vt 0.706700 0.643310
vt 0.857630 0.816160
vt 0.949730 0.643310
vt 0.189270 0.264600
vt 0.354900 0.464000
vt 0.243960 0.410270
vt 0.279260 0.938640
vt 0.464000 0.949800
vt 0.210650 0.987490
vt 0.779900 0.981660
vt 0.802370 0.983210
vt 0.602710 1.022230
vt 0.155760 0.640290
vt 0.460300 0.450130
vt 0.364200 0.730750
vt 0.694500 0.572070
vt 0.706620 0.708920
vt 0.516930 0.763560
vt 0.211760 0.748540
vt 0.395020 0.814880
vt 0.483070 0.943370
vt 0.412130 0.942820
vt 0.481490 0.947770
vt 0.281850 0.000500
vt 0.042180 0.352250
vt 0.096790 0.000500
vt 0.427190 0.000500
vt 0.244890 0.352250
vt 0.667160 0.000500
vt 0.487710 0.352250
vt 0.232070 0.644060
vt 0.029830 0.662210
vt 0.770770 0.352250
vt 0.536330 0.643690
vt 0.220130 0.960270
vt 0.047100 0.946820
vt 0.451820 0.878210
vt 0.758340 0.962360
vt 0.819920 0.000500
vt 0.473060 0.000500
vt 0.601140 0.352250
vt 0.460110 0.352250
vt 0.721110 0.000500
vt 0.875240 0.352250
vt 0.748270 0.352250
vt 0.934120 0.352250
vt 0.841300 0.643690
vt 0.599160 0.643690
vt 0.453270 0.643690
vt 0.902640 0.643690
vt 0.761830 0.643690
vt 0.877380 0.982870
vt -0.061980 0.643690
vt 0.194280 0.817910
vt 0.165090 1.009700
vt 0.902640 0.933170
vt 0.765200 0.982500
vt 0.330870 0.000500
vt 0.463710 0.352250
vt 0.240980 0.352250
vt 0.519680 0.000500
vt 0.741620 0.352250
vt 0.706700 0.000500
vt 0.904060 0.352250
vt 0.348200 0.643690
vt 0.156190 0.643690
vt 0.705440 0.704000
vt 0.928410 0.704000
vt 0.239150 0.933170
vt 0.478620 0.972760
vt 0.892930 0.928330
vt 0.651330 0.937350
vt 0.183840 0.000500
vt 0.334160 0.352250
vt 0.130270 0.352250
vt 0.356690 0.000500
vt 0.505970 0.352250
vt 0.769700 0.000500
vt 0.589370 0.000500
vt 0.270080 0.704000
vt 0.103290 0.704000
vt 0.462420 0.662210
vt 0.847870 0.662210
vt 0.273010 0.900050
vt 0.113090 0.928330
vt 0.530090 0.870440
vt 0.220130 0.022970
vt 0.047100 0.152130
vt -0.019840 0.878210
vt 0.022970 0.960270
vt 0.451820 -0.019840
vt 0.577080 0.220100
vt 0.446330 0.279260
vt 0.758340 0.100050
vt 0.656260 0.197630
vt 0.305500 0.840740
vt 0.320980 1.022230
vt 0.293380 1.016390
vt 0.112720 0.982500
vt 0.521380 0.962970
vt 0.587870 0.796560
vt 0.760850 0.902640
vt 0.348670 0.873630
vt 0.518510 0.813120
vt -0.012030 0.726990
vt 0.107070 0.886910
vt 0.359710 0.932150
vt 0.144120 0.469910
vt 0.284530 0.000500
vt 0.253600 0.352250
vt 0.230320 0.643690
vt 0.221620 0.982870
vt 0.877380 0.221620
vt 0.679020 0.397290
vt 0.599190 0.000500
vt 0.573810 0.817910
vt 0.805720 0.817910
vt 0.706620 1.016390
vt 0.694500 0.840740
vt 0.378450 0.210650
vt 0.450130 0.908740
vt 0.549870 0.908740
vt 0.720740 0.938640
vt 0.820830 0.000500
vt 1.007280 0.643690
vt 0.105290 0.643690
vt 0.857630 0.000500
vt 0.821350 0.352250
vt 0.847870 0.946820
vt 0.589730 0.912870
vt 0.453270 1.009700
vt 0.834910 0.453270
vt 0.887280 0.982500
vn 0.0062 0.9636 -0.2672
vn 0.0062 0.9636 -0.2671
vn 0.5675 0.8017 -0.1878
vn -0.0918 0.9650 -0.2456
vn 0.4816 0.8086 0.3380
vn 0.1000 0.8575 0.5047
vn 0.4148 0.8854 -0.2100
vn -0.0056 0.9606 -0.2777
vn 0.4788 0.5414 -0.6911
vn 0.7321 0.6317 -0.2550
vn 0.1712 0.5368 -0.8262
vn 0.2277 -0.9727 0.0441
vn -0.1264 -0.9726 0.1949
vn 0.3951 -0.9186 0.0092
vn -0.1114 -0.9638 0.2421
vn -0.3006 -0.8915 0.3388
vn 0.3067 -0.8706 0.3846
vn 0.0949 -0.8743 0.4760
vn 0.1422 -0.9898 -0.0133
vn 0.2164 -0.9306 0.2952
vn -0.1543 -0.9856 0.0689
vn 0.0309 -0.9448 0.3261
vn -0.0935 -0.9614 0.2588
vn 0.1375 -0.8427 0.5205
vn 0.1794 -0.9205 0.3470
vn 0.0160 -0.9544 0.2982
vn 0.1272 -0.8993 0.4184
vn 0.0646 -0.9948 0.0794
vn 0.0814 -0.9200 0.3833
vn 0.9152 0.2813 0.2886
vn 0.5685 0.3971 0.7205
vn -0.2533 0.9016 0.3506
vn 0.1616 0.4773 0.8638
vn 0.5589 0.3194 0.7652
vn 0.9824 0.0303 0.1843
vn -0.4379 0.4455 0.7809
vn -0.0254 0.3198 0.9471
vn 0.3817 -0.4745 0.7932
vn 0.7872 -0.5750 0.2227
vn 0.0417 -0.1964 0.9796
vn -0.2689 -0.4491 0.8521
vn -0.5472 0.8114 0.2054
vn -0.6679 0.7372 -0.1024
vn -0.9979 0.0605 0.0228
vn -0.9759 0.2082 0.0657
vn -0.6098 0.6792 -0.4084
vn -0.7711 0.0817 -0.6315
vn -0.9507 0.1129 -0.2888
vn -0.8161 0.3893 0.4271
vn -0.4803 0.2587 0.8381
vn -0.9907 -0.1347 0.0200
vn -0.9908 -0.0759 -0.1119
vn -0.8446 -0.1156 -0.5227
vn -0.9994 0.0068 0.0350
vn -0.5853 -0.5688 0.5778
vn -0.8121 -0.5699 0.1251
vn -0.4721 -0.8687 -0.1500
vn -0.5540 -0.7426 -0.3763
vn -0.7286 -0.6402 0.2436
vn -0.5084 0.6302 -0.5868
vn -0.3333 -0.0521 -0.9414
vn -0.2298 0.5107 -0.8285
vn 0.2402 -0.1248 -0.9627
vn 0.6649 -0.0606 -0.7445
vn -0.4471 -0.2368 -0.8626
vn 0.1524 -0.3726 -0.9154
vn 0.6057 -0.2365 -0.7597
vn -0.0407 -0.9363 -0.3490
vn 0.3484 -0.8449 -0.4059
vn 0.1514 -0.9843 -0.0908
vn 0.9884 -0.0087 -0.1514
vn 0.9992 -0.0100 -0.0396
vn 0.9959 -0.0715 -0.0562
vn 0.9955 -0.0694 0.0641
vn 0.8178 -0.5704 0.0765
vn 0.8762 -0.4795 0.0485
vn -0.8151 0.1396 0.5622
vn -0.6062 0.7443 -0.2801
usemtl teeths
s off
f 1/1/1 2/2/1 3/3/1
f 4/4/2 5/5/2 6/6/2
f 4/4/1 7/7/1 5/5/1
f 3/3/1 8/8/1 1/1/1
f 1/1/1 9/9/1 2/2/1
f 9/9/1 1/1/1 6/6/1
f 1/1/1 4/4/1 6/6/1
f 10/10/1 11/11/1 4/4/1
f 4/4/1 11/11/1 7/7/1
s 1
f 12/12/3 13/13/4 14/14/5
f 14/14/5 1/1/1 8/8/6
f 15/15/7 16/16/8 13/13/4
f 16/16/8 1/1/1 13/13/4
f 17/17/9 16/16/8 18/18/10
f 10/10/11 4/4/1 16/16/8
f 19/19/12 20/20/13 21/21/14
f 22/22/15 20/23/13 23/24/16
f 24/25/17 25/26/18 26/27/19
f 20/20/13 27/28/20 21/21/14
f 28/29/21 29/30/22 20/20/13
f 30/31/23 31/32/24 32/33/25
f 29/30/22 33/34/26 27/28/20
f 32/33/25 34/35/27 29/30/22
f 32/36/25 35/37/28 36/38/29
f 14/39/5 37/40/30 12/41/3
f 8/42/6 38/43/31 14/39/5
f 3/44/32 39/45/33 8/42/6
f 37/40/30 40/46/34 41/47/35
f 39/45/33 40/46/34 38/43/31
f 42/48/36 43/49/37 39/45/33
f 41/47/35 44/50/38 45/51/39
f 40/46/34 46/52/40 44/50/38
f 43/49/37 47/53/41 46/52/40
f 2/54/42 42/48/36 3/44/32
f 9/55/43 48/56/44 49/57/45
f 5/58/46 50/59/47 51/60/48
f 52/61/49 53/62/50 42/48/36
f 49/57/45 54/63/51 55/64/52
f 51/60/48 56/65/53 57/66/54
f 53/62/50 58/67/55 47/53/41
f 55/68/52 59/69/56 60/70/57
f 57/66/54 61/71/58 62/72/59
f 7/73/60 63/74/61 50/75/47
f 11/76/62 64/77/63 63/74/61
f 10/78/11 65/79/64 64/77/63
f 50/75/47 66/80/65 56/81/53
f 63/74/61 67/82/66 66/80/65
f 64/77/63 68/83/67 67/82/66
f 66/80/65 61/84/58 56/81/53
f 67/82/66 69/85/68 66/80/65
f 67/82/66 70/86/69 71/87/70
f 17/88/9 72/89/71 65/90/64
f 18/91/10 73/92/72 72/89/71
f 12/93/3 73/92/72 15/94/7
f 65/90/64 74/95/73 68/96/67
f 72/89/71 75/97/74 74/95/73
f 73/92/72 41/98/35 75/97/74
f 68/96/67 76/99/75 70/100/69
f 75/97/74 76/99/75 74/95/73
f 41/98/35 77/101/76 75/97/74
f 44/102/38 19/19/12 45/103/39
f 46/104/40 23/24/16 44/105/38
f 46/106/40 24/107/17 22/108/15
f 47/109/41 25/110/18 24/107/17
f 60/70/57 30/111/23 26/112/19
f 61/84/58 31/113/24 62/114/59
f 69/115/68 35/116/28 61/117/58
f 71/118/70 36/119/29 69/115/68
f 71/118/70 33/34/26 34/35/27
f 76/120/75 33/34/26 70/121/69
f 77/101/76 27/122/20 76/99/75
f 77/123/76 19/19/12 21/21/14
f 2/124/42 49/57/45 52/125/49
f 52/125/49 55/64/52 78/126/77
f 55/64/52 58/127/55 78/126/77
f 58/128/55 26/129/19 25/110/18
f 6/130/78 51/60/48 48/56/44
f 51/60/48 54/63/51 48/56/44
f 57/66/54 59/131/56 54/63/51
f 59/132/56 31/133/24 30/134/23
f 12/12/3 15/15/7 13/13/4
f 14/14/5 13/13/4 1/1/1
f 15/15/7 18/18/10 16/16/8
f 16/16/8 4/4/1 1/1/1
f 17/17/9 10/10/11 16/16/8
f 19/19/12 23/135/16 20/20/13
f 22/22/15 28/136/21 20/23/13
f 28/137/21 22/138/15 26/27/19
f 22/138/15 24/25/17 26/27/19
f 20/20/13 29/30/22 27/28/20
f 28/29/21 32/33/25 29/30/22
f 32/33/25 28/29/21 30/31/23
f 28/29/21 26/129/19 30/31/23
f 29/30/22 34/35/27 33/34/26
f 32/33/25 36/119/29 34/35/27
f 32/36/25 31/113/24 35/37/28
f 14/39/5 38/43/31 37/40/30
f 8/42/6 39/45/33 38/43/31
f 3/44/32 42/48/36 39/45/33
f 37/40/30 38/43/31 40/46/34
f 39/45/33 43/49/37 40/46/34
f 42/48/36 53/62/50 43/49/37
f 41/47/35 40/46/34 44/50/38
f 40/46/34 43/49/37 46/52/40
f 43/49/37 53/62/50 47/53/41
f 2/54/42 52/61/49 42/48/36
f 9/55/43 6/130/78 48/56/44
f 5/58/46 7/139/60 50/59/47
f 52/61/49 78/140/77 53/62/50
f 49/57/45 48/56/44 54/63/51
f 51/60/48 50/59/47 56/65/53
f 53/62/50 78/140/77 58/67/55
f 55/68/52 54/141/51 59/69/56
f 57/66/54 56/65/53 61/71/58
f 7/73/60 11/76/62 63/74/61
f 11/76/62 10/78/11 64/77/63
f 10/78/11 17/142/9 65/79/64
f 50/75/47 63/74/61 66/80/65
f 63/74/61 64/77/63 67/82/66
f 64/77/63 65/79/64 68/83/67
f 66/80/65 69/85/68 61/84/58
f 67/82/66 71/87/70 69/85/68
f 67/82/66 68/83/67 70/86/69
f 17/88/9 18/91/10 72/89/71
f 18/91/10 15/94/7 73/92/72
f 12/93/3 37/143/30 73/92/72
f 65/90/64 72/89/71 74/95/73
f 72/89/71 73/92/72 75/97/74
f 73/92/72 37/143/30 41/98/35
f 68/96/67 74/95/73 76/99/75
f 75/97/74 77/101/76 76/99/75
f 41/98/35 45/144/39 77/101/76
f 44/102/38 23/135/16 19/19/12
f 46/104/40 22/22/15 23/24/16
f 46/106/40 47/109/41 24/107/17
f 47/109/41 58/128/55 25/110/18
f 60/70/57 59/69/56 30/111/23
f 61/84/58 35/37/28 31/113/24
f 69/115/68 36/119/29 35/116/28
f 71/118/70 34/35/27 36/119/29
f 71/118/70 70/121/69 33/34/26
f 76/120/75 27/28/20 33/34/26
f 77/101/76 21/145/14 27/122/20
f 77/123/76 45/103/39 19/19/12
f 2/124/42 9/55/43 49/57/45
f 52/125/49 49/57/45 55/64/52
f 55/64/52 60/146/57 58/127/55
f 58/128/55 60/147/57 26/129/19
f 6/130/78 5/58/46 51/60/48
f 51/60/48 57/66/54 54/63/51
f 57/66/54 62/72/59 59/131/56
f 59/132/56 62/148/59 31/133/24
