# Blender v2.79 (sub 0) OBJ File: ''
# www.blender.org
mtllib teeth36.mtl
o Box36
v 0.540704 -0.660475 -0.147728
v 0.605237 -0.648675 -0.187053
v 0.585266 -0.673737 -0.101171
v 0.645938 -0.652349 -0.173581
v 0.623975 -0.679494 -0.080573
v 0.741208 -0.666157 -0.124135
v 0.699954 -0.673858 -0.098444
v 0.558220 -0.644573 -0.202698
v 0.629937 -0.621956 -0.278535
v 0.686752 -0.622463 -0.275647
v 0.772293 -0.621842 -0.276063
v 0.757943 -0.633896 -0.234859
v 0.600836 -0.602057 -0.347630
v 0.560679 -0.618018 -0.293492
v 0.649910 -0.596894 -0.364419
v 0.751329 -0.610123 -0.316827
v 0.757211 -0.647168 -0.189185
v 0.705735 -0.596753 -0.363775
v 0.567465 -0.255997 -0.036985
v 0.614934 -0.259477 -0.102842
v 0.594916 -0.257559 -0.091609
v 0.612507 -0.304119 -0.040185
v 0.616596 -0.290938 -0.008343
v 0.686175 -0.299483 0.013264
v 0.717775 -0.260824 -0.055744
v 0.659539 -0.271538 -0.090292
v 0.588166 -0.227558 -0.171273
v 0.654896 -0.230262 -0.192205
v 0.736314 -0.254232 -0.118401
v 0.750498 -0.192356 -0.150990
v 0.700986 -0.216218 -0.190320
v 0.612845 -0.219628 -0.205891
v 0.670408 -0.215582 -0.217474
v 0.723887 -0.212699 -0.197660
v 0.705601 -0.198964 -0.208296
v 0.520113 -0.516031 -0.090000
v 0.568236 -0.531421 -0.036045
v 0.634241 -0.539368 -0.007355
v 0.560980 -0.411404 0.011402
v 0.513692 -0.387409 -0.043508
v 0.740810 -0.413655 0.022179
v 0.644203 -0.392749 0.046260
v 0.556794 -0.277470 0.049516
v 0.517910 -0.267309 -0.007478
v 0.619613 -0.304849 0.066193
v 0.716515 -0.300846 0.049450
v 0.723865 -0.532723 -0.028434
v 0.791899 -0.486897 -0.184831
v 0.789646 -0.501652 -0.134072
v 0.780453 -0.457314 -0.286904
v 0.807527 -0.472255 -0.234921
v 0.770393 -0.522356 -0.063189
v 0.789909 -0.378464 -0.097796
v 0.806102 -0.332656 -0.255363
v 0.830227 -0.348890 -0.198983
v 0.788650 -0.402626 -0.014826
v 0.786054 -0.266277 -0.111984
v 0.766735 -0.262996 -0.067056
v 0.781745 -0.208873 -0.224906
v 0.806596 -0.203936 -0.163506
v 0.726671 -0.441542 -0.342284
v 0.644490 -0.440778 -0.346572
v 0.591041 -0.447120 -0.325807
v 0.761822 -0.316440 -0.312080
v 0.656650 -0.289169 -0.312845
v 0.585402 -0.295228 -0.293425
v 0.718414 -0.173309 -0.256895
v 0.594328 -0.193066 -0.261536
v 0.667841 -0.187295 -0.265685
v 0.543672 -0.465947 -0.261947
v 0.537628 -0.497004 -0.155728
v 0.534366 -0.315511 -0.224624
v 0.531209 -0.366796 -0.114701
v 0.543261 -0.207761 -0.191109
v 0.571287 -0.263748 -0.119289
v 0.706694 -0.262628 0.037653
v 0.760035 -0.258504 0.024006
v 0.814040 -0.364884 -0.144246
vt 0.885650 0.229740
vt 0.691820 0.375950
vt 0.691820 0.128350
vt 0.538430 0.363100
vt 0.539600 0.094750
vt 0.164820 0.283840
vt 0.288270 0.188850
vt 0.869050 0.390900
vt 0.679840 0.641740
vt 0.478680 0.667490
vt 0.179670 0.719340
vt 0.196360 0.597720
vt 0.837910 0.814160
vt 0.934370 0.641740
vt 0.679840 0.889340
vt 0.286210 0.818820
vt 0.161750 0.471900
vt 0.483960 0.920670
vt 0.211210 0.263950
vt 0.328290 0.455980
vt 0.266320 0.417190
vt 0.263020 0.859940
vt 0.455980 0.918600
vt 0.194580 0.909680
vt 0.825470 0.903740
vt 0.603680 0.944640
vt 0.558440 0.899340
vt 0.176500 0.636980
vt 0.496310 0.441560
vt 0.394800 0.727230
vt 0.740370 0.570670
vt 0.753060 0.707180
vt 0.554770 0.759960
vt 0.235140 0.744970
vt 0.427080 0.811150
vt 0.628690 0.794600
vt 0.553910 0.820900
vt 0.308180 0.000640
vt 0.057150 0.358710
vt 0.114350 0.000640
vt 0.460400 0.000640
vt 0.269460 0.358710
vt 0.711730 0.000640
vt 0.523780 0.358710
vt 0.256030 0.655760
vt 0.044220 0.674230
vt 0.894120 0.655380
vt 0.569990 0.718560
vt 0.243530 0.977650
vt 0.062300 0.963950
vt 0.481480 0.926810
vt 0.807230 0.923650
vt 0.283840 0.000640
vt 0.129990 0.358710
vt 0.188850 0.000640
vt 0.471900 0.000640
vt 0.599670 0.358710
vt 0.458980 0.358710
vt 0.719340 0.000640
vt 0.873090 0.358710
vt 0.746440 0.358710
vt 0.252980 0.358710
vt 0.099810 0.655380
vt 0.458310 0.655500
vt 0.900430 0.655380
vt 0.759960 0.655380
vt 0.229750 0.655380
vt 0.099810 0.923650
vt 0.574810 0.895390
vt 0.452160 0.931890
vt 0.900430 0.950060
vt 0.763320 1.000270
vt 0.286210 0.000640
vt 0.425330 0.358710
vt 0.192060 0.358710
vt 0.483960 0.000640
vt 0.716400 0.358710
vt 0.679840 0.000640
vt 0.886540 0.358710
vt 0.304360 0.655380
vt 0.103250 0.655380
vt 0.678520 0.716770
vt 0.912040 0.716770
vt 0.190140 0.950060
vt 0.443090 1.009190
vt 0.877030 0.963950
vt 0.623980 0.973130
vt 0.185840 0.000640
vt 0.335800 0.358710
vt 0.132400 0.358710
vt 0.358260 0.000640
vt 0.631100 0.358330
vt 0.770260 0.000640
vt 0.609100 0.000270
vt 0.324630 0.716770
vt 0.105490 0.716770
vt 0.642540 0.673850
vt 0.821790 0.358710
vt 0.324630 0.977410
vt 0.105490 0.963950
vt 0.531240 0.899090
vt 0.848240 0.963950
vt 0.243530 0.022910
vt 0.062300 0.151760
vt -0.002540 0.926810
vt 0.022910 0.977650
vt 0.481480 -0.002540
vt 0.673400 0.174530
vt 0.376040 0.263020
vt 0.756330 1.000990
vt 0.673400 0.903740
vt 0.887420 0.452160
vt 0.724150 0.396320
vt 0.246940 1.034770
vt 0.057720 1.000270
vt 0.556910 0.970380
vt 0.809860 0.900430
vt 0.376020 0.952530
vt 0.000370 0.675370
vt 0.122970 0.894510
vt 0.163920 0.468760
vt 0.221080 1.000650
vt 0.931910 0.221080
vt 0.756330 0.152110
vt 0.597720 0.000640
vt 0.600090 0.655380
vt 0.921740 0.895390
vt 0.753060 1.034770
vt 0.740370 0.918640
vt 0.411810 0.194580
vt 0.441560 0.899340
vt 0.736980 0.859940
vt 0.847890 1.000990
vt 0.820250 0.358710
vt 0.818820 0.000640
vt 0.837910 0.000640
vt 0.848240 0.674230
vt 0.807230 0.099810
vt 0.931910 1.000650
vt 0.921740 0.574810
vt 0.371310 0.959880
vt 0.942280 1.000270
vn 0.0056 -0.9603 -0.2789
vn 0.0088 -0.9605 -0.2782
vn 0.0056 -0.9603 -0.2790
vn 0.0078 -0.9612 -0.2756
vn 0.0772 0.9905 0.1136
vn 0.2436 0.8989 0.3643
vn -0.0235 0.9961 0.0849
vn 0.6471 0.7326 0.2111
vn 0.8930 0.4383 0.1019
vn -0.4476 0.8760 0.1795
vn -0.1998 0.9748 0.0995
vn -0.1063 0.9195 0.3785
vn 0.1146 0.8936 0.4341
vn -0.0613 0.9103 0.4094
vn -0.0911 0.8698 0.4849
vn -0.1783 0.8896 0.4204
vn -0.2979 0.8483 0.4378
vn 0.1235 0.9109 0.3938
vn -0.2231 0.8486 0.4797
vn -0.0183 0.9871 0.1588
vn -0.0984 0.8216 0.5616
vn -0.4185 -0.8555 0.3050
vn -0.9674 -0.1725 0.1853
vn -0.7253 -0.6873 -0.0390
vn -0.0967 -0.8750 0.4744
vn -0.5963 -0.3545 0.7202
vn 0.2622 -0.8890 0.3755
vn -0.0869 -0.4165 0.9050
vn -0.5762 -0.2770 0.7689
vn -0.9764 -0.0802 0.2004
vn 0.4362 -0.2619 0.8609
vn -0.0439 -0.2794 0.9592
vn -0.3153 0.5436 0.7779
vn -0.7885 0.5802 0.2040
vn 0.0081 0.4538 0.8911
vn 0.1496 0.1698 0.9741
vn 0.5732 -0.7990 0.1819
vn 0.4255 -0.4265 0.7981
vn 0.6483 -0.7494 -0.1348
vn 0.9687 -0.2078 0.1359
vn 0.9834 -0.1429 0.1118
vn 0.7005 -0.6694 -0.2474
vn 0.8083 -0.0400 -0.5874
vn 0.9754 -0.1740 -0.1351
vn 0.8382 -0.3059 0.4515
vn 0.9730 -0.0177 0.2303
vn 0.8705 0.1233 -0.4764
vn 0.9990 0.0217 -0.0389
vn 0.8994 -0.1123 0.4225
vn 0.7387 0.4168 0.5297
vn 0.6421 0.7541 0.1383
vn 0.6139 0.7064 -0.3524
vn 0.7240 0.6601 0.2003
vn 0.5482 -0.6102 -0.5719
vn 0.3979 0.0925 -0.9128
vn 0.2843 -0.4878 -0.8254
vn -0.1648 0.1606 -0.9732
vn -0.1127 -0.5121 -0.8515
vn -0.6127 0.1054 -0.7833
vn 0.5005 0.2352 -0.8331
vn -0.0808 0.3089 -0.9476
vn -0.5853 0.2261 -0.7787
vn 0.1704 0.9439 -0.2829
vn -0.3778 0.8359 -0.3982
vn -0.1384 0.9104 -0.3900
vn -0.4319 -0.5163 -0.7395
vn -0.9397 -0.0009 -0.3420
vn -0.6793 -0.6068 -0.4127
vn -0.9852 -0.0331 -0.1683
vn -0.6150 -0.7242 -0.3119
vn -0.9621 0.1310 -0.2391
vn -0.9808 0.1278 -0.1474
vn -0.6647 0.7247 0.1817
vn -0.7520 0.6442 0.1398
vn -0.4598 0.6730 0.5793
vn 0.5805 0.6550 0.4838
vn 0.5792 -0.8046 -0.1312
vn 0.9332 -0.0688 0.3527
vn 0.0059 -0.9602 -0.2791
usemtl teeths
s off
f 1/1/1 2/2/1 3/3/1
f 3/3/1 4/4/1 5/5/1
f 4/4/1 6/6/1 7/7/1
f 8/8/2 9/9/2 2/2/2
f 9/9/1 4/4/1 2/2/1
f 10/10/3 11/11/3 12/12/3
f 13/13/1 9/9/1 14/14/1
f 15/15/1 10/10/1 9/9/1
f 10/10/3 16/16/3 11/11/3
f 1/1/4 8/8/4 2/2/4
f 3/3/1 2/2/1 4/4/1
f 7/7/1 5/5/1 4/4/1
f 4/4/1 17/17/1 6/6/1
f 9/9/1 10/10/1 4/4/1
f 17/17/3 4/4/3 12/12/3
f 4/4/1 10/10/1 12/12/1
f 13/13/1 15/15/1 9/9/1
f 15/15/1 18/18/1 10/10/1
f 10/10/1 18/18/1 16/16/1
s 1
f 19/19/5 20/20/6 21/21/7
f 22/22/8 20/23/6 23/24/9
f 24/25/10 25/26/11 26/27/12
f 20/20/6 27/28/13 21/21/7
f 26/29/12 28/30/14 20/20/6
f 29/31/15 30/32/16 31/33/17
f 28/30/14 32/34/18 27/28/13
f 31/33/17 33/35/19 28/30/14
f 31/33/17 34/36/20 35/37/21
f 3/38/22 36/39/23 1/40/24
f 5/41/25 37/42/26 3/38/22
f 7/43/27 38/44/28 5/41/25
f 36/39/23 39/45/29 40/46/30
f 38/44/28 39/45/29 37/42/26
f 38/44/28 41/47/31 42/48/32
f 40/46/30 43/49/33 44/50/34
f 39/45/29 45/51/35 43/49/33
f 42/48/32 46/52/36 45/51/35
f 6/53/37 47/54/38 7/55/27
f 17/56/39 48/57/40 49/58/41
f 11/59/42 50/60/43 51/61/44
f 52/62/45 41/63/31 47/54/38
f 48/57/40 53/64/46 49/58/41
f 51/61/44 54/65/47 55/66/48
f 56/67/49 46/68/36 41/63/31
f 53/64/46 57/69/50 58/70/51
f 55/66/48 59/71/52 60/72/53
f 16/73/54 61/74/55 50/75/43
f 18/76/56 62/77/57 61/74/55
f 15/78/58 63/79/59 62/77/57
f 50/75/43 64/80/60 54/81/47
f 61/74/55 65/82/61 64/80/60
f 62/77/57 66/83/62 65/82/61
f 64/80/60 59/84/52 54/81/47
f 65/82/61 67/85/63 64/80/60
f 65/82/61 68/86/64 69/87/65
f 13/88/66 70/89/67 63/90/59
f 14/91/68 71/92/69 70/89/67
f 1/93/24 71/92/69 8/94/70
f 63/90/59 72/95/71 66/96/62
f 70/89/67 73/97/72 72/95/71
f 36/98/23 73/97/72 71/92/69
f 66/96/62 74/99/73 68/100/64
f 72/95/71 75/101/74 74/99/73
f 73/97/72 44/102/34 75/101/74
f 43/103/33 19/19/5 44/104/34
f 45/105/35 23/24/9 43/106/33
f 45/107/35 24/108/10 22/109/8
f 46/52/36 76/110/75 24/111/10
f 58/112/51 29/31/15 25/113/11
f 59/84/52 30/114/16 60/115/53
f 67/116/63 34/36/20 59/117/52
f 69/118/65 35/37/21 67/116/63
f 69/118/65 32/34/18 33/35/19
f 74/119/73 32/34/18 68/120/64
f 75/121/74 27/28/13 74/119/73
f 75/121/74 19/19/5 21/21/7
f 6/53/37 49/58/41 52/62/45
f 52/62/45 53/64/46 56/67/49
f 56/67/49 58/70/51 77/122/76
f 77/123/76 25/113/11 76/124/75
f 11/59/42 48/57/40 12/125/77
f 51/61/44 78/126/78 48/57/40
f 55/66/48 57/69/50 78/126/78
f 57/127/50 30/128/16 29/129/15
f 8/8/70 14/14/68 9/9/79
f 19/19/5 23/130/9 20/20/6
f 22/22/8 26/131/12 20/23/6
f 26/27/12 22/132/8 24/25/10
f 24/25/10 76/133/75 25/26/11
f 20/20/6 28/30/14 27/28/13
f 26/29/12 31/33/17 28/30/14
f 31/33/17 26/29/12 29/31/15
f 26/29/12 25/113/11 29/31/15
f 28/30/14 33/35/19 32/34/18
f 31/33/17 35/37/21 33/35/19
f 31/33/17 30/32/16 34/36/20
f 3/38/22 37/42/26 36/39/23
f 5/41/25 38/44/28 37/42/26
f 7/43/27 47/134/38 38/44/28
f 36/39/23 37/42/26 39/45/29
f 38/44/28 42/48/32 39/45/29
f 38/44/28 47/134/38 41/47/31
f 40/46/30 39/45/29 43/49/33
f 39/45/29 42/48/32 45/51/35
f 42/48/32 41/47/31 46/52/36
f 6/53/37 52/62/45 47/54/38
f 17/56/39 12/125/77 48/57/40
f 11/59/42 16/135/54 50/60/43
f 52/62/45 56/67/49 41/63/31
f 48/57/40 78/126/78 53/64/46
f 51/61/44 50/60/43 54/65/47
f 56/67/49 77/122/76 46/68/36
f 53/64/46 78/126/78 57/69/50
f 55/66/48 54/65/47 59/71/52
f 16/73/54 18/76/56 61/74/55
f 18/76/56 15/78/58 62/77/57
f 15/78/58 13/136/66 63/79/59
f 50/75/43 61/74/55 64/80/60
f 61/74/55 62/77/57 65/82/61
f 62/77/57 63/79/59 66/83/62
f 64/80/60 67/85/63 59/84/52
f 65/82/61 69/87/65 67/85/63
f 65/82/61 66/83/62 68/86/64
f 13/88/66 14/91/68 70/89/67
f 14/91/68 8/94/70 71/92/69
f 1/93/24 36/98/23 71/92/69
f 63/90/59 70/89/67 72/95/71
f 70/89/67 71/92/69 73/97/72
f 36/98/23 40/137/30 73/97/72
f 66/96/62 72/95/71 74/99/73
f 72/95/71 73/97/72 75/101/74
f 73/97/72 40/137/30 44/102/34
f 43/103/33 23/130/9 19/19/5
f 45/105/35 22/22/8 23/24/9
f 45/107/35 46/138/36 24/108/10
f 46/52/36 77/139/76 76/110/75
f 58/112/51 57/140/50 29/31/15
f 59/84/52 34/141/20 30/114/16
f 67/116/63 35/37/21 34/36/20
f 69/118/65 33/35/19 35/37/21
f 69/118/65 68/120/64 32/34/18
f 74/119/73 27/28/13 32/34/18
f 75/121/74 21/21/7 27/28/13
f 75/121/74 44/104/34 19/19/5
f 6/53/37 17/56/39 49/58/41
f 52/62/45 49/58/41 53/64/46
f 56/67/49 53/64/46 58/70/51
f 77/123/76 58/112/51 25/113/11
f 11/59/42 51/61/44 48/57/40
f 51/61/44 55/66/48 78/126/78
f 55/66/48 60/72/53 57/69/50
f 57/127/50 60/142/53 30/128/16
