# Blender v2.79 (sub 0) OBJ File: ''
# www.blender.org
mtllib teeth22.mtl
o Box22
v 0.532707 0.388853 0.810241
v 0.519685 0.383719 0.850421
v 0.513331 0.371858 0.845464
v 0.480678 0.390085 0.910265
v 0.471343 0.377979 0.905370
v 0.421583 0.400376 0.959987
v 0.378215 0.413764 0.989450
v 0.373282 0.401550 0.983817
v 0.352594 0.439394 0.988780
v 0.518224 0.374423 0.808053
v 0.533225 0.377824 0.805340
v 0.461350 0.368814 0.893713
v 0.415538 0.389727 0.956877
v 0.401203 0.380037 0.943817
v 0.363968 0.391913 0.971968
v 0.332538 0.417482 0.988333
v 0.514926 0.892850 0.646919
v 0.500788 0.879004 0.618700
v 0.466509 0.912738 0.665891
v 0.504938 0.925949 0.686560
v 0.448012 0.939377 0.694202
v 0.470768 0.955990 0.726900
v 0.405351 0.951446 0.728003
v 0.404028 0.967088 0.780746
v 0.432888 0.968036 0.759979
v 0.374334 0.946531 0.793535
v 0.378911 0.950875 0.750234
v 0.452850 0.875650 0.621691
v 0.436453 0.914165 0.620508
v 0.422761 0.924163 0.664882
v 0.380102 0.936233 0.698683
v 0.364021 0.931910 0.711222
v 0.317615 0.923019 0.751297
v 0.548000 0.422400 0.791680
v 0.541225 0.433776 0.828893
v 0.492240 0.450675 0.906277
v 0.433800 0.462451 0.954747
v 0.386687 0.480911 0.979842
v 0.557232 0.466699 0.779328
v 0.550235 0.485761 0.818600
v 0.500385 0.516902 0.893735
v 0.440875 0.531112 0.942481
v 0.392332 0.545189 0.964071
v 0.341600 0.546572 0.973712
v 0.554485 0.542080 0.805901
v 0.564194 0.524396 0.766095
v 0.559129 0.674750 0.720641
v 0.504887 0.574859 0.878947
v 0.547142 0.694010 0.764239
v 0.505734 0.719198 0.829340
v 0.448252 0.728976 0.875705
v 0.445074 0.591977 0.925219
v 0.399555 0.732362 0.901399
v 0.396011 0.606580 0.946857
v 0.352840 0.732255 0.911451
v 0.548166 0.784227 0.683129
v 0.538020 0.804262 0.728750
v 0.503648 0.828260 0.791705
v 0.450927 0.843235 0.832695
v 0.404817 0.849635 0.853297
v 0.367379 0.845747 0.852669
v 0.345258 0.482056 0.990590
v 0.323237 0.486156 0.993565
v 0.311501 0.476504 0.976559
v 0.320675 0.540258 0.967519
v 0.305882 0.531638 0.952608
v 0.348920 0.607205 0.959192
v 0.320830 0.725478 0.901253
v 0.322888 0.599592 0.945155
v 0.300010 0.710814 0.872511
v 0.321014 0.834842 0.836092
v 0.323341 0.937794 0.782312
v 0.306228 0.820553 0.807459
v 0.319648 0.408462 0.973956
v 0.356769 0.451448 0.945740
v 0.392745 0.442417 0.915384
v 0.449065 0.420061 0.868445
v 0.503342 0.362629 0.833841
v 0.495761 0.421947 0.812486
v 0.345996 0.532800 0.916124
v 0.389911 0.514148 0.886077
v 0.441727 0.497958 0.837374
v 0.526329 0.405459 0.781090
v 0.492988 0.467464 0.793090
v 0.347350 0.612216 0.877462
v 0.301582 0.589890 0.927292
v 0.386280 0.593475 0.845694
v 0.338852 0.698035 0.834027
v 0.432494 0.576167 0.798029
v 0.376145 0.693192 0.788876
v 0.422120 0.678905 0.749189
v 0.460934 0.664960 0.713482
v 0.476872 0.559401 0.756406
v 0.491764 0.657403 0.696324
v 0.336342 0.810373 0.775830
v 0.372564 0.799618 0.743812
v 0.413124 0.785956 0.705646
v 0.448867 0.777029 0.671125
v 0.482974 0.765151 0.654284
v 0.546113 0.407926 0.783862
v 0.532361 0.451145 0.756727
v 0.552590 0.456538 0.762983
v 0.513075 0.549272 0.743028
v 0.539374 0.660562 0.692954
v 0.552582 0.512072 0.740809
v 0.530478 0.768246 0.650789
vt 0.079080 0.085370
vt 0.180380 0.051910
vt 0.179390 0.038220
vt 0.389430 0.025360
vt 0.395810 0.011610
vt 0.632900 0.013890
vt 0.802810 0.018990
vt 0.796830 0.005070
vt 0.882470 0.060830
vt 0.898390 0.977990
vt 0.938360 0.903150
vt 0.820610 0.818100
vt 0.393620 0.006930
vt 0.635260 0.000730
vt 0.641020 -0.003290
vt 0.207710 0.910050
vt 0.203170 0.774200
vt 0.088170 0.854710
vt 0.165030 0.470180
vt 0.140260 0.727030
vt 0.332970 0.578460
vt 0.283260 0.232710
vt 0.447710 0.461580
vt 0.460920 0.128500
vt 0.622790 0.483270
vt 0.731390 0.177800
vt 0.622790 0.128500
vt 0.814650 0.951270
vt 0.731390 0.987340
vt 0.728240 0.986640
vt 0.262780 0.975850
vt 0.332970 0.976550
vt 0.327120 1.012960
vt 0.447710 0.999430
vt 0.447710 0.786900
vt 0.622790 0.808600
vt 0.682510 0.841010
vt 0.271760 0.986640
vt 0.317490 0.986390
vt 0.135740 0.951230
vt 0.029940 0.146500
vt 0.121340 0.139090
vt 0.393790 0.117590
vt 0.634370 0.109110
vt 0.809120 0.125220
vt 0.014220 0.220240
vt 0.114980 0.222990
vt 0.395030 0.224470
vt 0.640380 0.219580
vt 0.809490 0.231650
vt 0.949940 0.232830
vt 0.119050 0.315570
vt 0.011480 0.314930
vt 0.042400 0.571820
vt 0.395790 0.320890
vt 0.163520 0.572510
vt 0.400520 0.570890
vt 0.633590 0.560750
vt 0.639390 0.322080
vt 0.803340 0.554010
vt 0.810220 0.334960
vt 0.937680 0.552430
vt 0.075090 0.762710
vt 0.195770 0.762970
vt 0.410610 0.760220
vt 0.625610 0.760950
vt 0.781770 0.761900
vt 0.871270 0.760830
vt 0.165030 0.954000
vt 0.283260 0.977900
vt 0.460920 0.999520
vt 0.622790 0.999520
vt 0.928260 0.124210
vt 0.962490 0.103730
vt 0.854710 0.044780
vt 0.802180 0.103730
vt 0.977530 0.102150
vt 0.766530 0.229990
vt 0.944700 0.228880
vt 0.956130 0.333290
vt 0.994540 0.552890
vt 0.737720 0.334410
vt 0.632110 0.552890
vt 0.929420 0.552810
vt 0.949650 0.761080
vt 0.680820 0.761080
vt 0.915630 0.951680
vt 0.074560 0.760790
vt 0.050350 0.761080
vt 0.084370 0.951680
vt 0.087940 0.042500
vt 0.045300 0.102150
vt 0.197340 0.107630
vt 0.207710 -0.000270
vt 0.347550 0.110530
vt 0.358980 -0.003290
vt 0.587130 0.102340
vt 0.822780 0.033430
vt 0.606380 0.006930
vt 0.898390 0.066890
vt 0.802830 0.137740
vt 0.009010 0.228880
vt 0.173780 0.250740
vt 0.345470 0.238300
vt 0.572910 0.241080
vt 0.946420 0.130780
vt 0.800530 0.219480
vt 0.183670 0.396450
vt -0.005090 0.334440
vt 0.015090 0.552810
vt 0.350240 0.385390
vt 0.189550 0.555270
vt 0.568640 0.386120
vt 0.366880 0.574330
vt 0.562280 0.574520
vt 0.732470 0.573350
vt 0.765190 0.384090
vt 0.845130 0.570100
vt 0.213230 0.763500
vt 0.368190 0.764920
vt 0.546960 0.765630
vt 0.704010 0.771540
vt 0.827160 0.761210
vt 0.377210 0.999520
vt 0.552290 0.999430
vt 0.672880 1.012960
vt 0.737220 0.952510
vt 0.938360 0.072090
vt 0.061640 0.072090
vt 0.010940 0.130320
vt 0.989060 0.130320
vt 0.974860 0.215130
vt -0.010400 0.216630
vt 0.886160 0.373800
vt 0.967660 0.571620
vt -0.013300 0.314950
vt 0.032340 0.571620
vt 0.574900 0.571820
vt 0.289960 0.571620
vt 0.306890 0.762730
vt 0.859740 0.954020
vt 0.050320 0.762730
vt 0.140260 0.954020
vt 0.990630 0.334410
vt 0.986710 0.229990
vt 0.968600 0.334440
vt 1.013300 0.314950
vt 1.010400 0.216630
vt 0.911830 0.044780
vt 0.822780 0.955300
vt 0.177220 0.033430
vt 0.792290 -0.000270
vt 0.087940 1.021020
vt 0.728240 0.511160
vt 0.327120 0.968620
vt 0.447710 0.999430
vt 1.021020 0.042500
vt 0.944430 0.760790
vt 0.949680 0.762730
vt 0.609470 0.762710
vn 0.9173 -0.2187 0.3328
vn 0.8211 -0.3821 0.4241
vn 0.6301 -0.7140 0.3054
vn 0.6644 -0.3757 0.6461
vn 0.4252 -0.7508 0.5054
vn 0.5386 -0.2842 0.7932
vn 0.1636 -0.2155 0.9627
vn 0.0624 -0.5886 0.8060
vn 0.0855 -0.0191 0.9962
vn -0.2738 -0.8084 -0.5211
vn 0.6706 -0.7149 -0.1978
vn -0.2317 -0.9697 -0.0774
vn 0.3216 -0.6969 0.6410
vn -0.3451 -0.9320 -0.1103
vn -0.3457 -0.9381 0.0206
vn -0.3218 -0.3307 0.8872
vn 0.7187 0.5587 -0.4138
vn 0.3426 0.3165 -0.8846
vn 0.2072 0.7999 -0.5632
vn 0.6682 0.7171 -0.1984
vn 0.0439 0.8620 -0.5049
vn 0.4910 0.8702 0.0417
vn -0.1765 0.9204 -0.3488
vn -0.0276 0.9142 0.4044
vn 0.2941 0.9334 0.2058
vn -0.2319 0.7690 0.5958
vn -0.3416 0.9184 -0.1997
vn -0.2480 0.0160 -0.9686
vn -0.2442 0.5031 -0.8290
vn -0.4423 0.5986 -0.6679
vn -0.5283 0.5394 -0.6558
vn -0.6196 0.4109 -0.6687
vn -0.8282 0.3215 -0.4590
vn 0.9697 -0.1961 0.1459
vn 0.9098 -0.1492 0.3874
vn 0.7421 -0.0324 0.6695
vn 0.5773 0.0290 0.8160
vn 0.3505 0.1296 0.9275
vn 0.9906 -0.1368 0.0048
vn 0.9205 -0.0334 0.3893
vn 0.7474 0.0748 0.6602
vn 0.5557 0.1482 0.8181
vn 0.3267 0.2112 0.9212
vn -0.0860 0.2966 0.9511
vn 0.9234 0.0808 0.3752
vn 0.9957 -0.0479 -0.0795
vn 0.9861 0.0044 -0.1660
vn 0.7504 0.1636 0.6404
vn 0.9245 0.1647 0.3438
vn 0.7629 0.2212 0.6075
vn 0.5477 0.2813 0.7879
vn 0.5497 0.2289 0.8034
vn 0.3182 0.3471 0.8822
vn 0.3491 0.2777 0.8950
vn -0.0898 0.4135 0.9061
vn 0.9746 0.1236 -0.1869
vn 0.9354 0.2479 0.2521
vn 0.7728 0.3245 0.5453
vn 0.5375 0.3857 0.7499
vn 0.1914 0.4358 0.8794
vn -0.2035 0.4587 0.8650
vn 0.1992 0.1179 0.9728
vn -0.4022 0.1112 0.9088
vn -0.9867 -0.1619 -0.0132
vn -0.5776 0.3114 0.7546
vn -0.9930 -0.0975 -0.0661
vn -0.1338 0.2986 0.9450
vn -0.6253 0.3345 0.7051
vn -0.6063 0.2775 0.7452
vn -0.9959 -0.0625 -0.0660
vn -0.6943 0.3641 0.6208
vn -0.6503 0.7043 0.2847
vn -0.9843 -0.0426 -0.1713
vn -0.7771 -0.6200 -0.1078
vn -0.5948 -0.3009 -0.7454
vn -0.6673 -0.3433 -0.6609
vn -0.7003 -0.3659 -0.6130
vn -0.1235 -0.9491 -0.2897
vn -0.7400 -0.3059 -0.5990
vn -0.6316 -0.3467 -0.6935
vn -0.6659 -0.3365 -0.6658
vn -0.7104 -0.3398 -0.6163
vn -0.3113 -0.4947 -0.8114
vn -0.7063 -0.3025 -0.6401
vn -0.6615 -0.3443 -0.6663
vn -0.9985 -0.0445 -0.0328
vn -0.7032 -0.3687 -0.6079
vn -0.7241 -0.3538 -0.5921
vn -0.7125 -0.3758 -0.5926
vn -0.7097 -0.3498 -0.6116
vn -0.6861 -0.3451 -0.6405
vn -0.6146 -0.3558 -0.7040
vn -0.5782 -0.3949 -0.7140
vn -0.2897 -0.3907 -0.8738
vn -0.7079 -0.2796 -0.6486
vn -0.6919 -0.2518 -0.6766
vn -0.6998 -0.2433 -0.6716
vn -0.6356 -0.3028 -0.7102
vn -0.2734 -0.3527 -0.8949
vn 0.7643 -0.4952 -0.4131
vn -0.2002 -0.3634 -0.9099
vn 0.7655 -0.3020 -0.5681
vn -0.3831 -0.3470 -0.8560
vn 0.4534 -0.2949 -0.8411
vn 0.4850 -0.2251 -0.8451
vn 0.5041 -0.1918 -0.8421
usemtl teeths
s 1
f 1/1/1 2/2/2 3/3/3
f 2/2/2 4/4/4 5/5/5
f 5/5/5 4/4/4 6/6/6
f 6/6/6 7/7/7 8/8/8
f 8/8/8 7/7/7 9/9/9
f 10/10/10 11/11/11 3/12/3
f 3/3/3 5/5/5 12/13/12
f 5/5/5 13/14/13 14/15/14
f 14/15/14 13/14/13 8/8/8
f 15/16/15 8/17/8 16/18/16
f 17/19/17 18/20/18 19/21/19
f 20/22/20 19/21/19 21/23/21
f 22/24/22 21/23/21 23/25/23
f 24/26/24 25/27/25 23/25/23
f 26/28/26 24/29/24 27/30/27
f 19/21/19 18/20/18 28/31/28
f 19/32/19 29/33/29 30/34/30
f 21/23/21 30/35/30 31/36/31
f 23/25/23 31/36/31 32/37/32
f 27/38/27 32/39/32 33/40/33
f 1/1/1 34/41/34 35/42/35
f 2/2/2 35/42/35 36/43/36
f 4/4/4 36/43/36 37/44/37
f 7/7/7 6/6/6 37/44/37
f 9/9/9 7/7/7 38/45/38
f 35/42/35 34/41/34 39/46/39
f 36/43/36 35/42/35 40/47/40
f 36/43/36 41/48/41 42/49/42
f 38/45/38 37/44/37 42/49/42
f 38/45/38 43/50/43 44/51/44
f 45/52/45 46/53/46 47/54/47
f 48/55/48 45/52/45 49/56/49
f 48/55/48 50/57/50 51/58/51
f 52/59/52 51/58/51 53/60/53
f 54/61/54 53/60/53 55/62/55
f 49/56/49 47/54/47 56/63/56
f 50/57/50 49/56/49 57/64/57
f 50/57/50 58/65/58 59/66/59
f 51/58/51 59/66/59 60/67/60
f 53/60/53 60/67/60 61/68/61
f 57/64/57 56/63/56 17/69/17
f 58/65/58 57/64/57 20/70/20
f 59/66/59 58/65/58 22/71/22
f 59/66/59 25/72/25 24/29/24
f 60/67/60 24/29/24 26/28/26
f 9/9/9 62/73/62 63/74/63
f 16/75/16 63/76/63 64/77/64
f 63/74/63 62/73/62 44/51/44
f 63/76/63 65/78/65 66/79/66
f 67/80/67 55/62/55 68/81/68
f 69/82/69 68/83/68 70/84/70
f 55/62/55 61/68/61 71/85/71
f 70/84/70 68/83/68 71/86/71
f 61/68/61 26/28/26 72/87/72
f 73/88/73 71/89/71 72/90/72
f 74/91/74 64/92/64 75/93/75
f 15/94/15 75/93/75 76/95/76
f 14/96/14 76/95/76 77/97/77
f 78/98/78 12/99/12 77/97/77
f 10/100/10 78/98/78 79/101/79
f 64/92/64 66/102/66 80/103/80
f 75/93/75 80/103/80 81/104/81
f 76/95/76 81/104/81 82/105/82
f 79/101/79 77/97/77 82/105/82
f 83/106/83 79/101/79 84/107/84
f 85/108/85 86/109/86 70/110/70
f 87/111/87 85/108/85 88/112/88
f 89/113/89 87/111/87 90/114/90
f 89/113/89 91/115/91 92/116/92
f 93/117/93 92/116/92 94/118/94
f 88/112/88 70/110/70 73/88/73
f 90/114/90 88/112/88 95/119/95
f 90/114/90 96/120/96 97/121/97
f 91/115/91 97/121/97 98/122/98
f 92/116/92 98/122/98 99/123/99
f 95/119/95 73/88/73 33/40/33
f 96/120/96 95/119/95 32/39/32
f 97/121/97 96/120/96 31/124/31
f 98/122/98 97/121/97 30/125/30
f 98/122/98 29/126/29 28/127/28
f 11/128/11 10/100/10 83/106/83
f 1/1/1 11/129/11 100/130/100
f 100/131/100 83/106/83 101/132/101
f 34/41/34 100/130/100 102/133/102
f 103/134/103 94/118/94 104/135/104
f 46/53/46 105/136/105 104/137/104
f 104/135/104 94/118/94 99/123/99
f 47/138/47 104/139/104 106/140/106
f 99/123/99 28/127/28 18/141/18
f 56/63/56 106/142/106 18/143/18
f 40/47/40 39/46/39 46/53/46
f 41/48/41 40/47/40 45/52/45
f 52/59/52 42/49/42 41/48/41
f 43/50/43 42/49/42 52/59/52
f 67/80/67 44/51/44 43/50/43
f 69/144/69 65/145/65 44/51/44
f 86/146/86 66/79/66 65/78/65
f 80/103/80 66/102/66 86/109/86
f 87/111/87 81/104/81 80/103/80
f 82/105/82 81/104/81 87/111/87
f 93/117/93 84/107/84 82/105/82
f 103/134/103 101/132/101 84/107/84
f 105/147/105 102/148/102 101/132/101
f 39/46/39 102/133/102 105/136/105
f 1/1/1 3/3/3 11/129/11
f 2/2/2 5/5/5 3/3/3
f 5/5/5 6/6/6 13/14/13
f 6/6/6 8/8/8 13/14/13
f 8/8/8 9/9/9 16/149/16
f 10/10/10 3/12/3 78/150/78
f 3/3/3 12/13/12 78/151/78
f 5/5/5 14/15/14 12/13/12
f 14/15/14 8/8/8 15/152/15
f 15/16/15 16/18/16 74/153/74
f 17/19/17 19/21/19 20/22/20
f 20/22/20 21/23/21 22/24/22
f 22/24/22 23/25/23 25/27/25
f 24/26/24 23/25/23 27/154/27
f 26/28/26 27/30/27 72/87/72
f 19/21/19 28/31/28 29/155/29
f 19/32/19 30/34/30 21/156/21
f 21/23/21 31/36/31 23/25/23
f 23/25/23 32/37/32 27/154/27
f 27/38/27 33/40/33 72/90/72
f 1/1/1 35/42/35 2/2/2
f 2/2/2 36/43/36 4/4/4
f 4/4/4 37/44/37 6/6/6
f 7/7/7 37/44/37 38/45/38
f 9/9/9 38/45/38 62/73/62
f 35/42/35 39/46/39 40/47/40
f 36/43/36 40/47/40 41/48/41
f 36/43/36 42/49/42 37/44/37
f 38/45/38 42/49/42 43/50/43
f 38/45/38 44/51/44 62/73/62
f 45/52/45 47/54/47 49/56/49
f 48/55/48 49/56/49 50/57/50
f 48/55/48 51/58/51 52/59/52
f 52/59/52 53/60/53 54/61/54
f 54/61/54 55/62/55 67/80/67
f 49/56/49 56/63/56 57/64/57
f 50/57/50 57/64/57 58/65/58
f 50/57/50 59/66/59 51/58/51
f 51/58/51 60/67/60 53/60/53
f 53/60/53 61/68/61 55/62/55
f 57/64/57 17/69/17 20/70/20
f 58/65/58 20/70/20 22/71/22
f 59/66/59 22/71/22 25/72/25
f 59/66/59 24/29/24 60/67/60
f 60/67/60 26/28/26 61/68/61
f 9/9/9 63/74/63 16/149/16
f 16/75/16 64/77/64 74/157/74
f 63/74/63 44/51/44 65/145/65
f 63/76/63 66/79/66 64/77/64
f 67/80/67 68/81/68 69/144/69
f 69/82/69 70/84/70 86/146/86
f 55/62/55 71/85/71 68/81/68
f 70/84/70 71/86/71 73/158/73
f 61/68/61 72/87/72 71/85/71
f 73/88/73 72/90/72 33/40/33
f 74/91/74 75/93/75 15/94/15
f 15/94/15 76/95/76 14/96/14
f 14/96/14 77/97/77 12/99/12
f 78/98/78 77/97/77 79/101/79
f 10/100/10 79/101/79 83/106/83
f 64/92/64 80/103/80 75/93/75
f 75/93/75 81/104/81 76/95/76
f 76/95/76 82/105/82 77/97/77
f 79/101/79 82/105/82 84/107/84
f 83/106/83 84/107/84 101/132/101
f 85/108/85 70/110/70 88/112/88
f 87/111/87 88/112/88 90/114/90
f 89/113/89 90/114/90 91/115/91
f 89/113/89 92/116/92 93/117/93
f 93/117/93 94/118/94 103/134/103
f 88/112/88 73/88/73 95/119/95
f 90/114/90 95/119/95 96/120/96
f 90/114/90 97/121/97 91/115/91
f 91/115/91 98/122/98 92/116/92
f 92/116/92 99/123/99 94/118/94
f 95/119/95 33/40/33 32/39/32
f 96/120/96 32/39/32 31/124/31
f 97/121/97 31/124/31 30/125/30
f 98/122/98 30/125/30 29/126/29
f 98/122/98 28/127/28 99/123/99
f 11/128/11 83/106/83 100/131/100
f 1/1/1 100/130/100 34/41/34
f 100/131/100 101/132/101 102/148/102
f 34/41/34 102/133/102 39/46/39
f 103/134/103 104/135/104 105/147/105
f 46/53/46 104/137/104 47/54/47
f 104/135/104 99/123/99 106/159/106
f 47/138/47 106/140/106 56/160/56
f 99/123/99 18/141/18 106/159/106
f 56/63/56 18/143/18 17/69/17
f 40/47/40 46/53/46 45/52/45
f 41/48/41 45/52/45 48/55/48
f 52/59/52 41/48/41 48/55/48
f 43/50/43 52/59/52 54/61/54
f 67/80/67 43/50/43 54/61/54
f 69/144/69 44/51/44 67/80/67
f 86/146/86 65/78/65 69/82/69
f 80/103/80 86/109/86 85/108/85
f 87/111/87 80/103/80 85/108/85
f 82/105/82 87/111/87 89/113/89
f 93/117/93 82/105/82 89/113/89
f 103/134/103 84/107/84 93/117/93
f 105/147/105 101/132/101 103/134/103
f 39/46/39 105/136/105 46/53/46
