# Blender v2.79 (sub 0) OBJ File: ''
# www.blender.org
mtllib teeth34.mtl
o Box34
v 0.468889 -0.802706 0.375506
v 0.510008 -0.794438 0.345589
v 0.499071 -0.810819 0.405434
v 0.536871 -0.796401 0.352988
v 0.508797 -0.813498 0.415325
v 0.557899 -0.809095 0.399615
v 0.467437 -0.791480 0.334408
v 0.523892 -0.776943 0.281685
v 0.503241 -0.764392 0.235585
v 0.478372 -0.775098 0.274563
v 0.603328 -0.793548 0.343103
v 0.534829 -0.760563 0.221840
v 0.561005 -0.776696 0.281090
v 0.602108 -0.768080 0.249902
v 0.611114 -0.778726 0.288934
v 0.487035 -0.422036 0.468501
v 0.521142 -0.395157 0.439399
v 0.486462 -0.377998 0.432404
v 0.516513 -0.402599 0.483322
v 0.500030 -0.429012 0.493802
v 0.557651 -0.395288 0.499078
v 0.550527 -0.385115 0.450607
v 0.497276 -0.381488 0.381427
v 0.534679 -0.394427 0.374082
v 0.579352 -0.350990 0.441702
v 0.564725 -0.389849 0.371579
v 0.512542 -0.379590 0.355714
v 0.544163 -0.393559 0.353546
v 0.585065 -0.352635 0.361625
v 0.572855 -0.351461 0.352888
v 0.456103 -0.651083 0.426553
v 0.488787 -0.660533 0.461402
v 0.516505 -0.664354 0.475607
v 0.484577 -0.534525 0.503001
v 0.452376 -0.516492 0.468002
v 0.574425 -0.659155 0.457075
v 0.523668 -0.539178 0.519704
v 0.482226 -0.471364 0.519046
v 0.455489 -0.450093 0.485804
v 0.586073 -0.533580 0.499739
v 0.507696 -0.459323 0.537819
v 0.625137 -0.640702 0.389965
v 0.634324 -0.623216 0.326067
v 0.639471 -0.513648 0.427245
v 0.621062 -0.610553 0.279612
v 0.649366 -0.494809 0.358400
v 0.570296 -0.401017 0.531604
v 0.626189 -0.365036 0.435106
v 0.620866 -0.365607 0.462665
v 0.622146 -0.351189 0.340017
v 0.584652 -0.600914 0.244045
v 0.571242 -0.759910 0.219749
v 0.530967 -0.601252 0.244832
v 0.496623 -0.605886 0.261507
v 0.607673 -0.471261 0.271878
v 0.637919 -0.481280 0.308794
v 0.492974 -0.449305 0.294481
v 0.538955 -0.444673 0.277923
v 0.579973 -0.330606 0.319702
v 0.499124 -0.388691 0.311285
v 0.546869 -0.347285 0.314585
v 0.467292 -0.618517 0.307481
v 0.454391 -0.637839 0.378074
v 0.461438 -0.501343 0.334022
v 0.450531 -0.502223 0.415773
v 0.467488 -0.384115 0.365544
v 0.451493 -0.396339 0.418839
v 0.570367 -0.365712 0.484213
vt 0.865550 0.229780
vt 0.674840 0.375990
vt 0.674840 0.128390
vt 0.523920 0.363130
vt 0.613150 0.094740
vt 0.365860 0.188840
vt 0.913500 0.394160
vt 0.663050 0.641760
vt 0.818580 0.814170
vt 0.913500 0.641760
vt 0.178100 0.444720
vt 0.663050 0.889350
vt 0.465120 0.667510
vt 0.275740 0.818830
vt 0.189410 0.667510
vt 0.229750 0.263990
vt 0.379440 0.420920
vt 0.183600 0.442210
vt 0.754180 0.928050
vt 0.579080 0.918170
vt 0.829690 0.877270
vt 0.629400 0.219600
vt 0.544600 0.407080
vt 0.396570 0.245820
vt 0.195590 0.637000
vt 0.391910 0.675390
vt 0.592920 0.946320
vt 0.508050 1.014630
vt 0.291880 0.889380
vt 0.253300 0.744980
vt 0.549300 0.708120
vt 0.423670 0.759310
vt 0.205380 0.963780
vt 0.179090 0.961230
vt 0.325160 0.000500
vt 0.078170 0.358160
vt 0.134450 0.000500
vt 0.386850 0.000500
vt 0.287070 0.358160
vt 0.634140 0.000500
vt 0.449210 0.358160
vt 0.273850 0.654880
vt 0.065450 0.673330
vt 0.740910 0.358160
vt 0.499320 0.654500
vt 0.261550 0.800780
vt 0.083240 0.827230
vt 0.813600 0.654500
vt 0.412230 0.837740
vt 0.444720 0.000500
vt 0.129970 0.358160
vt 0.188840 0.000500
vt 0.667510 0.000500
vt 0.431800 0.358160
vt 0.818830 0.000500
vt 0.694600 0.358160
vt 0.099790 0.654500
vt 0.424980 0.654500
vt 0.873100 0.358160
vt 0.708120 0.654500
vt 0.099790 0.959690
vt 0.532370 0.980170
vt 0.424980 0.995230
vt 0.900430 0.953970
vt 0.275740 0.000500
vt 0.412630 0.358160
vt 0.183110 0.358160
vt 0.470320 0.000500
vt 0.699030 0.358160
vt 0.663050 0.000500
vt 0.866430 0.358160
vt 0.293600 0.654500
vt 0.095730 0.654500
vt 0.891520 0.715830
vt 0.661750 0.715830
vt 0.181220 0.953970
vt 0.430110 0.986640
vt 0.857070 0.856620
vt 0.608090 0.947760
vt 0.185830 0.000500
vt 0.335780 0.358160
vt 0.132400 0.358160
vt 0.358240 0.000500
vt 0.627840 0.358160
vt 0.770220 0.000500
vt 0.605840 0.000500
vt 0.324610 0.626930
vt 0.105490 0.715830
vt 0.821750 0.358160
vt 0.639270 0.673330
vt 0.324610 0.898690
vt 0.105490 0.856620
vt 0.848190 0.827230
vt 0.546700 0.903820
vt 0.083240 0.151810
vt 0.324020 0.170310
vt 1.019790 0.837740
vt 0.977040 0.800780
vt 0.728110 0.099790
vt 0.412230 -0.019790
vt 0.677070 0.312300
vt 0.927460 0.424980
vt 0.682870 0.491950
vt 0.930590 0.532370
vt 0.640520 0.794620
vt 0.569890 0.970380
vt 0.818780 0.900430
vt 0.047470 0.947760
vt 0.029620 0.986640
vt 0.142930 0.894510
vt 0.391910 0.952530
vt 0.022300 0.675390
vt -0.011700 0.453300
vt -0.011700 0.903820
vt 0.229750 0.877460
vt 0.183600 0.951270
vt 0.470320 0.920680
vt 0.687700 1.007970
vt 0.566940 0.820910
vt 0.728110 0.959690
vt 0.900430 0.654500
vt 0.818580 0.000500
vt 0.848190 0.673330
vt 0.261550 0.022960
vt 0.240690 0.870830
vn 0.0021 -0.9646 -0.2636
vn 0.0023 -0.9646 -0.2635
vn 0.0022 -0.9646 -0.2636
vn 0.0021 -0.9646 -0.2637
vn 0.0022 -0.9646 -0.2637
vn 0.6544 -0.7520 0.0790
vn -0.1697 -0.5078 -0.8446
vn 0.6237 -0.5884 -0.5147
vn 0.6928 -0.6883 -0.2151
vn -0.3277 0.7675 0.5509
vn -0.1170 0.9678 0.2230
vn -0.1144 0.9232 0.3669
vn -0.6051 0.7551 0.2523
vn -0.5628 0.6712 0.4825
vn -0.5450 0.7786 0.3110
vn -0.5655 0.8235 0.0444
vn 0.0659 0.9945 0.0819
vn 0.1222 0.9896 0.0754
vn -0.2981 0.9528 0.0583
vn -0.6084 0.7727 0.1812
vn 0.1989 0.9796 -0.0297
vn -0.2474 0.9037 0.3494
vn -0.2693 0.8931 0.3602
vn -0.4885 0.6589 0.5721
vn -0.4819 -0.8401 0.2490
vn -0.9249 -0.1673 0.3416
vn -0.6837 -0.7227 0.1008
vn -0.1875 -0.8242 0.5344
vn -0.6158 -0.2823 0.7356
vn 0.4117 -0.8277 0.3814
vn -0.0803 -0.3530 0.9322
vn -0.6010 -0.2371 0.7632
vn -0.9370 -0.0952 0.3360
vn 0.5834 -0.3249 0.7444
vn -0.0253 -0.2711 0.9622
vn -0.6535 0.0945 0.7510
vn -0.8069 0.3274 0.4916
vn 0.5987 -0.2086 0.7733
vn -0.3171 0.1561 0.9355
vn 0.9207 -0.2162 0.3250
vn 0.9899 -0.1055 -0.0947
vn 0.9305 -0.0901 0.3550
vn 0.8605 -0.0070 -0.5093
vn 0.9991 0.0148 -0.0403
vn 0.1843 0.4448 0.8765
vn 0.7769 0.6209 0.1045
vn 0.6983 0.5822 0.4163
vn 0.7030 0.6792 -0.2112
vn 0.3618 0.1239 -0.9240
vn 0.2602 -0.4724 -0.8421
vn -0.2374 0.1692 -0.9566
vn -0.6703 0.1108 -0.7337
vn 0.4517 0.2170 -0.8654
vn 0.9056 0.0928 -0.4138
vn -0.6431 0.2117 -0.7359
vn -0.1585 0.2783 -0.9473
vn 0.0485 0.9422 -0.3315
vn -0.5350 0.6353 -0.5570
vn -0.5325 0.7837 -0.3197
vn -0.4839 -0.5186 -0.7049
vn -0.9322 0.0227 -0.3613
vn -0.6692 -0.6080 -0.4272
vn -0.9961 -0.0390 -0.0786
vn -0.6984 -0.6756 -0.2364
vn -0.9386 0.0788 -0.3359
vn -0.9986 0.0159 -0.0497
vn -0.6801 0.7074 -0.1923
vn -0.8387 0.5329 0.1120
vn -0.3669 0.8297 0.4207
usemtl teeths
s off
f 1/1/1 2/2/1 3/3/1
f 3/3/2 4/4/2 5/5/2
f 4/4/3 6/6/3 5/5/3
f 7/7/3 8/8/3 2/2/3
f 8/8/1 4/4/1 2/2/1
f 9/9/1 8/8/1 10/10/1
f 1/1/3 7/7/3 2/2/3
f 3/3/4 2/2/4 4/4/4
f 4/4/3 11/11/3 6/6/3
f 7/7/5 10/10/5 8/8/5
f 9/9/3 12/12/3 8/8/3
s 1
f 13/13/3 11/11/6 4/4/3
f 12/12/7 13/13/3 8/8/3
f 13/13/3 14/14/8 15/15/9
f 16/16/10 17/17/11 18/18/12
f 19/19/13 17/20/11 20/21/14
f 21/22/15 22/23/16 19/24/13
f 17/17/11 23/25/17 18/18/12
f 22/23/16 24/26/18 17/17/11
f 22/27/16 25/28/19 26/29/20
f 24/26/18 27/30/21 23/25/17
f 26/31/20 28/32/22 24/26/18
f 26/29/20 29/33/23 30/34/24
f 3/35/25 31/36/26 1/37/27
f 5/38/28 32/39/29 3/35/25
f 6/40/30 33/41/31 5/38/28
f 31/36/26 34/42/32 35/43/33
f 33/41/31 34/42/32 32/39/29
f 36/44/34 37/45/35 33/41/31
f 35/43/33 38/46/36 39/47/37
f 37/45/35 38/46/36 34/42/32
f 40/48/38 41/49/39 37/45/35
f 11/50/6 36/51/34 6/52/30
f 15/53/9 42/54/40 11/50/6
f 14/55/8 43/56/41 15/53/9
f 42/54/40 40/57/38 36/51/34
f 43/56/41 44/58/42 42/54/40
f 45/59/43 46/60/44 43/56/41
f 44/58/42 47/61/45 40/57/38
f 44/58/42 48/62/46 49/63/47
f 46/60/44 50/64/48 48/62/46
f 14/65/8 51/66/49 45/67/43
f 52/68/50 53/69/51 51/66/49
f 12/70/7 54/71/52 53/69/51
f 45/67/43 55/72/53 56/73/54
f 53/69/51 55/72/53 51/66/49
f 53/69/51 57/74/55 58/75/56
f 55/72/53 50/76/48 56/73/54
f 58/75/56 59/77/57 55/72/53
f 58/75/56 60/78/58 61/79/59
f 9/80/60 62/81/61 54/82/52
f 10/83/62 63/84/63 62/81/61
f 1/85/27 63/84/63 7/86/64
f 54/82/52 64/87/65 57/88/55
f 63/84/63 64/87/65 62/81/61
f 31/89/26 65/90/66 63/84/63
f 57/88/55 66/91/67 60/92/58
f 65/90/66 66/91/67 64/87/65
f 65/90/66 39/93/37 67/94/68
f 39/95/37 20/96/14 16/16/10
f 41/97/39 20/21/14 38/98/36
f 47/99/45 19/24/13 41/100/39
f 47/99/45 68/101/69 21/22/15
f 49/102/47 25/103/19 68/101/69
f 48/104/46 29/105/23 25/103/19
f 59/106/57 29/105/23 50/107/48
f 61/108/59 30/34/24 59/109/57
f 60/110/58 28/32/22 61/111/59
f 66/112/67 27/30/21 60/110/58
f 67/113/68 23/25/17 66/112/67
f 67/114/68 16/115/10 18/116/12
f 8/8/3 13/13/3 4/4/3
f 13/13/3 15/15/9 11/11/6
f 12/12/7 52/117/50 13/13/3
f 13/13/3 52/117/50 14/14/8
f 16/16/10 20/96/14 17/17/11
f 19/19/13 22/27/16 17/20/11
f 21/22/15 68/101/69 22/23/16
f 17/17/11 24/26/18 23/25/17
f 22/23/16 26/31/20 24/26/18
f 22/27/16 68/118/69 25/28/19
f 24/26/18 28/32/22 27/30/21
f 26/31/20 30/119/24 28/32/22
f 26/29/20 25/28/19 29/33/23
f 3/35/25 32/39/29 31/36/26
f 5/38/28 33/41/31 32/39/29
f 6/40/30 36/44/34 33/41/31
f 31/36/26 32/39/29 34/42/32
f 33/41/31 37/45/35 34/42/32
f 36/44/34 40/48/38 37/45/35
f 35/43/33 34/42/32 38/46/36
f 37/45/35 41/49/39 38/46/36
f 40/48/38 47/120/45 41/49/39
f 11/50/6 42/54/40 36/51/34
f 15/53/9 43/56/41 42/54/40
f 14/55/8 45/59/43 43/56/41
f 42/54/40 44/58/42 40/57/38
f 43/56/41 46/60/44 44/58/42
f 45/59/43 56/121/54 46/60/44
f 44/58/42 49/63/47 47/61/45
f 44/58/42 46/60/44 48/62/46
f 46/60/44 56/121/54 50/64/48
f 14/65/8 52/68/50 51/66/49
f 52/68/50 12/70/7 53/69/51
f 12/70/7 9/122/60 54/71/52
f 45/67/43 51/66/49 55/72/53
f 53/69/51 58/75/56 55/72/53
f 53/69/51 54/71/52 57/74/55
f 55/72/53 59/77/57 50/76/48
f 58/75/56 61/79/59 59/77/57
f 58/75/56 57/74/55 60/78/58
f 9/80/60 10/83/62 62/81/61
f 10/83/62 7/86/64 63/84/63
f 1/85/27 31/89/26 63/84/63
f 54/82/52 62/81/61 64/87/65
f 63/84/63 65/90/66 64/87/65
f 31/89/26 35/123/33 65/90/66
f 57/88/55 64/87/65 66/91/67
f 65/90/66 67/94/68 66/91/67
f 65/90/66 35/123/33 39/93/37
f 39/95/37 38/124/36 20/96/14
f 41/97/39 19/19/13 20/21/14
f 47/99/45 21/22/15 19/24/13
f 47/99/45 49/102/47 68/101/69
f 49/102/47 48/104/46 25/103/19
f 48/104/46 50/107/48 29/105/23
f 59/106/57 30/119/24 29/105/23
f 61/108/59 28/125/22 30/34/24
f 60/110/58 27/30/21 28/32/22
f 66/112/67 23/25/17 27/30/21
f 67/113/68 18/18/12 23/25/17
f 67/114/68 39/47/37 16/115/10
