# Blender v2.79 (sub 0) OBJ File: ''
# www.blender.org
mtllib teeth44.mtl
o Box44
v -0.521516 -0.803640 0.347034
v -0.554527 -0.811883 0.375639
v -0.559480 -0.794958 0.311545
v -0.565188 -0.814608 0.385117
v -0.586952 -0.796875 0.316741
v -0.612505 -0.809878 0.363820
v -0.515996 -0.792073 0.303886
v -0.566963 -0.776869 0.242891
v -0.603845 -0.776471 0.238673
v -0.652121 -0.793678 0.299902
v -0.541838 -0.764013 0.196330
v -0.520948 -0.775147 0.239790
v -0.571918 -0.759941 0.178796
v -0.654499 -0.778368 0.242089
v -0.641666 -0.767428 0.201846
v -0.607954 -0.759127 0.173071
v -0.547118 -0.423185 0.439956
v -0.542826 -0.378804 0.401714
v -0.578101 -0.395902 0.405853
v -0.577831 -0.403726 0.452527
v -0.562563 -0.430321 0.465351
v -0.620293 -0.396372 0.465052
v -0.608410 -0.385825 0.414711
v -0.548608 -0.381842 0.347115
v -0.585173 -0.394592 0.335882
v -0.614814 -0.389870 0.330306
v -0.636089 -0.351469 0.402288
v -0.561276 -0.379677 0.318594
v -0.592597 -0.393520 0.313371
v -0.620917 -0.351252 0.309567
v -0.633934 -0.352452 0.317578
v -0.513165 -0.652294 0.400704
v -0.549152 -0.661908 0.434249
v -0.578151 -0.665735 0.446531
v -0.512959 -0.517889 0.443546
v -0.548517 -0.536101 0.477366
v -0.633963 -0.660155 0.421408
v -0.589084 -0.540738 0.491181
v -0.517528 -0.451541 0.461420
v -0.547489 -0.473000 0.493949
v -0.649220 -0.534726 0.464116
v -0.574629 -0.460997 0.511123
v -0.677790 -0.640935 0.345818
v -0.680596 -0.622878 0.277621
v -0.695185 -0.513973 0.382591
v -0.698208 -0.494518 0.309115
v -0.681897 -0.480613 0.257971
v -0.636088 -0.402320 0.498065
v -0.679523 -0.366112 0.420426
v -0.682118 -0.365296 0.390940
v -0.668719 -0.350681 0.291266
v -0.662791 -0.609876 0.229973
v -0.623025 -0.600084 0.196029
v -0.569667 -0.600639 0.202051
v -0.537135 -0.605549 0.222935
v -0.648129 -0.470406 0.222014
v -0.580213 -0.444106 0.234797
v -0.536086 -0.449057 0.256685
v -0.624667 -0.330076 0.273824
v -0.591279 -0.346864 0.271781
v -0.543606 -0.388483 0.273263
v -0.512496 -0.618682 0.274198
v -0.506652 -0.638649 0.349806
v -0.508788 -0.501604 0.301719
v -0.505944 -0.503187 0.388708
v -0.517413 -0.384463 0.333321
v -0.506765 -0.397194 0.390982
v -0.631372 -0.366593 0.447959
vt 0.865550 0.229780
vt 0.674840 0.128390
vt 0.674840 0.375990
vt 0.613150 0.094740
vt 0.523920 0.363130
vt 0.365860 0.188840
vt 0.913500 0.394160
vt 0.663050 0.641760
vt 0.465120 0.667510
vt 0.178100 0.444720
vt 0.818580 0.814170
vt 0.913500 0.641760
vt 0.663050 0.889350
vt 0.189410 0.667510
vt 0.275740 0.818830
vt 0.470320 0.920680
vt 0.229750 0.263990
vt 0.183600 0.442210
vt 0.379440 0.420920
vt 0.754180 0.928050
vt 0.829690 0.877270
vt 0.579080 0.918170
vt 0.629400 0.219600
vt 0.396570 0.245820
vt 0.544600 0.407080
vt 0.195590 0.637000
vt 0.391910 0.675390
vt 0.592920 0.946320
vt 0.291880 0.889380
vt 0.508050 1.014630
vt 0.253300 0.744980
vt 0.549300 0.708120
vt 0.423670 0.759310
vt 0.179090 0.961230
vt 0.205380 0.963780
vt 0.325160 0.000500
vt 0.134450 0.000500
vt 0.078170 0.358160
vt 0.386850 0.000500
vt 0.287070 0.358160
vt 0.634140 0.000500
vt 0.449210 0.358160
vt 0.065450 0.673330
vt 0.273850 0.654880
vt 0.740910 0.358160
vt 0.499320 0.654500
vt 0.083240 0.827230
vt 0.261550 0.800780
vt 0.813600 0.654500
vt 0.412230 0.837740
vt 0.444720 0.000500
vt 0.188840 0.000500
vt 0.129970 0.358160
vt 0.667510 0.000500
vt 0.431800 0.358160
vt 0.818830 0.000500
vt 0.694600 0.358160
vt 0.099790 0.654500
vt 0.424980 0.654500
vt 0.708120 0.654500
vt 0.900430 0.654500
vt 0.099790 0.959690
vt 0.424980 0.995230
vt 0.532370 0.980170
vt 0.900430 0.953970
vt 0.275740 0.000500
vt 0.183110 0.358160
vt 0.412630 0.358160
vt 0.470320 0.000500
vt 0.699030 0.358160
vt 0.663050 0.000500
vt 0.866430 0.358160
vt 0.095730 0.654500
vt 0.293600 0.654500
vt 0.661750 0.715830
vt 0.891520 0.715830
vt 0.181220 0.953970
vt 0.430110 0.986640
vt 0.608090 0.947760
vt 0.857070 0.856620
vt 0.185830 0.000500
vt 0.132400 0.358160
vt 0.335780 0.358160
vt 0.358240 0.000500
vt 0.627840 0.358160
vt 0.770220 0.000500
vt 0.605840 0.000500
vt 0.105490 0.715830
vt 0.324610 0.626930
vt 0.821750 0.358160
vt 0.639270 0.673330
vt 0.105490 0.856620
vt 0.324610 0.898690
vt 0.546700 0.903820
vt 0.848190 0.827230
vt 0.083240 0.151810
vt 0.324020 0.170310
vt 1.019790 0.837740
vt 0.977040 0.800780
vt 0.728110 0.099790
vt 0.412230 -0.019790
vt 0.677070 0.312300
vt 0.927460 0.424980
vt 0.682870 0.491950
vt 0.930590 0.532370
vt 0.640520 0.794620
vt 0.569890 0.970380
vt 0.818780 0.900430
vt 0.047470 0.947760
vt 0.029620 0.986640
vt 0.142930 0.894510
vt 0.391910 0.952530
vt 0.022300 0.675390
vt -0.011700 0.453300
vt -0.011700 0.903820
vt 0.183600 0.951270
vt 0.229750 0.877460
vt 0.687700 1.007970
vt 0.566940 0.820910
vt 0.728110 0.959690
vt 0.873100 0.358160
vt 0.818580 0.000500
vt 0.848190 0.673330
vt 0.261550 0.022960
vt 0.240690 0.870830
vn 0.0189 -0.9663 -0.2566
vn 0.0189 -0.9663 -0.2567
vn 0.0188 -0.9663 -0.2567
vn 0.2805 0.7787 0.5612
vn 0.0829 0.9250 0.3707
vn 0.0952 0.9677 0.2336
vn 0.5819 0.7563 0.2991
vn 0.5227 0.6766 0.5187
vn 0.5184 0.7794 0.3519
vn 0.5623 0.8208 0.1008
vn -0.0710 0.9942 0.0814
vn -0.1245 0.9899 0.0674
vn 0.5915 0.7723 0.2318
vn 0.2957 0.9513 0.0875
vn -0.1897 0.9810 -0.0407
vn 0.2178 0.9059 0.3632
vn 0.4420 0.6685 0.5981
vn 0.2401 0.8942 0.3778
vn 0.5421 0.4117 0.7326
vn 0.6505 0.5696 0.5024
vn 0.8943 -0.1701 0.4138
vn 0.1120 0.4291 0.8963
vn 0.5623 -0.2879 0.7752
vn -0.5515 0.3990 0.7326
vn -0.0075 -0.3640 0.9314
vn 0.9071 -0.0972 0.4094
vn 0.5445 -0.2416 0.8032
vn -0.6671 -0.3275 0.6691
vn -0.0674 -0.2776 0.9583
vn 0.7640 0.3347 0.5516
vn 0.5995 0.0986 0.7943
vn -0.6851 -0.2076 0.6982
vn 0.2304 0.1578 0.9602
vn -0.7866 0.4949 0.3692
vn -0.8256 0.5627 0.0410
vn -0.9517 -0.2118 0.2222
vn -0.6957 0.6602 -0.2830
vn -0.9777 -0.1073 -0.1805
vn -0.9642 -0.0849 0.2511
vn -0.9916 0.0210 -0.1274
vn -0.8705 0.0980 -0.4823
vn -0.2745 0.4569 0.8461
vn -0.7355 0.5873 0.3379
vn -0.7803 0.6246 0.0312
vn -0.6835 0.6806 -0.2637
vn -0.8188 -0.0107 -0.5740
vn -0.2835 0.1246 -0.9508
vn -0.2248 0.8024 -0.5529
vn 0.3399 0.1691 -0.9252
vn 0.2618 0.7850 -0.5615
vn 0.7527 0.1062 -0.6497
vn -0.3786 0.2218 -0.8986
vn 0.2577 0.2843 -0.9235
vn 0.7248 0.2102 -0.6561
vn -0.0188 0.9408 -0.3384
vn 0.5596 0.7827 -0.2726
vn 0.6026 0.6337 -0.4851
vn 0.5498 0.7744 -0.3132
vn 0.9664 0.0170 -0.2565
vn 0.7177 0.6962 -0.0104
vn 0.9989 -0.0430 0.0182
vn 0.7517 0.6328 0.1860
vn 0.9701 0.0738 -0.2313
vn 0.9989 0.0116 0.0459
vn 0.7009 0.7040 -0.1144
vn 0.8276 0.5298 0.1854
vn 0.3289 0.8342 0.4427
usemtl teeths
s off
f 1/1/1 2/2/1 3/3/1
f 2/2/1 4/4/1 5/5/1
f 5/5/1 4/4/1 6/6/1
f 7/7/2 3/3/2 8/8/2
f 8/8/2 3/3/2 5/5/2
f 9/9/2 5/5/2 10/10/2
f 11/11/1 12/12/1 8/8/1
f 13/13/2 8/8/2 9/9/2
f 9/9/2 14/14/2 15/15/2
f 1/1/1 3/3/1 7/7/1
f 2/2/1 5/5/1 3/3/1
f 5/5/1 6/6/1 10/10/1
f 7/7/1 8/8/1 12/12/1
f 8/8/2 5/5/2 9/9/2
f 9/9/2 10/10/2 14/14/2
f 11/11/3 8/8/3 13/13/3
f 13/13/2 9/9/2 16/16/2
f 9/9/2 15/15/2 16/16/2
s 1
f 17/17/4 18/18/5 19/19/6
f 20/20/7 21/21/8 19/22/6
f 22/23/9 20/24/7 23/25/10
f 19/19/6 18/18/5 24/26/11
f 23/25/10 19/19/6 25/27/12
f 23/28/10 26/29/13 27/30/14
f 25/27/12 24/26/11 28/31/15
f 26/32/13 25/27/12 29/33/16
f 26/29/13 30/34/17 31/35/18
f 2/36/19 1/37/20 32/38/21
f 4/39/22 2/36/19 33/40/23
f 6/41/24 4/39/22 34/42/25
f 32/38/21 35/43/26 36/44/27
f 34/42/25 33/40/23 36/44/27
f 37/45/28 34/42/25 38/46/29
f 35/43/26 39/47/30 40/48/31
f 38/46/29 36/44/27 40/48/31
f 41/49/32 38/46/29 42/50/33
f 10/51/34 6/52/24 37/53/28
f 14/54/35 10/51/34 43/55/36
f 15/56/37 14/54/35 44/57/38
f 43/55/36 37/53/28 41/58/32
f 44/57/38 43/55/36 45/59/39
f 44/57/38 46/60/40 47/61/41
f 45/59/39 41/58/32 48/62/42
f 45/59/39 49/63/43 50/64/44
f 46/60/40 50/64/44 51/65/45
f 15/66/37 52/67/46 53/68/47
f 16/69/48 53/68/47 54/70/49
f 13/71/50 54/70/49 55/72/51
f 52/67/46 47/73/41 56/74/52
f 54/70/49 53/68/47 56/74/52
f 54/70/49 57/75/53 58/76/54
f 56/74/52 47/73/41 51/77/45
f 57/75/53 56/74/52 59/78/55
f 57/75/53 60/79/56 61/80/57
f 11/81/58 55/82/51 62/83/59
f 12/84/60 62/83/59 63/85/61
f 1/86/20 7/87/62 63/85/61
f 55/82/51 58/88/54 64/89/63
f 63/85/61 62/83/59 64/89/63
f 32/90/21 63/85/61 65/91/64
f 58/88/54 61/92/57 66/93/65
f 65/91/64 64/89/63 66/93/65
f 65/91/64 67/94/66 39/95/30
f 39/96/30 17/17/4 21/97/8
f 42/98/33 40/99/31 21/21/8
f 48/100/42 42/101/33 20/24/7
f 48/100/42 22/23/9 68/102/67
f 49/103/43 68/102/67 27/104/14
f 50/105/44 27/104/14 31/106/18
f 59/107/55 51/108/45 31/106/18
f 60/109/56 59/110/55 30/34/17
f 61/111/57 60/112/56 29/33/16
f 66/113/65 61/111/57 28/31/15
f 67/114/66 66/113/65 24/26/11
f 67/115/66 18/116/5 17/117/4
f 17/17/4 19/19/6 21/97/8
f 20/20/7 19/22/6 23/28/10
f 22/23/9 23/25/10 68/102/67
f 19/19/6 24/26/11 25/27/12
f 23/25/10 25/27/12 26/32/13
f 23/28/10 27/30/14 68/118/67
f 25/27/12 28/31/15 29/33/16
f 26/32/13 29/33/16 30/119/17
f 26/29/13 31/35/18 27/30/14
f 2/36/19 32/38/21 33/40/23
f 4/39/22 33/40/23 34/42/25
f 6/41/24 34/42/25 37/45/28
f 32/38/21 36/44/27 33/40/23
f 34/42/25 36/44/27 38/46/29
f 37/45/28 38/46/29 41/49/32
f 35/43/26 40/48/31 36/44/27
f 38/46/29 40/48/31 42/50/33
f 41/49/32 42/50/33 48/120/42
f 10/51/34 37/53/28 43/55/36
f 14/54/35 43/55/36 44/57/38
f 15/56/37 44/57/38 52/121/46
f 43/55/36 41/58/32 45/59/39
f 44/57/38 45/59/39 46/60/40
f 44/57/38 47/61/41 52/121/46
f 45/59/39 48/62/42 49/63/43
f 45/59/39 50/64/44 46/60/40
f 46/60/40 51/65/45 47/61/41
f 15/66/37 53/68/47 16/69/48
f 16/69/48 54/70/49 13/71/50
f 13/71/50 55/72/51 11/122/58
f 52/67/46 56/74/52 53/68/47
f 54/70/49 56/74/52 57/75/53
f 54/70/49 58/76/54 55/72/51
f 56/74/52 51/77/45 59/78/55
f 57/75/53 59/78/55 60/79/56
f 57/75/53 61/80/57 58/76/54
f 11/81/58 62/83/59 12/84/60
f 12/84/60 63/85/61 7/87/62
f 1/86/20 63/85/61 32/90/21
f 55/82/51 64/89/63 62/83/59
f 63/85/61 64/89/63 65/91/64
f 32/90/21 65/91/64 35/123/26
f 58/88/54 66/93/65 64/89/63
f 65/91/64 66/93/65 67/94/66
f 65/91/64 39/95/30 35/123/26
f 39/96/30 21/97/8 40/124/31
f 42/98/33 21/21/8 20/20/7
f 48/100/42 20/24/7 22/23/9
f 48/100/42 68/102/67 49/103/43
f 49/103/43 27/104/14 50/105/44
f 50/105/44 31/106/18 51/108/45
f 59/107/55 31/106/18 30/119/17
f 60/109/56 30/34/17 29/125/16
f 61/111/57 29/33/16 28/31/15
f 66/113/65 28/31/15 24/26/11
f 67/114/66 24/26/11 18/18/5
f 67/115/66 17/117/4 39/47/30
