# Blender v2.79 (sub 0) OBJ File: ''
# www.blender.org
mtllib teeth41.mtl
o Box41
v -0.246193 -0.494046 0.839633
v -0.228526 -0.489151 0.850546
v -0.228729 -0.485119 0.844067
v -0.175142 -0.491392 0.873063
v -0.171215 -0.487208 0.863937
v -0.135392 -0.493080 0.879680
v -0.133309 -0.488891 0.868705
v -0.074633 -0.491620 0.883708
v -0.074834 -0.487958 0.871147
v -0.049148 -0.498556 0.870561
v -0.252198 -0.489799 0.823317
v -0.224873 -0.478683 0.829756
v -0.168169 -0.478576 0.847671
v -0.129482 -0.482001 0.853489
v -0.074027 -0.480597 0.855825
v -0.045096 -0.494318 0.864557
v -0.223240 -0.940700 0.684645
v -0.212469 -0.921383 0.641345
v -0.169926 -0.958895 0.655141
v -0.150772 -0.992557 0.695175
v -0.180719 -0.978349 0.698586
v -0.117991 -0.997063 0.699894
v -0.139992 -0.973146 0.651989
v -0.095694 -0.984497 0.700404
v -0.107545 -0.974933 0.660720
v -0.059688 -0.961253 0.691241
v -0.085584 -0.972883 0.663005
v -0.196595 -0.904417 0.635531
v -0.160028 -0.941058 0.615294
v -0.130114 -0.955358 0.612308
v -0.097931 -0.952003 0.623149
v -0.048405 -0.939181 0.672541
v -0.076009 -0.949325 0.625723
v -0.249283 -0.533719 0.822346
v -0.230676 -0.541698 0.846165
v -0.182898 -0.543127 0.862764
v -0.132706 -0.546718 0.872541
v -0.074505 -0.552201 0.870173
v -0.252267 -0.577261 0.805101
v -0.230323 -0.589564 0.834927
v -0.186165 -0.601325 0.845103
v -0.134304 -0.607406 0.857771
v -0.076340 -0.603441 0.857894
v -0.047312 -0.549063 0.851921
v -0.225717 -0.667979 0.809856
v -0.247589 -0.653320 0.787890
v -0.239968 -0.749300 0.759058
v -0.184266 -0.682662 0.823442
v -0.216900 -0.767357 0.782808
v -0.134308 -0.687180 0.836149
v -0.180048 -0.778301 0.794847
v -0.080843 -0.689666 0.838032
v -0.130967 -0.784363 0.808874
v -0.085226 -0.783289 0.805873
v -0.056588 -0.770162 0.790108
v -0.233921 -0.842518 0.727656
v -0.204030 -0.869026 0.758386
v -0.173275 -0.883260 0.762131
v -0.126396 -0.890210 0.769181
v -0.087798 -0.875280 0.761265
v -0.057932 -0.859858 0.740486
v -0.041516 -0.535176 0.851467
v -0.052540 -0.531656 0.841047
v -0.047695 -0.600609 0.836731
v -0.040037 -0.583654 0.832729
v -0.048441 -0.577079 0.826398
v -0.051458 -0.687704 0.818299
v -0.043051 -0.749835 0.779558
v -0.041711 -0.670550 0.804587
v -0.046380 -0.739567 0.765530
v -0.045834 -0.837018 0.715417
v -0.039730 -0.836790 0.691934
v -0.041237 -0.487376 0.849051
v -0.078824 -0.530556 0.830736
v -0.126137 -0.530228 0.820526
v -0.173809 -0.523772 0.815940
v -0.246934 -0.481748 0.820058
v -0.217953 -0.518538 0.804257
v -0.077237 -0.572972 0.811701
v -0.123669 -0.575297 0.798369
v -0.168764 -0.570942 0.788945
v -0.212429 -0.553638 0.785976
v -0.239490 -0.541975 0.785601
v -0.074213 -0.656111 0.773434
v -0.043977 -0.663925 0.796518
v -0.117585 -0.653055 0.759177
v -0.069200 -0.731657 0.738356
v -0.109382 -0.741456 0.718502
v -0.155587 -0.735244 0.704423
v -0.162934 -0.647475 0.747035
v -0.188666 -0.726789 0.705361
v -0.201130 -0.636999 0.743556
v -0.224575 -0.710724 0.705302
v -0.065618 -0.840383 0.683121
v -0.102239 -0.844321 0.671571
v -0.150882 -0.842594 0.666025
v -0.182591 -0.828870 0.665244
v -0.215526 -0.803810 0.672492
v -0.042032 -0.935566 0.649834
v -0.241805 -0.513840 0.796943
v -0.254186 -0.511703 0.795158
v -0.255431 -0.553903 0.780017
v -0.242432 -0.636162 0.748227
v -0.234182 -0.623466 0.744900
v -0.235086 -0.727877 0.711478
v -0.222172 -0.820565 0.678598
vt 0.257300 0.158260
vt 0.259140 0.125720
vt 0.253030 0.127830
vt 0.280480 0.029880
vt 0.237390 0.026590
vt -0.719520 0.029880
vt -0.243450 0.041760
vt 0.788660 0.041990
vt 0.756550 0.041760
vt 0.769110 0.139960
vt 0.779120 0.137200
vt 0.776470 0.178950
vt 0.248590 0.172900
vt 0.239280 0.127630
vt 0.171870 0.031940
vt -0.211340 0.041990
vt 0.829560 0.046440
vt 0.792830 0.134820
vt 0.780710 0.182180
vt 0.282440 0.829620
vt 0.246540 0.832530
vt 0.256110 0.926810
vt 0.413660 0.964580
vt 0.328410 0.917440
vt 0.662870 0.953520
vt 1.413660 0.964580
vt 1.213910 0.981230
vt 0.720170 0.919940
vt 0.781060 0.957990
vt 0.759320 0.861530
vt 0.777450 0.919810
vt 0.229870 0.846550
vt 0.186950 0.920930
vt 0.213910 0.981230
vt 0.074710 0.959750
vt -0.127520 0.941720
vt 0.872480 0.941720
vt 0.781000 0.843340
vt 0.832750 0.907440
vt 0.258320 0.192120
vt 0.274040 0.153870
vt 0.307460 0.056030
vt 0.723480 0.059870
vt 0.759950 0.173450
vt 0.260180 0.238230
vt 0.281520 0.191350
vt 0.316700 0.092880
vt 0.693050 0.080670
vt 0.752090 0.212560
vt 0.774650 0.214490
vt 0.288780 0.296270
vt 0.269000 0.329170
vt 0.276610 0.527250
vt 0.340060 0.191710
vt 0.303590 0.562720
vt 0.662520 0.168460
vt 0.362770 0.658000
vt 0.736560 0.332690
vt 0.643440 0.680690
vt 0.724980 0.597830
vt 0.752270 0.565190
vt 0.282400 0.715710
vt 0.327240 0.800700
vt 0.389290 0.886230
vt 0.635720 0.893440
vt 0.722390 0.810980
vt 0.757370 0.756840
vt 0.778200 0.212840
vt 0.785410 0.195100
vt 0.770540 0.261150
vt 0.776980 0.256560
vt 0.782270 0.238670
vt 0.758750 0.381540
vt 0.766030 0.530680
vt 0.771650 0.371210
vt 0.776630 0.523740
vt 0.781650 0.731210
vt 0.796410 0.738270
vt 0.790500 0.184210
vt 0.797290 0.151590
vt 0.856980 0.060620
vt 1.185930 0.062890
vt 0.185930 0.062890
vt 0.243290 0.164290
vt 0.231050 0.147360
vt 0.798010 0.185060
vt 0.863010 0.079760
vt 1.170570 0.084130
vt 0.170570 0.084130
vt 0.226570 0.169560
vt 0.237330 0.206880
vt 0.800360 0.310620
vt 0.777730 0.361920
vt 0.869710 0.175850
vt 0.802060 0.539480
vt 0.865000 0.668840
vt 1.143780 0.660630
vt 0.156650 0.180060
vt 0.143780 0.660630
vt 0.209900 0.556200
vt 0.216890 0.275770
vt 0.231020 0.497390
vt 0.810260 0.795980
vt 0.865390 0.892290
vt 1.154070 0.906090
vt 0.154070 0.906090
vt 0.212460 0.811950
vt 0.233240 0.706190
vt 0.797510 0.841700
vt 0.237200 0.185950
vt 0.240300 0.202540
vt 0.242890 0.241510
vt 0.242080 0.335050
vt 0.234170 0.310740
vt 0.242850 0.524730
vt 0.244150 0.718070
vt -0.136990 0.079760
vt -0.170440 0.046440
vt -0.218940 0.957990
vt 1.171870 0.031940
vt 1.156650 0.180060
vt 1.074710 0.959750
vt -0.130290 0.175850
vn -0.7443 0.2981 0.5976
vn -0.4075 0.4486 0.7954
vn -0.3178 0.8481 0.4239
vn -0.2266 0.4726 0.8516
vn -0.0688 0.9034 0.4233
vn -0.0927 0.4907 0.8664
vn -0.0175 0.9238 0.3826
vn 0.2202 0.4990 0.8381
vn 0.1476 0.9178 0.3686
vn 0.5969 0.1971 0.7777
vn -0.9036 0.4220 0.0740
vn -0.0215 0.9662 -0.2568
vn 0.0860 0.9735 -0.2118
vn 0.0787 0.9605 -0.2668
vn 0.1154 0.9483 -0.2955
vn 0.7823 0.4105 0.4686
vn -0.8590 -0.5118 0.0158
vn -0.7347 -0.2343 -0.6366
vn -0.4624 -0.7607 -0.4556
vn -0.2935 -0.9376 0.1867
vn -0.5013 -0.8248 0.2614
vn 0.1407 -0.9520 0.2718
vn -0.1750 -0.8657 -0.4690
vn 0.4697 -0.8064 0.3593
vn 0.1373 -0.8889 -0.4371
vn 0.7581 -0.6053 0.2426
vn 0.3880 -0.8620 -0.3263
vn -0.3464 0.2619 -0.9008
vn -0.2772 -0.2130 -0.9369
vn 0.0541 -0.3920 -0.9184
vn 0.2082 -0.3236 -0.9230
vn 0.8907 -0.4444 0.0959
vn 0.4217 -0.2980 -0.8564
vn -0.9207 -0.1082 0.3749
vn -0.5728 -0.1542 0.8051
vn -0.2776 -0.1840 0.9429
vn -0.0972 -0.1986 0.9752
vn 0.2914 -0.2374 0.9267
vn -0.9526 -0.1178 0.2804
vn -0.5880 -0.2300 0.7755
vn -0.2809 -0.2696 0.9211
vn -0.1234 -0.2464 0.9613
vn 0.3178 -0.2350 0.9186
vn 0.6190 -0.2450 0.7462
vn -0.5870 -0.2612 0.7663
vn -0.9567 -0.1421 0.2540
vn -0.9580 -0.1560 0.2404
vn -0.3215 -0.2671 0.9085
vn -0.6009 -0.2628 0.7549
vn -0.1580 -0.2684 0.9503
vn -0.3251 -0.2805 0.9031
vn 0.2794 -0.2698 0.9215
vn -0.1027 -0.3322 0.9376
vn 0.3327 -0.3796 0.8633
vn 0.7133 -0.3253 0.6208
vn -0.9720 -0.1483 0.1820
vn -0.5519 -0.3565 0.7539
vn -0.2534 -0.4356 0.8637
vn 0.0643 -0.4505 0.8905
vn 0.4728 -0.3876 0.7913
vn 0.8188 -0.2658 0.5088
vn 0.9983 0.0215 0.0543
vn 0.5305 0.2936 -0.7952
vn 0.6926 -0.2107 0.6899
vn 0.9987 0.0462 -0.0223
vn 0.5855 0.3046 -0.7512
vn 0.7314 -0.2104 0.6487
vn 0.9698 -0.1238 0.2099
vn 0.9911 -0.0463 0.1248
vn 0.9075 0.2078 -0.3651
vn 0.9521 -0.1458 0.2686
vn 0.8608 0.2234 -0.4573
vn 0.7079 0.5670 -0.4210
vn 0.2599 0.4192 -0.8699
vn 0.1832 0.5055 -0.8432
vn 0.2138 0.5252 -0.8237
vn -0.4289 0.8805 -0.2018
vn 0.2882 0.5055 -0.8133
vn 0.3578 0.3875 -0.8496
vn 0.2376 0.4439 -0.8640
vn 0.2238 0.4789 -0.8489
vn 0.2303 0.4712 -0.8514
vn 0.1542 0.4117 -0.8982
vn 0.4806 0.3799 -0.7904
vn 0.8389 0.1947 -0.5084
vn 0.2986 0.4369 -0.8485
vn 0.5442 0.4183 -0.7272
vn 0.2976 0.4085 -0.8629
vn 0.2002 0.3907 -0.8985
vn 0.2306 0.4462 -0.8647
vn 0.1237 0.3887 -0.9130
vn 0.1786 0.4425 -0.8788
vn -0.3034 0.3319 -0.8932
vn 0.2518 0.4171 -0.8733
vn 0.1693 0.4216 -0.8909
vn 0.1728 0.4045 -0.8981
vn 0.1078 0.3688 -0.9232
vn -0.4126 0.2600 -0.8730
vn 0.8454 -0.3057 -0.4379
vn 0.2424 0.5287 -0.8135
vn -0.6236 0.4947 -0.6053
vn -0.7693 0.2472 -0.5891
vn -0.8838 0.1026 -0.4565
vn -0.2458 0.3690 -0.8964
vn -0.8999 0.0640 -0.4315
vn -0.8988 0.0441 -0.4360
usemtl teeths
s 1
f 1/1/1 2/2/2 3/3/3
f 2/2/2 4/4/4 5/5/5
f 5/5/5 4/6/4 6/7/6
f 7/8/7 6/9/6 8/10/8
f 9/11/9 8/10/8 10/12/10
f 11/13/11 3/3/3 12/14/12
f 3/3/3 5/5/5 13/15/13
f 13/15/13 5/5/5 7/16/7
f 14/17/14 7/8/7 9/11/9
f 15/18/15 9/11/9 16/19/16
f 17/20/17 18/21/18 19/22/19
f 20/23/20 21/24/21 19/22/19
f 22/25/22 20/26/20 23/27/23
f 24/28/24 22/25/22 25/29/25
f 26/30/26 24/28/24 27/31/27
f 18/21/18 28/32/28 29/33/29
f 23/34/23 19/22/19 29/33/29
f 23/34/23 30/35/30 31/36/31
f 27/31/27 25/29/25 31/37/31
f 32/38/32 27/31/27 33/39/33
f 1/1/1 34/40/34 35/41/35
f 2/2/2 35/41/35 36/42/36
f 4/4/4 36/42/36 37/43/37
f 8/10/8 6/9/6 37/43/37
f 10/12/10 8/10/8 38/44/38
f 35/41/35 34/40/34 39/45/39
f 36/42/36 35/41/35 40/46/40
f 36/42/36 41/47/41 42/48/42
f 37/43/37 42/48/42 43/49/43
f 44/50/44 38/44/38 43/49/43
f 45/51/45 46/52/46 47/53/47
f 48/54/48 45/51/45 49/55/49
f 50/56/50 48/54/48 51/57/51
f 52/58/52 50/56/50 53/59/53
f 52/58/52 54/60/54 55/61/55
f 49/55/49 47/53/47 56/62/56
f 51/57/51 49/55/49 57/63/57
f 53/59/53 51/57/51 58/64/58
f 53/59/53 59/65/59 60/66/60
f 54/60/54 60/66/60 61/67/61
f 57/63/57 56/62/56 17/20/17
f 58/64/58 57/63/57 21/24/21
f 59/65/59 58/64/58 20/23/20
f 59/65/59 22/25/22 24/28/24
f 60/66/60 24/28/24 26/30/26
f 10/12/10 44/50/44 62/68/62
f 16/19/16 62/68/62 63/69/63
f 44/50/44 64/70/64 65/71/65
f 62/68/62 65/71/65 66/72/66
f 67/73/67 55/61/55 68/74/68
f 69/75/69 68/74/68 70/76/70
f 55/61/55 61/67/61 71/77/71
f 70/76/70 68/74/68 71/77/71
f 61/67/61 26/30/26 32/38/32
f 72/78/72 71/77/71 32/38/32
f 15/18/15 73/79/73 63/69/63
f 14/17/14 15/18/15 74/80/74
f 14/17/14 75/81/75 76/82/76
f 12/14/12 13/15/13 76/83/76
f 77/84/77 12/14/12 78/85/78
f 74/80/74 63/69/63 66/72/66
f 75/81/75 74/80/74 79/86/79
f 75/81/75 80/87/80 81/88/81
f 76/83/76 81/89/81 82/90/82
f 78/85/78 82/90/82 83/91/83
f 84/92/84 85/93/85 70/76/70
f 86/94/86 84/92/84 87/95/87
f 86/94/86 88/96/88 89/97/89
f 90/98/90 89/99/89 91/100/91
f 92/101/92 91/100/91 93/102/93
f 87/95/87 70/76/70 72/78/72
f 88/96/88 87/95/87 94/103/94
f 88/96/88 95/104/95 96/105/96
f 89/99/89 96/106/96 97/107/97
f 91/100/91 97/107/97 98/108/98
f 94/103/94 72/78/72 99/109/99
f 95/104/95 94/103/94 33/39/33
f 96/105/96 95/104/95 31/37/31
f 96/106/96 30/35/30 29/33/29
f 97/107/97 29/33/29 28/32/28
f 11/13/11 77/84/77 100/110/100
f 11/13/11 101/111/101 34/40/34
f 101/111/101 100/110/100 83/91/83
f 34/40/34 101/111/101 102/112/102
f 103/113/103 104/114/104 93/102/93
f 46/52/46 103/113/103 105/115/105
f 105/115/105 93/102/93 98/108/98
f 47/53/47 105/115/105 106/116/106
f 106/116/106 98/108/98 28/32/28
f 56/62/56 106/116/106 18/21/18
f 40/46/40 39/45/39 46/52/46
f 41/47/41 40/46/40 45/51/45
f 42/48/42 41/47/41 48/54/48
f 52/58/52 43/49/43 42/48/42
f 64/70/64 43/49/43 52/58/52
f 69/75/69 65/71/65 64/70/64
f 85/93/85 66/72/66 65/71/65
f 79/86/79 66/72/66 85/93/85
f 80/87/80 79/86/79 84/92/84
f 90/98/90 81/89/81 80/117/80
f 92/101/92 82/90/82 81/89/81
f 104/114/104 83/91/83 82/90/82
f 102/112/102 83/91/83 104/114/104
f 39/45/39 102/112/102 103/113/103
f 1/1/1 3/3/3 11/13/11
f 2/2/2 5/5/5 3/3/3
f 5/5/5 6/7/6 7/16/7
f 7/8/7 8/10/8 9/11/9
f 9/11/9 10/12/10 16/19/16
f 11/13/11 12/14/12 77/84/77
f 3/3/3 13/15/13 12/14/12
f 13/15/13 7/16/7 14/118/14
f 14/17/14 9/11/9 15/18/15
f 15/18/15 16/19/16 73/79/73
f 17/20/17 19/22/19 21/24/21
f 20/23/20 19/22/19 23/34/23
f 22/25/22 23/27/23 25/29/25
f 24/28/24 25/29/25 27/31/27
f 26/30/26 27/31/27 32/38/32
f 18/21/18 29/33/29 19/22/19
f 23/34/23 29/33/29 30/35/30
f 23/34/23 31/36/31 25/119/25
f 27/31/27 31/37/31 33/39/33
f 32/38/32 33/39/33 99/109/99
f 1/1/1 35/41/35 2/2/2
f 2/2/2 36/42/36 4/4/4
f 4/4/4 37/43/37 6/9/6
f 8/10/8 37/43/37 38/44/38
f 10/12/10 38/44/38 44/50/44
f 35/41/35 39/45/39 40/46/40
f 36/42/36 40/46/40 41/47/41
f 36/42/36 42/48/42 37/43/37
f 37/43/37 43/49/43 38/44/38
f 44/50/44 43/49/43 64/70/64
f 45/51/45 47/53/47 49/55/49
f 48/54/48 49/55/49 51/57/51
f 50/56/50 51/57/51 53/59/53
f 52/58/52 53/59/53 54/60/54
f 52/58/52 55/61/55 67/73/67
f 49/55/49 56/62/56 57/63/57
f 51/57/51 57/63/57 58/64/58
f 53/59/53 58/64/58 59/65/59
f 53/59/53 60/66/60 54/60/54
f 54/60/54 61/67/61 55/61/55
f 57/63/57 17/20/17 21/24/21
f 58/64/58 21/24/21 20/23/20
f 59/65/59 20/23/20 22/25/22
f 59/65/59 24/28/24 60/66/60
f 60/66/60 26/30/26 61/67/61
f 10/12/10 62/68/62 16/19/16
f 16/19/16 63/69/63 73/79/73
f 44/50/44 65/71/65 62/68/62
f 62/68/62 66/72/66 63/69/63
f 67/73/67 68/74/68 69/75/69
f 69/75/69 70/76/70 85/93/85
f 55/61/55 71/77/71 68/74/68
f 70/76/70 71/77/71 72/78/72
f 61/67/61 32/38/32 71/77/71
f 72/78/72 32/38/32 99/109/99
f 15/18/15 63/69/63 74/80/74
f 14/17/14 74/80/74 75/81/75
f 14/17/14 76/82/76 13/120/13
f 12/14/12 76/83/76 78/85/78
f 77/84/77 78/85/78 100/110/100
f 74/80/74 66/72/66 79/86/79
f 75/81/75 79/86/79 80/87/80
f 75/81/75 81/88/81 76/82/76
f 76/83/76 82/90/82 78/85/78
f 78/85/78 83/91/83 100/110/100
f 84/92/84 70/76/70 87/95/87
f 86/94/86 87/95/87 88/96/88
f 86/94/86 89/97/89 90/121/90
f 90/98/90 91/100/91 92/101/92
f 92/101/92 93/102/93 104/114/104
f 87/95/87 72/78/72 94/103/94
f 88/96/88 94/103/94 95/104/95
f 88/96/88 96/105/96 89/97/89
f 89/99/89 97/107/97 91/100/91
f 91/100/91 98/108/98 93/102/93
f 94/103/94 99/109/99 33/39/33
f 95/104/95 33/39/33 31/37/31
f 96/105/96 31/37/31 30/122/30
f 96/106/96 29/33/29 97/107/97
f 97/107/97 28/32/28 98/108/98
f 11/13/11 100/110/100 101/111/101
f 11/13/11 34/40/34 1/1/1
f 101/111/101 83/91/83 102/112/102
f 34/40/34 102/112/102 39/45/39
f 103/113/103 93/102/93 105/115/105
f 46/52/46 105/115/105 47/53/47
f 105/115/105 98/108/98 106/116/106
f 47/53/47 106/116/106 56/62/56
f 106/116/106 28/32/28 18/21/18
f 56/62/56 18/21/18 17/20/17
f 40/46/40 46/52/46 45/51/45
f 41/47/41 45/51/45 48/54/48
f 42/48/42 48/54/48 50/56/50
f 52/58/52 42/48/42 50/56/50
f 64/70/64 52/58/52 67/73/67
f 69/75/69 64/70/64 67/73/67
f 85/93/85 65/71/65 69/75/69
f 79/86/79 85/93/85 84/92/84
f 80/87/80 84/92/84 86/94/86
f 90/98/90 80/117/80 86/123/86
f 92/101/92 81/89/81 90/98/90
f 104/114/104 82/90/82 92/101/92
f 102/112/102 104/114/104 103/113/103
f 39/45/39 103/113/103 46/52/46
