# Blender v2.79 (sub 0) OBJ File: ''
# www.blender.org
mtllib teeth46.mtl
o Box46
v -0.544070 -0.636255 -0.158551
v -0.592922 -0.646265 -0.115631
v -0.604513 -0.627083 -0.204516
v -0.633447 -0.650558 -0.098444
v -0.646331 -0.629783 -0.194736
v -0.707355 -0.646063 -0.123764
v -0.745940 -0.640075 -0.153704
v -0.556199 -0.624114 -0.215881
v -0.620270 -0.606624 -0.299521
v -0.677106 -0.606866 -0.301993
v -0.751910 -0.615407 -0.267445
v -0.762219 -0.606171 -0.310543
v -0.584627 -0.591512 -0.366739
v -0.549878 -0.603797 -0.308089
v -0.631860 -0.587443 -0.388407
v -0.737415 -0.597279 -0.349838
v -0.755593 -0.625540 -0.221112
v -0.687495 -0.587191 -0.393058
v -0.578065 -0.225146 -0.078457
v -0.600251 -0.230390 -0.135205
v -0.619138 -0.233041 -0.148124
v -0.622970 -0.273321 -0.082641
v -0.629945 -0.257995 -0.052295
v -0.701312 -0.264967 -0.036838
v -0.664816 -0.244167 -0.139062
v -0.725967 -0.231057 -0.110985
v -0.585789 -0.205889 -0.215719
v -0.650266 -0.209933 -0.242637
v -0.738463 -0.228723 -0.175419
v -0.696221 -0.195734 -0.246078
v -0.749037 -0.169193 -0.213313
v -0.607032 -0.200304 -0.252971
v -0.663213 -0.196987 -0.270196
v -0.698988 -0.179741 -0.265535
v -0.718300 -0.192697 -0.255772
v -0.527910 -0.488242 -0.109041
v -0.581027 -0.499867 -0.058962
v -0.649499 -0.505763 -0.036175
v -0.524924 -0.356762 -0.070957
v -0.577358 -0.376906 -0.019272
v -0.663355 -0.355819 0.006212
v -0.757416 -0.378202 -0.025431
v -0.531602 -0.234482 -0.043698
v -0.575765 -0.240690 0.009917
v -0.640082 -0.266799 0.022387
v -0.734941 -0.263824 -0.003677
v -0.736681 -0.500457 -0.066040
v -0.791968 -0.476575 -0.179287
v -0.789312 -0.465303 -0.230915
v -0.800032 -0.454085 -0.283134
v -0.768065 -0.442751 -0.333214
v -0.779646 -0.492425 -0.105661
v -0.794709 -0.351200 -0.151619
v -0.825079 -0.328535 -0.257935
v -0.795620 -0.316205 -0.312748
v -0.801469 -0.369659 -0.067458
v -0.773657 -0.233937 -0.126706
v -0.788679 -0.240246 -0.172936
v -0.803791 -0.181529 -0.230271
v -0.773298 -0.190667 -0.288564
v -0.709179 -0.430852 -0.384196
v -0.626954 -0.430480 -0.380727
v -0.575755 -0.435459 -0.354620
v -0.746066 -0.303942 -0.365985
v -0.641087 -0.276913 -0.358641
v -0.572035 -0.281720 -0.332200
v -0.706963 -0.157440 -0.316751
v -0.655896 -0.172052 -0.319751
v -0.583147 -0.177616 -0.308285
v -0.534764 -0.449952 -0.285437
v -0.539003 -0.473714 -0.177265
v -0.527873 -0.297336 -0.257665
v -0.535487 -0.341021 -0.144720
v -0.539064 -0.187544 -0.232511
v -0.574165 -0.238478 -0.160038
v -0.723759 -0.226512 -0.017052
v -0.775541 -0.223265 -0.035933
v -0.814248 -0.340784 -0.200955
vt 0.885650 0.229740
vt 0.691820 0.128350
vt 0.691820 0.375950
vt 0.539600 0.094750
vt 0.538430 0.363100
vt 0.288270 0.188850
vt 0.164820 0.283840
vt 0.869050 0.390900
vt 0.679840 0.641740
vt 0.478680 0.667490
vt 0.196360 0.597720
vt 0.179670 0.719340
vt 0.837910 0.814160
vt 0.934370 0.641740
vt 0.679840 0.889340
vt 0.286210 0.818820
vt 0.161750 0.471900
vt 0.483960 0.920670
vt 0.211210 0.263950
vt 0.266320 0.417190
vt 0.328290 0.455980
vt 0.263020 0.859940
vt 0.194580 0.909680
vt 0.455980 0.918600
vt 0.825470 0.903740
vt 0.558440 0.899340
vt 0.603680 0.944640
vt 0.176500 0.636980
vt 0.496310 0.441560
vt 0.394800 0.727230
vt 0.740370 0.570670
vt 0.554770 0.759960
vt 0.753060 0.707180
vt 0.235140 0.744970
vt 0.427080 0.811150
vt 0.553910 0.820900
vt 0.628690 0.794600
vt 0.308180 0.000640
vt 0.114350 0.000640
vt 0.057150 0.358710
vt 0.460400 0.000640
vt 0.269460 0.358710
vt 0.711730 0.000640
vt 0.523780 0.358710
vt 0.044220 0.674230
vt 0.256030 0.655760
vt 0.569990 0.718560
vt 0.894120 0.655380
vt 0.062300 0.963950
vt 0.243530 0.977650
vt 0.481480 0.926810
vt 0.807230 0.923650
vt 0.283840 0.000640
vt 0.188850 0.000640
vt 0.129990 0.358710
vt 0.471900 0.000640
vt 0.458980 0.358710
vt 0.599670 0.358710
vt 0.719340 0.000640
vt 0.746440 0.358710
vt 0.873090 0.358710
vt 0.252980 0.358710
vt 0.099810 0.655380
vt 0.458310 0.655500
vt 0.759960 0.655380
vt 0.900430 0.655380
vt 0.229750 0.655380
vt 0.099810 0.923650
vt 0.452160 0.931890
vt 0.574810 0.895390
vt 0.763320 1.000270
vt 0.900430 0.950060
vt 0.286210 0.000640
vt 0.192060 0.358710
vt 0.425330 0.358710
vt 0.483960 0.000640
vt 0.716400 0.358710
vt 0.679840 0.000640
vt 0.886540 0.358710
vt 0.103250 0.655380
vt 0.304360 0.655380
vt 0.678520 0.716770
vt 0.912040 0.716770
vt 0.190140 0.950060
vt 0.443090 1.009190
vt 0.623980 0.973130
vt 0.877030 0.963950
vt 0.185840 0.000640
vt 0.132400 0.358710
vt 0.335800 0.358710
vt 0.358260 0.000640
vt 0.631100 0.358330
vt 0.770260 0.000640
vt 0.609100 0.000270
vt 0.105490 0.716770
vt 0.324630 0.716770
vt 0.642540 0.673850
vt 0.821790 0.358710
vt 0.105490 0.963950
vt 0.324630 0.977410
vt 0.531240 0.899090
vt 0.848240 0.963950
vt 0.243530 0.022910
vt 0.062300 0.151760
vt -0.002540 0.926810
vt 0.022910 0.977650
vt 0.481480 -0.002540
vt 0.376040 0.263020
vt 0.673400 0.174530
vt 0.673400 0.903740
vt 0.756330 1.000990
vt 0.887420 0.452160
vt 0.724150 0.396320
vt 0.057720 1.000270
vt 0.246940 1.034770
vt 0.556910 0.970380
vt 0.809860 0.900430
vt 0.376020 0.952530
vt 0.000370 0.675370
vt 0.122970 0.894510
vt 0.163920 0.468760
vt 0.221080 1.000650
vt 0.931910 0.221080
vt 0.756330 0.152110
vt 0.597720 0.000640
vt 0.600090 0.655380
vt 0.921740 0.895390
vt 0.740370 0.918640
vt 0.753060 1.034770
vt 0.411810 0.194580
vt 0.441560 0.899340
vt 0.736980 0.859940
vt 0.847890 1.000990
vt 0.820250 0.358710
vt 0.818820 0.000640
vt 0.837910 0.000640
vt 0.848240 0.674230
vt 0.807230 0.099810
vt 0.931910 1.000650
vt 0.921740 0.574810
vt 0.371310 0.959880
vt 0.942280 1.000270
vn 0.0134 -0.9770 -0.2126
vn 0.0133 -0.9771 -0.2126
vn 0.0102 -0.9772 -0.2121
vn 0.0134 -0.9771 -0.2126
vn 0.0108 -0.9778 -0.2094
vn 0.0133 -0.9770 -0.2126
vn -0.0800 0.9960 0.0385
vn 0.0232 0.9995 0.0191
vn -0.2699 0.9219 0.2780
vn -0.6586 0.7460 0.0989
vn -0.8953 0.4452 -0.0129
vn 0.4354 0.8857 0.1613
vn 0.0772 0.9430 0.3238
vn 0.1969 0.9790 0.0518
vn -0.1482 0.9212 0.3598
vn 0.0294 0.9360 0.3509
vn 0.0516 0.9007 0.4314
vn 0.2618 0.8758 0.4056
vn 0.1447 0.9160 0.3742
vn -0.1531 0.9357 0.3178
vn 0.1833 0.8790 0.4402
vn 0.0512 0.8578 0.5114
vn 0.0108 0.9956 0.0927
vn 0.4536 0.3786 0.8068
vn 0.7168 0.5951 0.3633
vn 0.9443 -0.1606 0.2872
vn 0.0313 0.3501 0.9362
vn 0.5230 -0.3054 0.7957
vn -0.4273 0.2866 0.8575
vn -0.0020 -0.3540 0.9352
vn 0.9525 -0.0675 0.2969
vn 0.4990 -0.2247 0.8369
vn -0.0489 -0.2135 0.9757
vn -0.5175 -0.2022 0.8315
vn 0.7702 0.5917 0.2380
vn 0.2446 0.5949 0.7657
vn -0.0886 0.5134 0.8535
vn -0.2395 0.2359 0.9418
vn -0.7708 0.3610 0.5249
vn -0.5021 -0.3707 0.7813
vn -0.8971 0.4252 0.1202
vn -0.9906 -0.1338 0.0277
vn -0.9788 -0.1969 0.0574
vn -0.8720 0.4879 -0.0403
vn -0.9596 -0.1816 -0.2147
vn -0.7496 -0.0789 -0.6571
vn -0.8793 -0.2735 0.3898
vn -0.9905 -0.0008 0.1379
vn -0.9907 0.0202 -0.1346
vn -0.8207 0.0917 -0.5639
vn -0.9360 -0.0822 0.3422
vn -0.6465 0.7625 0.0256
vn -0.7822 0.4528 0.4280
vn -0.7346 0.6731 0.0857
vn -0.5725 0.6815 -0.4559
vn -0.6748 0.5854 -0.4493
vn -0.3093 0.0307 -0.9505
vn -0.2642 0.7125 -0.6500
vn 0.2570 0.0938 -0.9618
vn 0.2105 0.7079 -0.6742
vn 0.6846 0.0511 -0.7271
vn -0.4179 0.1786 -0.8908
vn 0.1722 0.2436 -0.9545
vn 0.6578 0.1718 -0.7333
vn -0.1358 0.9226 -0.3610
vn 0.1815 0.8815 -0.4359
vn 0.4201 0.8064 -0.4163
vn 0.5338 0.7205 -0.4427
vn 0.9677 -0.0253 -0.2507
vn 0.8515 -0.5014 0.1537
vn 0.9964 -0.0457 -0.0717
vn 0.9297 0.3368 -0.1487
vn 0.9814 0.1132 -0.1553
vn 0.9913 0.1163 -0.0622
vn 0.6501 0.7346 0.1943
vn 0.7403 0.6513 0.1664
vn 0.4082 0.7103 0.5734
vn -0.6185 0.6871 0.3812
vn -0.9192 0.3638 0.1509
vn -0.9628 -0.0435 0.2666
vn 0.0122 -0.9769 -0.2134
usemtl teeths
s off
f 1/1/1 2/2/1 3/3/1
f 2/2/2 4/4/2 5/5/2
f 5/5/1 6/6/1 7/7/1
f 8/8/3 3/3/3 9/9/3
f 9/9/1 3/3/1 5/5/1
f 10/10/4 11/11/4 12/12/4
f 13/13/4 14/14/4 9/9/4
f 15/15/1 9/9/1 10/10/1
f 10/10/1 12/12/1 16/16/1
f 1/1/5 3/3/5 8/8/5
f 2/2/1 5/5/1 3/3/1
f 6/6/1 5/5/1 4/4/1
f 5/5/1 7/7/1 17/17/1
f 9/9/1 5/5/1 10/10/1
f 17/17/1 11/11/1 5/5/1
f 5/5/1 11/11/1 10/10/1
f 13/13/4 9/9/4 15/15/4
f 15/15/6 10/10/6 18/18/6
f 10/10/1 16/16/1 18/18/1
s 1
f 19/19/7 20/20/8 21/21/9
f 22/22/10 23/23/11 21/24/9
f 24/25/12 25/26/13 26/27/14
f 21/21/9 20/20/8 27/28/15
f 25/29/13 21/21/9 28/30/16
f 29/31/17 30/32/18 31/33/19
f 28/30/16 27/28/15 32/34/20
f 30/32/18 28/30/16 33/35/21
f 30/32/18 34/36/22 35/37/23
f 2/38/24 1/39/25 36/40/26
f 4/41/27 2/38/24 37/42/28
f 6/43/29 4/41/27 38/44/30
f 36/40/26 39/45/31 40/46/32
f 38/44/30 37/42/28 40/46/32
f 38/44/30 41/47/33 42/48/34
f 39/45/31 43/49/35 44/50/36
f 40/46/32 44/50/36 45/51/37
f 41/47/33 45/51/37 46/52/38
f 7/53/39 6/54/29 47/55/40
f 17/56/41 48/57/42 49/58/43
f 12/59/44 50/60/45 51/61/46
f 52/62/47 47/55/40 42/63/34
f 49/58/43 48/57/42 53/64/48
f 50/60/45 54/65/49 55/66/50
f 56/67/51 42/63/34 46/68/38
f 53/64/48 57/69/52 58/70/53
f 54/65/49 59/71/54 60/72/55
f 16/73/56 51/74/46 61/75/57
f 18/76/58 61/75/57 62/77/59
f 15/78/60 62/77/59 63/79/61
f 51/74/46 55/80/50 64/81/62
f 61/75/57 64/81/62 65/82/63
f 62/77/59 65/82/63 66/83/64
f 64/81/62 55/80/50 60/84/55
f 65/82/63 64/81/62 67/85/65
f 65/82/63 68/86/66 69/87/67
f 13/88/68 63/89/61 70/90/69
f 14/91/70 70/90/69 71/92/71
f 1/93/25 8/94/72 71/92/71
f 63/89/61 66/95/64 72/96/73
f 70/90/69 72/96/73 73/97/74
f 36/98/26 71/92/71 73/97/74
f 66/95/64 69/99/67 74/100/75
f 72/96/73 74/100/75 75/101/76
f 73/97/74 75/101/76 43/102/35
f 44/103/36 43/104/35 19/19/7
f 45/105/37 44/106/36 23/23/11
f 45/107/37 22/108/10 24/109/12
f 46/52/38 24/110/12 76/111/77
f 57/112/52 26/113/14 29/31/17
f 60/84/55 59/114/54 31/115/19
f 67/116/65 60/117/55 35/37/23
f 68/118/66 67/116/65 34/36/22
f 68/118/66 33/35/21 32/34/20
f 74/119/75 69/120/67 32/34/20
f 75/121/76 74/119/75 27/28/15
f 75/121/76 20/20/8 19/19/7
f 7/53/39 52/62/47 48/57/42
f 52/62/47 56/67/51 53/64/48
f 56/67/51 77/122/78 57/69/52
f 77/123/78 76/124/77 26/113/14
f 12/59/44 11/125/79 49/58/43
f 50/60/45 49/58/43 78/126/80
f 54/65/49 78/126/80 58/70/53
f 58/127/53 29/128/17 31/129/19
f 8/8/72 9/9/81 14/14/70
f 19/19/7 21/21/9 23/130/11
f 22/22/10 21/24/9 25/131/13
f 25/26/13 24/25/12 22/132/10
f 24/25/12 26/27/14 76/133/77
f 21/21/9 27/28/15 28/30/16
f 25/29/13 28/30/16 30/32/18
f 30/32/18 29/31/17 25/29/13
f 25/29/13 29/31/17 26/113/14
f 28/30/16 32/34/20 33/35/21
f 30/32/18 33/35/21 34/36/22
f 30/32/18 35/37/23 31/33/19
f 2/38/24 36/40/26 37/42/28
f 4/41/27 37/42/28 38/44/30
f 6/43/29 38/44/30 47/134/40
f 36/40/26 40/46/32 37/42/28
f 38/44/30 40/46/32 41/47/33
f 38/44/30 42/48/34 47/134/40
f 39/45/31 44/50/36 40/46/32
f 40/46/32 45/51/37 41/47/33
f 41/47/33 46/52/38 42/48/34
f 7/53/39 47/55/40 52/62/47
f 17/56/41 49/58/43 11/125/79
f 12/59/44 51/61/46 16/135/56
f 52/62/47 42/63/34 56/67/51
f 49/58/43 53/64/48 78/126/80
f 50/60/45 55/66/50 51/61/46
f 56/67/51 46/68/38 77/122/78
f 53/64/48 58/70/53 78/126/80
f 54/65/49 60/72/55 55/66/50
f 16/73/56 61/75/57 18/76/58
f 18/76/58 62/77/59 15/78/60
f 15/78/60 63/79/61 13/136/68
f 51/74/46 64/81/62 61/75/57
f 61/75/57 65/82/63 62/77/59
f 62/77/59 66/83/64 63/79/61
f 64/81/62 60/84/55 67/85/65
f 65/82/63 67/85/65 68/86/66
f 65/82/63 69/87/67 66/83/64
f 13/88/68 70/90/69 14/91/70
f 14/91/70 71/92/71 8/94/72
f 1/93/25 71/92/71 36/98/26
f 63/89/61 72/96/73 70/90/69
f 70/90/69 73/97/74 71/92/71
f 36/98/26 73/97/74 39/137/31
f 66/95/64 74/100/75 72/96/73
f 72/96/73 75/101/76 73/97/74
f 73/97/74 43/102/35 39/137/31
f 44/103/36 19/19/7 23/130/11
f 45/105/37 23/23/11 22/22/10
f 45/107/37 24/109/12 46/138/38
f 46/52/38 76/111/77 77/139/78
f 57/112/52 29/31/17 58/140/53
f 60/84/55 31/115/19 35/141/23
f 67/116/65 35/37/23 34/36/22
f 68/118/66 34/36/22 33/35/21
f 68/118/66 32/34/20 69/120/67
f 74/119/75 32/34/20 27/28/15
f 75/121/76 27/28/15 20/20/8
f 75/121/76 19/19/7 43/104/35
f 7/53/39 48/57/42 17/56/41
f 52/62/47 53/64/48 48/57/42
f 56/67/51 57/69/52 53/64/48
f 77/123/78 26/113/14 57/112/52
f 12/59/44 49/58/43 50/60/45
f 50/60/45 78/126/80 54/65/49
f 54/65/49 58/70/53 59/71/54
f 58/127/53 31/129/19 59/142/54
