# Blender v2.79 (sub 0) OBJ File: ''
# www.blender.org
mtllib teeth21.mtl
o Box21
v 0.301503 0.405816 0.978766
v 0.306933 0.413513 0.983513
v 0.262217 0.405709 1.015173
v 0.198079 0.406151 1.041088
v 0.196668 0.396313 1.032390
v 0.114701 0.407920 1.055402
v 0.113387 0.397994 1.046745
v 0.025906 0.407164 1.051934
v 0.024595 0.397234 1.043279
v -0.029655 0.425147 1.039055
v 0.290554 0.401991 0.970053
v 0.260667 0.396012 1.006409
v 0.193381 0.390558 1.016870
v 0.110106 0.392864 1.030988
v -0.035673 0.416593 1.033716
v -0.027812 0.413335 1.024789
v 0.275342 0.947094 0.848453
v 0.295874 0.935246 0.797322
v 0.215548 0.979211 0.832769
v 0.222137 0.994769 0.889444
v 0.162058 0.994164 0.847049
v 0.111790 1.014053 0.901688
v 0.172972 1.010468 0.895306
v 0.074407 1.010308 0.905539
v 0.106871 0.993899 0.857341
v 0.024378 0.975543 0.895676
v 0.069490 0.990192 0.861255
v 0.239314 0.921153 0.776953
v 0.213460 0.960436 0.782025
v 0.158819 0.971942 0.787206
v 0.101414 0.965150 0.799446
v 0.065324 0.961714 0.806422
v 0.003422 0.956712 0.854716
v 0.309451 0.473547 0.982255
v 0.262517 0.469356 1.012243
v 0.196827 0.463844 1.036512
v 0.114263 0.463187 1.051575
v 0.029997 0.471474 1.050120
v 0.310941 0.541340 0.971987
v 0.259935 0.548105 0.995418
v 0.191869 0.557225 1.021821
v 0.113653 0.560132 1.040957
v 0.035106 0.556639 1.039983
v -0.021325 0.552995 1.031733
v 0.250988 0.629088 0.988960
v 0.309765 0.621326 0.951531
v 0.285573 0.730650 0.921645
v 0.188811 0.634988 1.013747
v 0.238900 0.733519 0.964651
v 0.113382 0.640733 1.026442
v 0.182798 0.738465 0.990708
v 0.121086 0.745368 1.004905
v 0.054045 0.743644 1.000164
v 0.042553 0.639000 1.023176
v 0.003625 0.739480 0.989963
v 0.291379 0.845063 0.887353
v 0.212908 0.868280 0.932338
v 0.163115 0.883686 0.941372
v 0.133155 0.898571 0.957907
v 0.072263 0.891476 0.956198
v 0.002071 0.868941 0.938054
v -0.028036 0.474487 1.039645
v -0.037556 0.462468 1.023574
v -0.039945 0.539391 1.006699
v -0.016961 0.514669 0.996214
v -0.016212 0.635694 1.014115
v -0.028569 0.726326 0.955503
v -0.036880 0.629310 0.980485
v -0.016007 0.715003 0.924882
v -0.019676 0.849968 0.890062
v 0.002116 0.940174 0.820428
v -0.017731 0.457369 1.009658
v 0.026697 0.456864 1.007658
v 0.020824 0.393105 1.032161
v 0.109719 0.450783 1.000152
v 0.257129 0.390742 0.991734
v 0.193709 0.447681 0.984978
v 0.265048 0.458467 0.962840
v 0.026781 0.512074 0.985478
v 0.108211 0.507318 0.972952
v 0.189156 0.500040 0.960363
v 0.301071 0.456925 0.953838
v 0.266488 0.502772 0.945106
v 0.030170 0.615777 0.943044
v -0.015822 0.623244 0.965121
v 0.107361 0.608729 0.922972
v 0.035181 0.707931 0.903815
v 0.103984 0.709679 0.882508
v 0.171202 0.707548 0.863508
v 0.188639 0.604549 0.910303
v 0.218931 0.703059 0.849871
v 0.254574 0.602049 0.901852
v 0.259652 0.702921 0.846011
v -0.011597 0.840058 0.861234
v 0.041223 0.842957 0.841136
v 0.102303 0.844574 0.827205
v 0.169715 0.826827 0.814805
v 0.223708 0.825521 0.803189
v 0.264654 0.816725 0.809997
v 0.319210 0.458097 0.959213
v 0.302768 0.501689 0.934938
v 0.317244 0.523857 0.939133
v 0.288227 0.603286 0.902172
v 0.307465 0.716539 0.864507
v 0.316827 0.604013 0.904708
v 0.311143 0.830593 0.829334
vt 0.049620 0.047120
vt 0.036590 0.055950
vt 0.167960 0.027150
vt 0.351940 0.014030
vt 0.352640 0.004150
vt 0.585850 0.009480
vt 0.586280 -0.000560
vt 0.829560 0.011050
vt 0.829990 0.001000
vt 0.980580 0.045550
vt 0.922920 0.046320
vt 0.950380 0.047120
vt 0.830960 0.017520
vt 0.830960 0.742150
vt 0.647360 0.645750
vt 0.643050 0.769960
vt 0.413720 0.648900
vt 0.409440 0.773090
vt 0.170010 0.786110
vt 0.170010 0.001000
vt 0.005000 0.035770
vt 0.029390 0.035770
vt 0.128850 0.928670
vt 0.057170 0.939090
vt 0.291880 0.985890
vt 0.290630 0.040430
vt 0.291880 0.473070
vt 0.444450 0.405030
vt 0.599690 0.046570
vt 0.429010 0.022100
vt 0.703490 0.077160
vt 0.599380 0.405380
vt 0.835880 0.296590
vt 0.703200 0.435450
vt 0.708120 0.985890
vt 0.942830 0.939090
vt 0.793690 0.929790
vt 0.282100 0.868140
vt 0.435050 0.872130
vt 0.596110 0.878890
vt 0.400620 0.995200
vt 0.403890 0.984320
vt 0.302760 0.975640
vt 0.119190 0.941970
vt 0.296800 0.987820
vt 0.034080 0.146370
vt 0.171390 0.123920
vt 0.358720 0.102820
vt 0.590400 0.094220
vt 0.822920 0.108160
vt 0.028840 0.253370
vt 0.180140 0.250980
vt 0.375780 0.250590
vt 0.596870 0.245030
vt 0.812820 0.241040
vt 0.965790 0.240650
vt 0.209470 0.375700
vt 0.032800 0.384280
vt 0.103630 0.564490
vt 0.388170 0.371340
vt 0.244390 0.545380
vt 0.600040 0.373560
vt 0.406620 0.538840
vt 0.581190 0.541840
vt 0.764520 0.542480
vt 0.794220 0.373400
vt 0.900330 0.542340
vt 0.087270 0.754460
vt 0.317840 0.764960
vt 0.458810 0.783420
vt 0.547140 0.796780
vt 0.713940 0.787660
vt 0.900580 0.764630
vt 0.290630 0.977720
vt 0.429010 0.998370
vt 0.599690 1.000740
vt 0.703490 0.993330
vt 0.835880 0.947260
vt 0.980210 0.118970
vt 1.001040 0.109980
vt -0.001040 0.109980
vt 1.009090 0.234340
vt -0.009090 0.234340
vt 0.059120 0.202980
vt 0.953410 0.373990
vt 0.978490 0.542040
vt -0.000570 0.383250
vt 0.021510 0.542040
vt 0.065510 0.541950
vt 0.054260 0.763030
vt 0.880810 0.941970
vt 0.126390 0.936240
vt 0.057850 0.109890
vt 0.180900 0.109850
vt 0.409440 0.000530
vt 0.163020 0.001020
vt 0.643050 0.004170
vt 0.412280 0.104180
vt 0.825700 0.017800
vt 0.648220 0.107210
vt 0.850110 0.134970
vt 0.182860 0.204660
vt 0.411140 0.203780
vt 0.638310 0.199160
vt 0.952010 0.137330
vt 0.855450 0.211010
vt 0.195660 0.383160
vt 0.062210 0.382500
vt 0.414540 0.383050
vt 0.212980 0.542600
vt 0.408370 0.556400
vt 0.599050 0.563150
vt 0.642390 0.383110
vt 0.734740 0.563560
vt 0.826660 0.383470
vt 0.848060 0.565140
vt 0.085290 0.764100
vt 0.236200 0.779100
vt 0.408270 0.788690
vt 0.598930 0.768440
vt 0.751050 0.772440
vt 0.862720 0.755160
vt 0.564950 1.000750
vt 0.717900 0.985940
vt -0.000420 0.135950
vt 1.000420 0.135950
vt 0.958340 0.214700
vt 0.000990 0.245360
vt 0.922920 0.384830
vt 0.973630 0.574840
vt -0.000990 0.384260
vt 0.026370 0.574840
vt 0.015590 0.764780
vt 1.000570 0.383250
vt 0.999010 0.245360
vt 0.169040 0.017520
vt 0.995000 0.035770
vt 0.825700 0.859660
vt 0.163020 0.876870
vt 0.880810 0.649220
vt 0.945740 0.763030
vt 1.000990 0.384260
vt 0.984410 0.764780
vn 0.6691 -0.7357 -0.1051
vn 0.8501 -0.3786 0.3661
vn 0.4614 -0.3327 0.8224
vn 0.2542 -0.3110 0.9158
vn 0.1484 -0.8206 0.5519
vn 0.0633 -0.3082 0.9492
vn 0.0297 -0.8263 0.5625
vn -0.1632 -0.3398 0.9262
vn -0.1808 -0.7954 0.5785
vn -0.4796 -0.0868 0.8732
vn 0.1622 -0.7325 -0.6612
vn 0.3483 -0.8134 0.4659
vn -0.0931 -0.9473 -0.3065
vn -0.0665 -0.9317 -0.3571
vn -0.8379 -0.4932 0.2337
vn -0.4505 -0.6712 -0.5887
vn 0.7543 0.5745 0.3179
vn 0.7513 0.4339 -0.4972
vn 0.3316 0.8834 -0.3312
vn 0.5126 0.7565 0.4062
vn 0.0512 0.9322 -0.3584
vn -0.0017 0.9415 0.3370
vn 0.2350 0.9001 0.3668
vn -0.2987 0.8796 0.3703
vn -0.1108 0.9009 -0.4197
vn -0.6544 0.6655 0.3591
vn -0.2915 0.8793 -0.3767
vn 0.0425 0.1187 -0.9920
vn 0.3151 0.4927 -0.8112
vn -0.1022 0.5221 -0.8467
vn -0.2079 0.4346 -0.8763
vn -0.2745 0.4339 -0.8581
vn -0.7849 0.6135 -0.0869
vn 0.7685 0.0749 0.6354
vn 0.4383 0.1150 0.8914
vn 0.2663 0.1212 0.9563
vn 0.0867 0.0916 0.9920
vn -0.0967 0.0709 0.9928
vn 0.7930 0.1237 0.5965
vn 0.4224 0.1621 0.8918
vn 0.3013 0.1291 0.9448
vn 0.1010 0.1402 0.9850
vn -0.0876 0.1657 0.9823
vn -0.5340 0.1756 0.8271
vn 0.4730 0.2005 0.8580
vn 0.8326 0.1951 0.5184
vn 0.8096 0.2059 0.5497
vn 0.2917 0.1810 0.9392
vn 0.5369 0.2483 0.8063
vn 0.0644 0.1957 0.9785
vn 0.3224 0.2637 0.9091
vn 0.0980 0.2555 0.9618
vn -0.1513 0.2728 0.9501
vn -0.1061 0.2175 0.9703
vn -0.4841 0.2943 0.8240
vn 0.7976 0.2433 0.5520
vn 0.4246 0.3116 0.8500
vn 0.4003 0.2792 0.8728
vn 0.2495 0.3175 0.9148
vn -0.2070 0.3530 0.9124
vn -0.6797 0.3380 0.6510
vn -0.5754 0.0660 0.8152
vn -0.9795 -0.0756 -0.1866
vn -0.9865 -0.0395 -0.1592
vn -0.4015 -0.2477 -0.8817
vn -0.5581 0.2306 0.7970
vn -0.9812 0.1199 0.1510
vn -0.9882 -0.0348 -0.1491
vn -0.7183 -0.2478 -0.6501
vn -0.9926 0.1198 0.0188
vn -0.6589 0.2666 -0.7034
vn -0.3156 -0.2299 -0.9206
vn -0.0888 -0.3569 -0.9299
vn -0.1941 -0.9249 -0.3268
vn -0.1423 -0.4513 -0.8809
vn 0.0022 -0.9269 -0.3753
vn -0.2117 -0.4370 -0.8742
vn -0.2422 -0.3399 -0.9087
vn -0.2187 -0.3451 -0.9127
vn -0.1704 -0.4156 -0.8934
vn -0.1770 -0.4226 -0.8889
vn 0.0481 -0.3670 -0.9290
vn -0.1974 -0.3728 -0.9067
vn -0.3459 -0.3650 -0.8643
vn -0.5258 -0.2994 -0.7962
vn -0.2216 -0.4108 -0.8844
vn -0.3261 -0.3772 -0.8668
vn -0.2596 -0.3735 -0.8906
vn -0.2639 -0.3898 -0.8823
vn -0.1599 -0.4404 -0.8834
vn -0.1702 -0.4032 -0.8991
vn -0.0544 -0.4465 -0.8931
vn 0.1513 -0.3732 -0.9153
vn -0.7327 -0.2232 -0.6429
vn -0.2498 -0.3291 -0.9107
vn -0.2187 -0.2889 -0.9321
vn -0.2284 -0.2790 -0.9327
vn -0.0755 -0.2841 -0.9558
vn 0.2640 -0.2843 -0.9217
vn 0.8999 -0.2517 -0.3561
vn 0.1665 -0.3156 -0.9342
vn 0.9181 -0.1005 -0.3835
vn 0.0837 -0.3911 -0.9165
vn 0.9063 -0.1226 -0.4044
vn 0.7845 -0.1997 -0.5871
vn 0.9256 -0.0531 -0.3748
usemtl teeths
s 1
f 1/1/1 2/2/2 3/3/3
f 3/3/3 4/4/4 5/5/5
f 4/4/4 6/6/6 7/7/7
f 7/7/7 6/6/6 8/8/8
f 9/9/9 8/8/8 10/10/10
f 11/11/11 1/12/1 12/13/12
f 12/14/12 5/15/5 13/16/13
f 13/16/13 5/15/5 7/17/7
f 14/18/14 7/17/7 9/19/9
f 9/20/9 15/21/15 16/22/16
f 17/23/17 18/24/18 19/25/19
f 20/26/20 19/27/19 21/28/21
f 22/29/22 23/30/23 21/28/21
f 24/31/24 22/29/22 25/32/25
f 26/33/26 24/31/24 27/34/27
f 19/35/19 18/36/18 28/37/28
f 19/27/19 29/38/29 30/39/30
f 21/28/21 30/39/30 31/40/31
f 25/41/25 31/42/31 32/43/32
f 33/44/33 27/45/27 32/43/32
f 2/2/2 34/46/34 35/47/35
f 3/3/3 35/47/35 36/48/36
f 6/6/6 4/4/4 36/48/36
f 8/8/8 6/6/6 37/49/37
f 10/10/10 8/8/8 38/50/38
f 34/46/34 39/51/39 40/52/40
f 36/48/36 35/47/35 40/52/40
f 37/49/37 36/48/36 41/53/41
f 38/50/38 37/49/37 42/54/42
f 38/50/38 43/55/43 44/56/44
f 45/57/45 46/58/46 47/59/47
f 48/60/48 45/57/45 49/61/49
f 50/62/50 48/60/48 51/63/51
f 50/62/50 52/64/52 53/65/53
f 54/66/54 53/65/53 55/67/55
f 49/61/49 47/59/47 56/68/56
f 51/63/51 49/61/49 57/69/57
f 52/64/52 51/63/51 58/70/58
f 52/64/52 59/71/59 60/72/60
f 53/65/53 60/72/60 61/73/61
f 57/69/57 56/68/56 17/23/17
f 58/70/58 57/69/57 20/74/20
f 59/71/59 58/70/58 23/75/23
f 59/71/59 22/76/22 24/77/24
f 60/72/60 24/77/24 26/78/26
f 10/10/10 62/79/62 63/80/63
f 16/22/16 15/21/15 63/81/63
f 62/79/62 44/56/44 64/82/64
f 63/81/63 64/83/64 65/84/65
f 66/85/66 55/67/55 67/86/67
f 68/87/68 67/88/67 69/89/69
f 67/86/67 55/67/55 61/73/61
f 69/89/69 67/88/67 70/90/70
f 61/73/61 26/78/26 33/91/33
f 70/90/70 33/44/33 71/92/71
f 16/22/16 72/93/72 73/94/73
f 14/95/14 74/96/74 73/94/73
f 13/97/13 14/95/14 75/98/75
f 76/99/76 13/97/13 77/100/77
f 11/11/11 76/99/76 78/101/78
f 73/94/73 72/93/72 65/84/65
f 73/94/73 79/102/79 80/103/80
f 75/98/75 80/103/80 81/104/81
f 78/101/78 77/100/77 81/104/81
f 82/105/82 78/101/78 83/106/83
f 84/107/84 85/108/85 69/89/69
f 86/109/86 84/107/84 87/110/87
f 86/109/86 88/111/88 89/112/89
f 90/113/90 89/112/89 91/114/91
f 92/115/92 91/114/91 93/116/93
f 87/110/87 69/89/69 94/117/94
f 88/111/88 87/110/87 95/118/95
f 88/111/88 96/119/96 97/120/97
f 91/114/91 89/112/89 97/120/97
f 91/114/91 98/121/98 99/122/99
f 95/118/95 94/117/94 71/92/71
f 96/119/96 95/118/95 32/43/32
f 96/119/96 31/42/31 30/123/30
f 97/120/97 30/123/30 29/124/29
f 98/121/98 29/124/29 28/37/28
f 1/12/1 11/11/11 82/105/82
f 2/2/2 1/1/1 100/125/100
f 100/126/100 82/105/82 101/127/101
f 34/46/34 100/125/100 102/128/102
f 103/129/103 93/116/93 104/130/104
f 46/58/46 105/131/105 104/132/104
f 104/130/104 93/116/93 99/122/99
f 104/132/104 106/133/106 56/68/56
f 99/122/99 28/37/28 18/36/18
f 106/133/106 18/24/18 17/23/17
f 40/52/40 39/51/39 46/58/46
f 41/53/41 40/52/40 45/57/45
f 42/54/42 41/53/41 48/60/48
f 54/66/54 43/55/43 42/54/42
f 66/85/66 44/56/44 43/55/43
f 68/134/68 64/82/64 44/56/44
f 85/108/85 65/84/65 64/83/64
f 79/102/79 65/84/65 85/108/85
f 80/103/80 79/102/79 84/107/84
f 90/113/90 81/104/81 80/103/80
f 83/106/83 81/104/81 90/113/90
f 103/129/103 101/127/101 83/106/83
f 102/135/102 101/127/101 103/129/103
f 39/51/39 102/128/102 105/131/105
f 1/1/1 3/3/3 12/136/12
f 3/3/3 5/5/5 12/136/12
f 4/4/4 7/7/7 5/5/5
f 7/7/7 8/8/8 9/9/9
f 9/9/9 10/10/10 15/137/15
f 11/11/11 12/13/12 76/99/76
f 12/14/12 13/16/13 76/138/76
f 13/16/13 7/17/7 14/18/14
f 14/18/14 9/19/9 74/139/74
f 9/20/9 16/22/16 74/96/74
f 17/23/17 19/25/19 20/74/20
f 20/26/20 21/28/21 23/30/23
f 22/29/22 21/28/21 25/32/25
f 24/31/24 25/32/25 27/34/27
f 26/33/26 27/34/27 33/140/33
f 19/35/19 28/37/28 29/124/29
f 19/27/19 30/39/30 21/28/21
f 21/28/21 31/40/31 25/32/25
f 25/41/25 32/43/32 27/45/27
f 33/44/33 32/43/32 71/92/71
f 2/2/2 35/47/35 3/3/3
f 3/3/3 36/48/36 4/4/4
f 6/6/6 36/48/36 37/49/37
f 8/8/8 37/49/37 38/50/38
f 10/10/10 38/50/38 62/79/62
f 34/46/34 40/52/40 35/47/35
f 36/48/36 40/52/40 41/53/41
f 37/49/37 41/53/41 42/54/42
f 38/50/38 42/54/42 43/55/43
f 38/50/38 44/56/44 62/79/62
f 45/57/45 47/59/47 49/61/49
f 48/60/48 49/61/49 51/63/51
f 50/62/50 51/63/51 52/64/52
f 50/62/50 53/65/53 54/66/54
f 54/66/54 55/67/55 66/85/66
f 49/61/49 56/68/56 57/69/57
f 51/63/51 57/69/57 58/70/58
f 52/64/52 58/70/58 59/71/59
f 52/64/52 60/72/60 53/65/53
f 53/65/53 61/73/61 55/67/55
f 57/69/57 17/23/17 20/74/20
f 58/70/58 20/74/20 23/75/23
f 59/71/59 23/75/23 22/76/22
f 59/71/59 24/77/24 60/72/60
f 60/72/60 26/78/26 61/73/61
f 10/10/10 63/80/63 15/137/15
f 16/22/16 63/81/63 72/93/72
f 62/79/62 64/82/64 63/80/63
f 63/81/63 65/84/65 72/93/72
f 66/85/66 67/86/67 68/134/68
f 68/87/68 69/89/69 85/108/85
f 67/86/67 61/73/61 70/141/70
f 69/89/69 70/90/70 94/117/94
f 61/73/61 33/91/33 70/141/70
f 70/90/70 71/92/71 94/117/94
f 16/22/16 73/94/73 74/96/74
f 14/95/14 73/94/73 75/98/75
f 13/97/13 75/98/75 77/100/77
f 76/99/76 77/100/77 78/101/78
f 11/11/11 78/101/78 82/105/82
f 73/94/73 65/84/65 79/102/79
f 73/94/73 80/103/80 75/98/75
f 75/98/75 81/104/81 77/100/77
f 78/101/78 81/104/81 83/106/83
f 82/105/82 83/106/83 101/127/101
f 84/107/84 69/89/69 87/110/87
f 86/109/86 87/110/87 88/111/88
f 86/109/86 89/112/89 90/113/90
f 90/113/90 91/114/91 92/115/92
f 92/115/92 93/116/93 103/129/103
f 87/110/87 94/117/94 95/118/95
f 88/111/88 95/118/95 96/119/96
f 88/111/88 97/120/97 89/112/89
f 91/114/91 97/120/97 98/121/98
f 91/114/91 99/122/99 93/116/93
f 95/118/95 71/92/71 32/43/32
f 96/119/96 32/43/32 31/42/31
f 96/119/96 30/123/30 97/120/97
f 97/120/97 29/124/29 98/121/98
f 98/121/98 28/37/28 99/122/99
f 1/12/1 82/105/82 100/126/100
f 2/2/2 100/125/100 34/46/34
f 100/126/100 101/127/101 102/135/102
f 34/46/34 102/128/102 39/51/39
f 103/129/103 104/130/104 105/142/105
f 46/58/46 104/132/104 47/59/47
f 104/130/104 99/122/99 106/143/106
f 104/132/104 56/68/56 47/59/47
f 99/122/99 18/36/18 106/143/106
f 106/133/106 17/23/17 56/68/56
f 40/52/40 46/58/46 45/57/45
f 41/53/41 45/57/45 48/60/48
f 42/54/42 48/60/48 50/62/50
f 54/66/54 42/54/42 50/62/50
f 66/85/66 43/55/43 54/66/54
f 68/134/68 44/56/44 66/85/66
f 85/108/85 64/83/64 68/87/68
f 79/102/79 85/108/85 84/107/84
f 80/103/80 84/107/84 86/109/86
f 90/113/90 80/103/80 86/109/86
f 83/106/83 90/113/90 92/115/92
f 103/129/103 83/106/83 92/115/92
f 102/135/102 103/129/103 105/142/105
f 39/51/39 105/131/105 46/58/46
