# Blender v2.79 (sub 0) OBJ File: ''
# www.blender.org
mtllib teeth37.mtl
o Box37
v 0.588287 -0.547510 -0.506804
v 0.659325 -0.531857 -0.554871
v 0.639828 -0.563346 -0.455314
v 0.705416 -0.535819 -0.541211
v 0.683929 -0.569928 -0.433383
v 0.825134 -0.552122 -0.486644
v 0.768520 -0.561775 -0.457309
v 0.608911 -0.524952 -0.577967
v 0.683932 -0.498238 -0.661068
v 0.747736 -0.498016 -0.660292
v 0.843643 -0.495959 -0.664590
v 0.849713 -0.512198 -0.612873
v 0.648966 -0.473911 -0.739141
v 0.605765 -0.494374 -0.675154
v 0.703429 -0.466747 -0.760621
v 0.818757 -0.481690 -0.710483
v 0.853357 -0.528870 -0.559841
v 0.766049 -0.465735 -0.762379
v 0.617915 -0.160538 -0.394266
v 0.686767 -0.152035 -0.462377
v 0.647061 -0.158789 -0.454515
v 0.701591 -0.197554 -0.381267
v 0.674223 -0.185460 -0.351475
v 0.758499 -0.160450 -0.349491
v 0.785651 -0.123216 -0.410198
v 0.719701 -0.172043 -0.455922
v 0.636695 -0.121979 -0.549132
v 0.710900 -0.121888 -0.575877
v 0.824330 -0.174537 -0.501764
v 0.819026 -0.086476 -0.534325
v 0.762510 -0.107550 -0.576216
v 0.663220 -0.111134 -0.589933
v 0.727373 -0.105326 -0.605824
v 0.787930 -0.103161 -0.585708
v 0.766967 -0.089223 -0.597443
v 0.565624 -0.411231 -0.444555
v 0.621406 -0.429662 -0.384718
v 0.696388 -0.438561 -0.354710
v 0.613608 -0.316226 -0.334023
v 0.558655 -0.289301 -0.395246
v 0.796172 -0.428945 -0.382933
v 0.708111 -0.326640 -0.299269
v 0.608833 -0.188412 -0.294533
v 0.563367 -0.174704 -0.358077
v 0.680237 -0.230645 -0.274364
v 0.815621 -0.316278 -0.329674
v 0.887954 -0.371921 -0.561903
v 0.873310 -0.389636 -0.505978
v 0.850903 -0.334252 -0.682396
v 0.883013 -0.352439 -0.623887
v 0.858394 -0.415899 -0.422917
v 0.872000 -0.253812 -0.526764
v 0.914341 -0.274977 -0.458554
v 0.879469 -0.214501 -0.651434
v 0.908422 -0.234342 -0.587745
v 0.835771 -0.164539 -0.333243
v 0.807428 -0.186347 -0.293290
v 0.840870 -0.185298 -0.499615
v 0.840224 -0.123648 -0.425202
v 0.851928 -0.096349 -0.619458
v 0.881654 -0.095885 -0.550734
v 0.788727 -0.315432 -0.743612
v 0.696431 -0.315716 -0.744860
v 0.637201 -0.324412 -0.718618
v 0.827900 -0.194985 -0.714611
v 0.709685 -0.170030 -0.711643
v 0.630447 -0.178639 -0.686150
v 0.779584 -0.060170 -0.654198
v 0.640482 -0.081167 -0.653354
v 0.717120 -0.083054 -0.632879
v 0.586238 -0.348552 -0.643138
v 0.592894 -0.371344 -0.570598
v 0.579695 -0.197936 -0.626041
v 0.632539 -0.242556 -0.541985
v 0.589638 -0.119713 -0.598015
v 0.619758 -0.166761 -0.489614
v 0.782197 -0.163935 -0.335692
v 0.879238 -0.302391 -0.372303
vt 0.903210 0.230300
vt 0.718150 0.376880
vt 0.718150 0.128660
vt 0.571690 0.363990
vt 0.572810 0.094980
vt 0.180080 0.284530
vt 0.332840 0.189320
vt 0.883120 0.410630
vt 0.706700 0.643310
vt 0.514640 0.669130
vt 0.229160 0.721110
vt 0.180500 0.599190
vt 0.857630 0.816160
vt 0.949730 0.643310
vt 0.706700 0.891530
vt 0.330870 0.820830
vt 0.138370 0.473060
vt 0.519680 0.922940
vt 0.189270 0.264600
vt 0.357990 0.449200
vt 0.243960 0.410270
vt 0.246380 0.876580
vt 0.449200 0.921860
vt 0.177770 0.925430
vt 0.773100 0.981830
vt 0.602710 1.022230
vt 0.564680 0.880800
vt 0.156130 0.638550
vt 0.463390 0.435320
vt 0.364560 0.729010
vt 0.753270 0.578870
vt 0.706620 0.708920
vt 0.517290 0.761830
vt 0.212120 0.746800
vt 0.395380 0.813140
vt 0.587870 0.796560
vt 0.516470 0.822920
vt 0.281850 0.000500
vt 0.042180 0.352250
vt 0.096790 0.000500
vt 0.427190 0.000500
vt 0.244890 0.352250
vt 0.667160 0.000500
vt 0.487710 0.352250
vt 0.232070 0.644060
vt 0.029830 0.662210
vt 0.770770 0.352250
vt 0.536330 0.643690
vt 0.220130 0.960270
vt 0.047100 0.946820
vt 0.451820 0.878210
vt 0.841300 0.643690
vt 0.819920 0.000500
vt 0.473060 0.000500
vt 0.601140 0.352250
vt 0.460110 0.352250
vt 0.721110 0.000500
vt 0.875240 0.352250
vt 0.748270 0.352250
vt 0.934120 0.352250
vt 0.599160 0.643690
vt 0.453270 0.643690
vt 0.902640 0.643690
vt 0.761830 0.643690
vt 0.100050 0.643690
vt 0.221620 0.982870
vt 0.106850 0.962530
vt -0.061980 0.643690
vt 0.194280 0.817910
vt 0.165090 1.009700
vt 0.902640 0.933170
vt 0.765200 0.982500
vt 0.330870 0.000500
vt 0.463710 0.352250
vt 0.240980 0.352250
vt 0.519680 0.000500
vt 0.741620 0.352250
vt 0.706700 0.000500
vt 0.904060 0.352250
vt 0.348200 0.643690
vt 0.156190 0.643690
vt 0.705440 0.704000
vt 0.928410 0.704000
vt 0.239150 0.933170
vt 0.480660 0.991260
vt 0.894980 0.946820
vt 0.653380 0.955840
vt 0.183840 0.000500
vt 0.334160 0.352250
vt 0.130270 0.352250
vt 0.356690 0.000500
vt 0.505970 0.352250
vt 0.589370 0.000500
vt 0.821350 0.352250
vt 0.270080 0.704000
vt 0.103290 0.704000
vt 0.462420 0.662210
vt 0.847870 0.662210
vt 0.273010 0.900050
vt 0.103290 0.946820
vt 0.530090 0.870440
vt 0.220130 0.022970
vt 0.047100 0.152130
vt -0.019840 0.878210
vt 0.022970 0.960270
vt 0.451820 -0.019840
vt 0.635850 0.226900
vt 0.453180 0.246380
vt 0.817100 0.106850
vt 0.715030 0.204430
vt 0.246730 0.840910
vt 0.320980 1.022230
vt 0.293380 1.016390
vt 0.112720 0.982500
vt 0.519340 0.972770
vt 0.760850 0.902640
vt 0.346620 0.883430
vt -0.012030 0.726990
vt 0.105020 0.896710
vt 0.361450 0.928870
vt 0.144120 0.469910
vt 0.284530 0.000500
vt 0.253600 0.352250
vt 0.230320 0.643690
vt 0.877380 0.221620
vt 0.679020 0.397290
vt 0.599190 0.000500
vt 0.573810 0.817910
vt 0.805720 0.817910
vt 0.706620 1.016390
vt 0.753270 0.840910
vt 0.385300 0.177770
vt 0.435320 0.880800
vt 0.753620 0.876580
vt 0.795570 0.983380
vt 0.817100 0.962530
vt 0.820830 0.000500
vt 1.007280 0.643690
vt 0.105290 0.643690
vt 0.857630 0.000500
vt 0.769700 0.000500
vt 0.847870 0.946820
vt 0.412130 0.942820
vt 0.589730 0.912870
vt 0.453270 1.009700
vt 0.834910 0.453270
vt 0.887280 0.982500
vn 0.0070 -0.9538 -0.3003
vn 0.0070 -0.9538 -0.3004
vn -0.0631 0.9902 0.1248
vn 0.2278 0.9232 0.3094
vn -0.2274 0.9701 0.0849
vn 0.0219 0.9593 0.2814
vn 0.4453 0.8273 0.3424
vn -0.3876 0.8492 0.3586
vn -0.2525 0.9676 0.0046
vn 0.0397 0.9741 0.2224
vn -0.1917 0.9198 0.3424
vn -0.0409 0.9179 0.3947
vn 0.1538 0.9243 0.3492
vn -0.1910 0.8043 0.5627
vn -0.2289 0.8413 0.4897
vn -0.0263 0.9180 0.3956
vn -0.1906 0.7992 0.5701
vn -0.0253 0.9802 0.1964
vn -0.0551 0.8259 0.5612
vn -0.3989 -0.8727 0.2817
vn -0.9583 -0.2058 0.1984
vn -0.7173 -0.6949 -0.0507
vn -0.0699 -0.8940 0.4425
vn -0.5754 -0.3994 0.7138
vn 0.2453 -0.9124 0.3276
vn -0.0499 -0.4767 0.8777
vn -0.5847 -0.3122 0.7487
vn -0.9879 -0.0399 0.1500
vn 0.4135 -0.4708 0.7793
vn 0.0000 -0.3456 0.9384
vn -0.3433 0.5006 0.7947
vn -0.7968 0.5644 0.2159
vn -0.0800 0.2261 0.9708
vn 0.4515 -0.2951 0.8420
vn 0.5437 -0.8162 0.1955
vn 0.6743 -0.7310 -0.1052
vn 0.9968 -0.0580 0.0541
vn 0.9741 -0.2071 0.0912
vn 0.6261 -0.6627 -0.4110
vn 0.7921 -0.0573 -0.6077
vn 0.9603 -0.0998 -0.2605
vn 0.8031 -0.4012 0.4406
vn 0.9889 0.1371 0.0579
vn 0.9937 0.0829 -0.0759
vn 0.8611 0.1364 -0.4898
vn 0.9977 -0.0048 0.0683
vn 0.5827 0.5796 0.5697
vn 0.3615 0.3775 0.8525
vn 0.8510 0.5033 0.1496
vn 0.4672 0.8775 -0.1081
vn 0.5887 0.7455 -0.3125
vn 0.7172 0.6337 0.2899
vn 0.5305 -0.6079 -0.5908
vn 0.3644 0.0858 -0.9273
vn 0.2596 -0.4809 -0.8374
vn -0.2085 0.1573 -0.9653
vn -0.1411 -0.5084 -0.8495
vn -0.6399 0.0842 -0.7638
vn 0.4781 0.2581 -0.8395
vn -0.1241 0.3762 -0.9182
vn -0.5861 0.2450 -0.7723
vn 0.0883 0.9462 -0.3113
vn -0.3571 0.8641 -0.3548
vn -0.1875 0.9823 0.0016
vn -0.4530 -0.5187 -0.7251
vn -0.9828 0.0107 -0.1842
vn -0.6924 -0.6130 -0.3806
vn -0.9947 0.0647 -0.0803
vn -0.6174 -0.7231 -0.3098
vn -0.9937 0.0701 -0.0871
vn -0.9974 0.0639 0.0330
vn -0.8282 0.5531 0.0904
vn -0.8766 0.4800 0.0333
vn -0.1125 0.8545 0.5071
vn 0.7965 -0.1563 0.5841
vn 0.6186 -0.7321 -0.2852
usemtl teeths
s off
f 1/1/1 2/2/1 3/3/1
f 3/3/1 4/4/1 5/5/1
f 4/4/1 6/6/1 7/7/1
f 8/8/1 9/9/1 2/2/1
f 9/9/1 4/4/1 2/2/1
f 10/10/1 11/11/1 12/12/1
f 13/13/1 9/9/1 14/14/1
f 15/15/1 10/10/1 9/9/1
f 10/10/2 16/16/2 11/11/2
f 1/1/1 8/8/1 2/2/1
f 3/3/1 2/2/1 4/4/1
f 7/7/1 5/5/1 4/4/1
f 4/4/1 17/17/1 6/6/1
f 8/8/1 14/14/1 9/9/1
f 9/9/1 10/10/1 4/4/1
f 17/17/1 4/4/1 12/12/1
f 4/4/1 10/10/1 12/12/1
f 13/13/1 15/15/1 9/9/1
f 15/15/1 18/18/1 10/10/1
f 10/10/1 18/18/1 16/16/1
s 1
f 19/19/3 20/20/4 21/21/5
f 22/22/6 20/23/4 23/24/7
f 24/25/8 25/26/9 26/27/10
f 20/20/4 27/28/11 21/21/5
f 26/29/10 28/30/12 20/20/4
f 29/31/13 30/32/14 31/33/15
f 28/30/12 32/34/16 27/28/11
f 31/33/15 33/35/17 28/30/12
f 31/33/15 34/36/18 35/37/19
f 3/38/20 36/39/21 1/40/22
f 5/41/23 37/42/24 3/38/20
f 7/43/25 38/44/26 5/41/23
f 36/39/21 39/45/27 40/46/28
f 38/44/26 39/45/27 37/42/24
f 41/47/29 42/48/30 38/44/26
f 40/46/28 43/49/31 44/50/32
f 39/45/27 45/51/33 43/49/31
f 46/52/34 45/51/33 42/48/30
f 6/53/35 41/47/29 7/43/25
f 17/54/36 47/55/37 48/56/38
f 11/57/39 49/58/40 50/59/41
f 51/60/42 46/52/34 41/47/29
f 48/56/38 52/61/43 53/62/44
f 50/59/41 54/63/45 55/64/46
f 46/65/34 56/66/47 57/67/48
f 53/68/44 58/69/49 59/70/50
f 55/64/46 60/71/51 61/72/52
f 16/73/53 62/74/54 49/75/40
f 18/76/55 63/77/56 62/74/54
f 15/78/57 64/79/58 63/77/56
f 49/75/40 65/80/59 54/81/45
f 62/74/54 66/82/60 65/80/59
f 63/77/56 67/83/61 66/82/60
f 65/80/59 60/84/51 54/81/45
f 66/82/60 68/85/62 65/80/59
f 66/82/60 69/86/63 70/87/64
f 13/88/65 71/89/66 64/90/58
f 14/91/67 72/92/68 71/89/66
f 8/93/69 36/94/21 72/92/68
f 64/90/58 73/95/70 67/96/61
f 71/89/66 74/97/71 73/95/70
f 72/92/68 40/98/28 74/97/71
f 67/96/61 75/99/72 69/100/63
f 74/97/71 75/99/72 73/95/70
f 40/98/28 76/101/73 74/97/71
f 43/102/31 19/19/3 44/103/32
f 45/104/33 23/24/7 43/105/31
f 45/106/33 24/107/8 22/108/6
f 57/109/48 77/110/74 24/107/8
f 59/70/50 29/111/13 25/112/9
f 60/84/51 30/113/14 61/114/52
f 68/115/62 34/36/18 60/116/51
f 70/117/64 35/37/19 68/115/62
f 70/117/64 32/34/16 33/35/17
f 75/118/72 32/34/16 69/119/63
f 76/101/73 27/120/11 75/99/72
f 76/121/73 19/19/3 21/21/5
f 6/122/35 48/56/38 51/123/42
f 51/123/42 53/62/44 78/124/75
f 53/62/44 56/66/47 78/124/75
f 56/125/47 25/126/9 77/110/74
f 12/127/76 50/59/41 47/55/37
f 50/59/41 52/61/43 47/55/37
f 55/64/46 58/128/49 52/61/43
f 58/129/49 30/130/14 29/131/13
f 19/19/3 23/132/7 20/20/4
f 22/22/6 26/133/10 20/23/4
f 26/27/10 22/134/6 24/25/8
f 24/25/8 77/135/74 25/26/9
f 20/20/4 28/30/12 27/28/11
f 26/29/10 31/33/15 28/30/12
f 31/33/15 26/29/10 29/31/13
f 26/29/10 25/126/9 29/31/13
f 28/30/12 33/35/17 32/34/16
f 31/33/15 35/37/19 33/35/17
f 31/33/15 30/32/14 34/36/18
f 3/38/20 37/42/24 36/39/21
f 5/41/23 38/44/26 37/42/24
f 7/43/25 41/47/29 38/44/26
f 36/39/21 37/42/24 39/45/27
f 38/44/26 42/48/30 39/45/27
f 41/47/29 46/52/34 42/48/30
f 40/46/28 39/45/27 43/49/31
f 39/45/27 42/48/30 45/51/33
f 46/52/34 57/136/48 45/51/33
f 6/53/35 51/60/42 41/47/29
f 17/54/36 12/127/76 47/55/37
f 11/57/39 16/137/53 49/58/40
f 51/60/42 78/138/75 46/52/34
f 48/56/38 47/55/37 52/61/43
f 50/59/41 49/58/40 54/63/45
f 46/65/34 78/124/75 56/66/47
f 53/68/44 52/139/43 58/69/49
f 55/64/46 54/63/45 60/71/51
f 16/73/53 18/76/55 62/74/54
f 18/76/55 15/78/57 63/77/56
f 15/78/57 13/140/65 64/79/58
f 49/75/40 62/74/54 65/80/59
f 62/74/54 63/77/56 66/82/60
f 63/77/56 64/79/58 67/83/61
f 65/80/59 68/85/62 60/84/51
f 66/82/60 70/87/64 68/85/62
f 66/82/60 67/83/61 69/86/63
f 13/88/65 14/91/67 71/89/66
f 14/91/67 8/93/69 72/92/68
f 8/93/69 1/141/22 36/94/21
f 64/90/58 71/89/66 73/95/70
f 71/89/66 72/92/68 74/97/71
f 72/92/68 36/94/21 40/98/28
f 67/96/61 73/95/70 75/99/72
f 74/97/71 76/101/73 75/99/72
f 40/98/28 44/142/32 76/101/73
f 43/102/31 23/132/7 19/19/3
f 45/104/33 22/22/6 23/24/7
f 45/106/33 57/109/48 24/107/8
f 57/109/48 56/125/47 77/110/74
f 59/70/50 58/69/49 29/111/13
f 60/84/51 34/143/18 30/113/14
f 68/115/62 35/37/19 34/36/18
f 70/117/64 33/35/17 35/37/19
f 70/117/64 69/119/63 32/34/16
f 75/118/72 27/28/11 32/34/16
f 76/101/73 21/144/5 27/120/11
f 76/121/73 44/103/32 19/19/3
f 6/122/35 17/54/36 48/56/38
f 51/123/42 48/56/38 53/62/44
f 53/62/44 59/145/50 56/66/47
f 56/125/47 59/146/50 25/126/9
f 12/127/76 11/57/39 50/59/41
f 50/59/41 55/64/46 52/61/43
f 55/64/46 61/72/52 58/128/49
f 58/129/49 61/147/52 30/130/14
