# Blender v2.79 (sub 0) OBJ File: ''
# www.blender.org
mtllib teeth14.mtl
o Box14
v -0.599623 0.822008 0.257073
v -0.649313 0.810964 0.226620
v -0.637084 0.834818 0.290102
v -0.682286 0.814611 0.235485
v -0.668776 0.840447 0.304243
v -0.728493 0.835328 0.289241
v -0.597065 0.805404 0.213156
v -0.665066 0.785543 0.158918
v -0.710415 0.786220 0.159617
v -0.763327 0.812267 0.227328
v -0.638946 0.766449 0.108970
v -0.609293 0.781548 0.149675
v -0.677294 0.761686 0.095435
v -0.760060 0.774663 0.127808
v -0.771811 0.790620 0.169791
v -0.721760 0.761744 0.094514
v -0.609395 0.392870 0.407804
v -0.641708 0.313197 0.398643
v -0.609264 0.299113 0.408530
v -0.645702 0.390981 0.420999
v -0.642335 0.415189 0.423363
v -0.687153 0.366878 0.448049
v -0.677779 0.320180 0.407149
v -0.620902 0.352592 0.331824
v -0.656632 0.335332 0.316321
v -0.713257 0.259610 0.411106
v -0.693277 0.336851 0.312923
v -0.638495 0.335662 0.289596
v -0.667912 0.320787 0.298609
v -0.717979 0.317328 0.298885
v -0.702883 0.314728 0.289008
v -0.585956 0.671049 0.326735
v -0.626567 0.685906 0.365106
v -0.680333 0.693716 0.384501
v -0.632411 0.560485 0.422068
v -0.592437 0.536746 0.384363
v -0.750775 0.687677 0.366806
v -0.690744 0.569809 0.444784
v -0.606177 0.427881 0.456198
v -0.571419 0.380006 0.439217
v -0.647848 0.437218 0.475697
v -0.766637 0.563302 0.425721
v -0.791863 0.660477 0.293774
v -0.784779 0.615887 0.175842
v -0.801870 0.634945 0.225901
v -0.810907 0.533996 0.347035
v -0.806754 0.486205 0.220555
v -0.821689 0.506484 0.273911
v -0.722863 0.378464 0.486752
v -0.770279 0.274605 0.404246
v -0.764338 0.278373 0.434129
v -0.762862 0.314231 0.276726
v -0.739599 0.600649 0.136572
v -0.673999 0.599640 0.135476
v -0.641721 0.605470 0.151774
v -0.769085 0.470574 0.180066
v -0.638870 0.447453 0.202480
v -0.685380 0.441956 0.186723
v -0.711021 0.289356 0.254956
v -0.621722 0.345737 0.256759
v -0.670508 0.287923 0.253081
v -0.606741 0.623279 0.199789
v -0.582938 0.651461 0.274932
v -0.601186 0.466640 0.254209
v -0.589186 0.515645 0.328548
v -0.565811 0.351021 0.377303
v -0.584332 0.332389 0.320772
v -0.702566 0.334849 0.435048
vt 0.800920 0.223110
vt 0.621380 0.370590
vt 0.621380 0.120860
vt 0.479300 0.357630
vt 0.480380 0.086970
vt 0.247580 0.181880
vt 0.846050 0.388920
vt 0.610280 0.638660
vt 0.423950 0.664630
vt 0.153750 0.439920
vt 0.756700 0.812570
vt 0.846050 0.638660
vt 0.610280 0.888390
vt 0.245670 0.817260
vt 0.164390 0.664630
vt 0.428840 0.919990
vt 0.177240 0.812110
vt 0.318150 0.939890
vt 0.133790 1.026150
vt 0.334280 0.824130
vt 0.367420 0.785200
vt 0.553470 0.882100
vt 0.473640 0.934140
vt 0.681850 0.939890
vt 0.854920 0.888680
vt 0.866210 1.026150
vt 0.526360 0.934140
vt 0.670110 0.851270
vt 0.598040 0.934140
vt 0.512440 1.038310
vt 0.294400 0.847150
vt 0.329890 0.672590
vt 0.199400 0.742780
vt 0.145080 0.633860
vt 0.478060 0.705600
vt 0.359790 0.757230
vt 0.207160 0.871270
vt 0.180630 0.869160
vt 0.378620 0.000500
vt 0.146100 0.296250
vt 0.199080 0.000500
vt 0.519620 0.000500
vt 0.342760 0.296250
vt 0.752420 0.000500
vt 0.578330 0.296250
vt 0.330320 0.541600
vt 0.134120 0.556860
vt 0.852940 0.296250
vt 0.625500 0.541290
vt 0.207170 0.784110
vt 0.039310 0.852810
vt 0.431940 0.781490
vt 0.921360 0.541290
vt 0.181880 0.000500
vt 0.426890 0.296250
vt 0.122510 0.296250
vt 0.664630 0.000500
vt 0.439920 0.000500
vt 0.872000 0.296250
vt 0.691960 0.296250
vt 0.092070 0.541290
vt 0.420010 0.541290
vt 0.899580 0.541290
vt 0.705600 0.541290
vt 0.092070 0.887700
vt 0.528330 1.009810
vt 0.420010 1.022260
vt 0.899580 0.863160
vt 0.245670 0.000500
vt 0.374540 0.296250
vt 0.158470 0.296250
vt 0.428840 0.000500
vt 0.644150 0.296250
vt 0.610280 0.000500
vt 0.801740 0.296250
vt 0.262480 0.541290
vt 0.076200 0.541290
vt 0.825370 0.591990
vt 0.609060 0.591990
vt 0.268250 0.863160
vt 0.502550 0.890170
vt 0.904500 0.852810
vt 0.670110 0.890770
vt 0.187430 0.000500
vt 0.338680 0.296250
vt 0.133540 0.296250
vt 0.361340 0.000500
vt 0.633270 0.296250
vt 0.776890 0.000500
vt 0.611080 0.000500
vt 0.327410 0.591990
vt 0.106390 0.591990
vt 0.644800 0.556860
vt 0.828860 0.296250
vt 0.106390 0.852810
vt 0.551430 0.919130
vt 0.327410 0.914890
vt 0.855530 0.852810
vt 0.207170 0.050070
vt 0.177240 0.257620
vt 0.039310 0.144470
vt 0.431940 0.007000
vt 0.367420 0.205820
vt 0.729310 0.887700
vt 0.598340 0.927620
vt 0.834060 1.022260
vt 0.603800 1.038310
vt 0.162990 1.009810
vt 0.436060 0.871270
vt 0.396200 1.038310
vt 0.497450 0.970130
vt 0.563940 0.792840
vt 0.731750 0.899580
vt 0.329890 0.952130
vt 0.494670 0.819370
vt 0.095500 0.893610
vt 0.672590 0.914890
vt 0.742780 0.833550
vt 0.893610 0.852810
vt 1.050060 0.919130
vt 1.018060 0.914890
vt -0.050060 0.919130
vt 0.521940 0.847150
vt 0.693650 0.927620
vt 0.817260 0.000500
vt 0.756700 0.000500
vt 0.855530 0.556860
vt 0.334280 0.239290
vt 0.837010 1.009810
vt 0.633860 0.888680
vn 0.0085 0.9355 -0.3532
vn -0.1296 -0.5417 0.8305
vn -0.1222 -0.9053 0.4067
vn 0.1882 -0.8609 0.4727
vn 0.7117 -0.3107 0.6300
vn 0.5011 -0.6070 0.6168
vn 0.5788 -0.5147 0.6325
vn 0.5580 -0.6832 0.4711
vn 0.0978 -0.9950 0.0208
vn 0.2463 -0.9614 0.1231
vn 0.3855 -0.8934 0.2308
vn 0.3158 -0.9342 0.1658
vn 0.2754 -0.9600 0.0505
vn 0.2431 -0.8065 0.5390
vn 0.2613 -0.9567 0.1281
vn 0.1090 -0.7916 0.6012
vn 0.4027 0.8706 0.2827
vn 0.9152 0.1834 0.3588
vn 0.6780 0.7334 0.0504
vn 0.0799 0.8991 0.4303
vn 0.5539 0.3609 0.7503
vn -0.4411 0.8505 0.2864
vn 0.0594 0.4514 0.8904
vn 0.5615 0.3183 0.7638
vn 0.9162 0.1802 0.3579
vn -0.6129 0.4188 0.6700
vn 0.0302 0.3332 0.9424
vn 0.3708 -0.2551 0.8930
vn 0.4575 -0.5493 0.6992
vn 0.3330 -0.1156 0.9358
vn -0.6296 0.2423 0.7381
vn -0.9396 0.2561 0.2270
vn -0.6813 0.6679 -0.2996
vn -0.6436 0.7627 -0.0645
vn -0.8357 -0.0291 -0.5485
vn -0.9829 0.1255 -0.1348
vn -0.9499 0.0893 0.2994
vn -0.8891 -0.1836 -0.4192
vn -0.9974 -0.0501 -0.0522
vn -0.1652 -0.2289 0.9593
vn -0.7030 -0.7099 -0.0428
vn -0.4910 -0.5573 0.6696
vn -0.6303 -0.7062 -0.3226
vn -0.6014 0.5362 -0.5924
vn -0.3581 -0.2122 -0.9093
vn -0.2495 0.3993 -0.8822
vn 0.2328 -0.2666 -0.9353
vn 0.1439 0.4198 -0.8961
vn 0.6602 -0.2037 -0.7229
vn -0.4607 -0.3127 -0.8307
vn 0.5989 -0.2751 -0.7521
vn 0.1445 -0.3613 -0.9212
vn -0.2124 -0.9385 -0.2722
vn 0.6604 -0.5187 -0.5430
vn 0.3327 -0.9087 -0.2522
vn 0.4702 0.4216 -0.7753
vn 0.9074 -0.1247 -0.4012
vn 0.6759 0.5363 -0.5055
vn 0.9940 -0.0286 -0.1057
vn 0.7040 0.6473 -0.2922
vn 0.9209 -0.0721 -0.3832
vn 0.9967 0.0321 -0.0748
vn 0.8831 -0.4541 0.1179
vn 0.5360 -0.8426 -0.0521
vn 0.5020 -0.4791 0.7201
usemtl teeths
s off
f 1/1/1 2/2/1 3/3/1
f 3/3/1 4/4/1 5/5/1
f 4/4/1 6/6/1 5/5/1
f 7/7/1 8/8/1 2/2/1
f 8/8/1 4/4/1 2/2/1
f 9/9/1 10/10/1 4/4/1
f 11/11/1 8/8/1 12/12/1
f 13/13/1 9/9/1 8/8/1
f 9/9/1 14/14/1 15/15/1
f 1/1/1 7/7/1 2/2/1
f 3/3/1 2/2/1 4/4/1
f 4/4/1 10/10/1 6/6/1
f 7/7/1 12/12/1 8/8/1
f 8/8/1 9/9/1 4/4/1
f 9/9/1 15/15/1 10/10/1
f 11/11/1 13/13/1 8/8/1
f 13/13/1 16/16/1 9/9/1
f 9/9/1 16/16/1 14/14/1
s 1
f 17/17/2 18/18/3 19/19/4
f 20/20/5 18/18/3 21/21/6
f 22/22/7 23/23/8 20/20/5
f 18/24/3 24/25/9 19/26/4
f 23/27/8 25/28/10 18/24/3
f 23/29/8 26/30/11 27/31/12
f 25/32/10 28/33/13 24/34/9
f 27/35/12 29/36/14 25/32/10
f 27/31/12 30/37/15 31/38/16
f 3/39/17 32/40/18 1/41/19
f 5/42/20 33/43/21 3/39/17
f 6/44/22 34/45/23 5/42/20
f 32/40/18 35/46/24 36/47/25
f 34/45/23 35/46/24 33/43/21
f 37/48/26 38/49/27 34/45/23
f 36/47/25 39/50/28 40/51/29
f 35/46/24 41/52/30 39/50/28
f 42/53/31 41/52/30 38/49/27
f 6/54/22 43/55/32 37/56/26
f 15/57/33 43/55/32 10/58/34
f 15/57/33 44/59/35 45/60/36
f 43/55/32 42/61/31 37/56/26
f 45/60/36 46/62/37 43/55/32
f 45/60/36 47/63/38 48/64/39
f 46/62/37 49/65/40 42/61/31
f 46/62/37 50/66/41 51/67/42
f 48/64/39 52/68/43 50/66/41
f 14/69/44 53/70/45 44/71/35
f 16/72/46 54/73/47 53/70/45
f 13/74/48 55/75/49 54/73/47
f 44/71/35 56/76/50 47/77/38
f 54/73/47 56/76/50 53/70/45
f 54/73/47 57/78/51 58/79/52
f 56/76/50 52/80/43 47/77/38
f 58/79/52 59/81/53 56/76/50
f 58/79/52 60/82/54 61/83/55
f 11/84/56 62/85/57 55/86/49
f 12/87/58 63/88/59 62/85/57
f 1/89/19 63/88/59 7/90/60
f 55/86/49 64/91/61 57/92/51
f 62/85/57 65/93/62 64/91/61
f 32/94/18 65/93/62 63/88/59
f 64/91/61 60/95/54 57/92/51
f 64/91/61 66/96/63 67/97/64
f 65/93/62 40/98/29 66/96/63
f 39/99/28 17/100/2 40/101/29
f 41/102/30 21/103/6 39/99/28
f 41/52/30 22/22/7 20/20/5
f 49/104/40 68/105/65 22/22/7
f 51/106/42 26/107/11 68/105/65
f 50/108/41 30/109/15 26/110/11
f 59/111/53 30/112/15 52/113/43
f 61/114/55 31/115/16 59/111/53
f 60/116/54 29/36/14 61/114/55
f 67/117/64 28/118/13 60/119/54
f 66/120/63 24/25/9 67/121/64
f 66/122/63 17/17/2 19/19/4
f 17/17/2 21/21/6 18/18/3
f 20/20/5 23/23/8 18/18/3
f 22/22/7 68/105/65 23/23/8
f 18/24/3 25/28/10 24/25/9
f 23/27/8 27/123/12 25/28/10
f 23/29/8 68/124/65 26/30/11
f 25/32/10 29/36/14 28/33/13
f 27/35/12 31/115/16 29/36/14
f 27/31/12 26/30/11 30/37/15
f 3/39/17 33/43/21 32/40/18
f 5/42/20 34/45/23 33/43/21
f 6/44/22 37/48/26 34/45/23
f 32/40/18 33/43/21 35/46/24
f 34/45/23 38/49/27 35/46/24
f 37/48/26 42/53/31 38/49/27
f 36/47/25 35/46/24 39/50/28
f 35/46/24 38/49/27 41/52/30
f 42/53/31 49/104/40 41/52/30
f 6/54/22 10/58/34 43/55/32
f 15/57/33 45/60/36 43/55/32
f 15/57/33 14/125/44 44/59/35
f 43/55/32 46/62/37 42/61/31
f 45/60/36 48/64/39 46/62/37
f 45/60/36 44/59/35 47/63/38
f 46/62/37 51/67/42 49/65/40
f 46/62/37 48/64/39 50/66/41
f 48/64/39 47/63/38 52/68/43
f 14/69/44 16/72/46 53/70/45
f 16/72/46 13/74/48 54/73/47
f 13/74/48 11/126/56 55/75/49
f 44/71/35 53/70/45 56/76/50
f 54/73/47 58/79/52 56/76/50
f 54/73/47 55/75/49 57/78/51
f 56/76/50 59/81/53 52/80/43
f 58/79/52 61/83/55 59/81/53
f 58/79/52 57/78/51 60/82/54
f 11/84/56 12/87/58 62/85/57
f 12/87/58 7/90/60 63/88/59
f 1/89/19 32/94/18 63/88/59
f 55/86/49 62/85/57 64/91/61
f 62/85/57 63/88/59 65/93/62
f 32/94/18 36/127/25 65/93/62
f 64/91/61 67/97/64 60/95/54
f 64/91/61 65/93/62 66/96/63
f 65/93/62 36/127/25 40/98/29
f 39/99/28 21/103/6 17/100/2
f 41/102/30 20/128/5 21/103/6
f 41/52/30 49/104/40 22/22/7
f 49/104/40 51/106/42 68/105/65
f 51/106/42 50/129/41 26/107/11
f 50/108/41 52/80/43 30/109/15
f 59/111/53 31/115/16 30/112/15
f 61/114/55 29/36/14 31/115/16
f 60/116/54 28/33/13 29/36/14
f 67/117/64 24/130/9 28/118/13
f 66/120/63 19/26/4 24/25/9
f 66/122/63 40/51/29 17/17/2
