# Blender v2.79 (sub 0) OBJ File: ''
# www.blender.org
mtllib teeth42.mtl
o Box42
v -0.452775 -0.466562 0.742397
v -0.436712 -0.459651 0.762258
v -0.434815 -0.457276 0.754664
v -0.387580 -0.464169 0.796303
v -0.384069 -0.461741 0.787328
v -0.331501 -0.469458 0.819267
v -0.328157 -0.467041 0.810474
v -0.272126 -0.479558 0.825135
v -0.272743 -0.475729 0.818090
v -0.257386 -0.483964 0.825084
v -0.453407 -0.463552 0.731362
v -0.430732 -0.451414 0.742139
v -0.379947 -0.455875 0.774770
v -0.324254 -0.461193 0.798151
v -0.279305 -0.468139 0.809497
v -0.244213 -0.485549 0.819158
v -0.261096 -0.477214 0.811865
v -0.428713 -0.896421 0.599517
v -0.418599 -0.881915 0.567295
v -0.384520 -0.906510 0.606667
v -0.394651 -0.921017 0.638904
v -0.357904 -0.924227 0.623859
v -0.368033 -0.938735 0.656095
v -0.326006 -0.928730 0.639684
v -0.336136 -0.943236 0.671921
v -0.303735 -0.924469 0.648892
v -0.263633 -0.923257 0.688823
v -0.313864 -0.938976 0.681129
v -0.397467 -0.866133 0.558013
v -0.375229 -0.893207 0.577103
v -0.348613 -0.910925 0.594296
v -0.316717 -0.915428 0.610123
v -0.294445 -0.911168 0.619331
v -0.258903 -0.891935 0.632694
v -0.458228 -0.499067 0.726975
v -0.433123 -0.506708 0.757499
v -0.392383 -0.510303 0.790788
v -0.341735 -0.516447 0.814904
v -0.291376 -0.524789 0.826119
v -0.258079 -0.525206 0.818024
v -0.462706 -0.547295 0.710247
v -0.431723 -0.558696 0.752075
v -0.395527 -0.568307 0.782697
v -0.348192 -0.574070 0.805488
v -0.294771 -0.575743 0.816008
v -0.258382 -0.571802 0.810564
v -0.426372 -0.638559 0.731634
v -0.455645 -0.625732 0.686592
v -0.448439 -0.718299 0.661200
v -0.394898 -0.649658 0.761958
v -0.420822 -0.731411 0.705434
v -0.349613 -0.654948 0.784871
v -0.389540 -0.740055 0.734006
v -0.348572 -0.746417 0.756277
v -0.305084 -0.741740 0.772753
v -0.298575 -0.657713 0.797336
v -0.263028 -0.734504 0.771222
v -0.442498 -0.808594 0.633878
v -0.410630 -0.821881 0.676990
v -0.383726 -0.827805 0.701197
v -0.344881 -0.834028 0.722274
v -0.309837 -0.835744 0.730968
v -0.264937 -0.836829 0.725719
v -0.243558 -0.517604 0.813529
v -0.260478 -0.507807 0.800596
v -0.241534 -0.561817 0.799776
v -0.255580 -0.550535 0.789666
v -0.257333 -0.655075 0.793201
v -0.244791 -0.722036 0.749316
v -0.241231 -0.645455 0.772473
v -0.250760 -0.707318 0.727502
v -0.241605 -0.818638 0.692010
v -0.247340 -0.803665 0.669497
v -0.247653 -0.907771 0.657217
v -0.283185 -0.505689 0.791116
v -0.327644 -0.503767 0.770562
v -0.379873 -0.497593 0.745652
v -0.446946 -0.460560 0.726497
v -0.423470 -0.488965 0.722801
v -0.283861 -0.551276 0.771911
v -0.329310 -0.547304 0.749604
v -0.375836 -0.541418 0.725491
v -0.418227 -0.532893 0.697293
v -0.440004 -0.529680 0.689222
v -0.281736 -0.633357 0.740163
v -0.256274 -0.634887 0.755304
v -0.327090 -0.628864 0.714883
v -0.283000 -0.707470 0.710993
v -0.370142 -0.621991 0.689502
v -0.325808 -0.710925 0.670305
v -0.413835 -0.612430 0.662002
v -0.366527 -0.704069 0.644747
v -0.400427 -0.696918 0.621395
v -0.420153 -0.685619 0.613150
v -0.273562 -0.804099 0.649057
v -0.311235 -0.802102 0.640385
v -0.353873 -0.795502 0.615325
v -0.378897 -0.789520 0.597688
v -0.413508 -0.775942 0.585670
v -0.444770 -0.483875 0.713159
v -0.456873 -0.485623 0.718131
v -0.456009 -0.534718 0.693981
v -0.445974 -0.612517 0.656833
v -0.430999 -0.607618 0.653462
v -0.436392 -0.701930 0.624299
v -0.430308 -0.792160 0.596743
vt 0.950640 0.611720
vt 0.862740 0.549110
vt 0.864470 0.625790
vt 0.862740 0.012030
vt 0.618190 -0.000190
vt 0.614890 0.002910
vt 0.357710 -0.001200
vt 0.354880 0.001750
vt 0.357710 0.528320
vt 0.102370 0.709280
vt 0.114260 0.775510
vt 0.040230 0.759590
vt 0.967060 0.706710
vt 0.863920 0.763200
vt 0.614890 0.575770
vt 0.614230 0.713610
vt 0.354880 0.621050
vt 0.354840 0.756020
vt 0.645120 0.001750
vt 0.885740 0.019220
vt 0.846380 0.011050
vt -0.007750 0.859250
vt 0.072980 0.871180
vt 0.099760 0.371170
vt 0.099720 0.720970
vt 0.293800 0.474970
vt 0.293800 0.124960
vt 0.429030 0.395350
vt 0.429030 0.045350
vt 0.580850 0.395350
vt 0.580850 0.045350
vt 0.682640 0.435400
vt 0.895160 0.300320
vt 0.682640 0.085400
vt 0.900280 0.957650
vt 0.828130 0.938410
vt 0.706200 0.976640
vt 0.293800 0.795920
vt 0.429030 0.716310
vt 0.580850 0.716310
vt 0.682640 0.756350
vt 0.317360 0.987160
vt 0.317360 0.987160
vt 0.159930 0.945340
vt 0.049360 0.038640
vt 0.017660 0.110850
vt 0.159520 0.104080
vt 0.137260 0.012030
vt 0.368210 0.089630
vt 0.381810 -0.000190
vt 0.607800 0.088580
vt 0.642290 -0.001200
vt 0.831640 0.101860
vt 0.897630 0.020830
vt 0.960000 0.113510
vt -0.007200 0.213570
vt 0.173310 0.205570
vt 0.361730 0.203870
vt 0.585940 0.202720
vt 0.819800 0.204530
vt 0.962860 0.206340
vt 0.193500 0.371560
vt 0.015880 0.379690
vt 0.041420 0.573570
vt 0.362420 0.372250
vt 0.211310 0.566410
vt 0.578190 0.369840
vt 0.376720 0.563880
vt 0.574170 0.563410
vt 0.772170 0.547310
vt 0.804770 0.371830
vt 0.942360 0.540620
vt 0.058850 0.764590
vt 0.245050 0.759210
vt 0.386460 0.754520
vt 0.573680 0.754460
vt 0.729350 0.755370
vt 0.909250 0.767540
vt 0.099760 0.957660
vt 0.293800 0.976640
vt 0.429030 0.999500
vt 0.580850 0.999500
vt 0.682640 0.987160
vt 0.895160 0.958360
vt 0.959770 0.031040
vt 1.012690 0.104840
vt -0.007750 0.040470
vt -0.012690 0.104840
vt 0.075220 0.094650
vt 1.017130 0.198560
vt -0.017130 0.198560
vt 0.056000 0.183720
vt 0.969820 0.375670
vt 0.988610 0.537250
vt -0.009390 0.376400
vt 0.011390 0.537250
vt 0.065800 0.526410
vt 0.961120 0.763590
vt 0.038880 0.763590
vt 0.093210 0.752850
vt 0.919840 0.956810
vt 0.080160 0.956810
vt 0.072980 0.028500
vt 0.180890 0.095250
vt 0.354840 0.001190
vt 0.153620 0.011050
vt 0.614230 0.002530
vt 0.389530 0.102160
vt 0.863920 0.013510
vt 0.636620 0.103600
vt 0.946870 0.040900
vt 0.846240 0.099940
vt 0.193670 0.195510
vt 0.409030 0.199870
vt 0.631500 0.201960
vt 0.842400 0.202930
vt 0.942860 0.200490
vt 0.199520 0.374230
vt 0.075940 0.368380
vt 0.418120 0.380010
vt 0.218550 0.535580
vt 0.627980 0.381720
vt 0.442550 0.568810
vt 0.843730 0.380030
vt 0.642950 0.571020
vt 0.812640 0.571810
vt 0.907070 0.554690
vt 0.225610 0.766490
vt 0.392220 0.764690
vt 0.599920 0.766720
vt 0.725840 0.766320
vt 0.886910 0.745980
vt 0.419150 0.999500
vt 0.570970 0.999500
vt 0.947100 0.095320
vt 0.990850 0.093010
vt 0.032940 0.041740
vt 0.009150 0.093010
vt 0.401990 0.110850
vt 0.279720 0.093010
vt 0.253480 0.203970
vt 0.982750 0.380060
vt 0.926110 0.375600
vt 0.506400 0.379690
vt 0.182530 0.380060
vt 0.190040 0.574070
vt 0.956640 0.574070
vt 0.591880 0.573570
vt 0.255260 0.765170
vt 0.938920 0.765170
vt 0.659800 0.764590
vt 0.279030 0.957650
vt 1.009390 0.376400
vt 1.002100 0.203970
vt 0.455170 0.213570
vt 0.864470 0.013910
vt 0.946870 0.784070
vt 0.645160 0.001190
vt 0.153620 0.840720
vt 0.919840 0.674530
vt 0.706200 0.976640
vt 1.007750 0.040470
vt 0.967060 0.041740
vt 0.628830 0.957660
vn -0.8558 0.3270 0.4010
vn -0.5812 0.5519 0.5980
vn -0.3490 0.9011 0.2573
vn -0.3509 0.5827 0.7330
vn -0.0797 0.9457 0.3150
vn -0.1443 0.5861 0.7973
vn 0.0139 0.9345 0.3558
vn 0.1169 0.4968 0.8599
vn 0.2151 0.8554 0.4713
vn 0.2562 0.3839 0.8871
vn -0.8142 0.5682 -0.1191
vn 0.0270 0.9594 -0.2808
vn 0.1977 0.9579 -0.2082
vn 0.2147 0.9476 -0.2366
vn 0.3024 0.9375 -0.1720
vn 0.8890 0.4248 0.1709
vn 0.4780 0.7985 -0.3658
vn -0.7727 -0.6202 -0.1357
vn -0.5528 -0.4090 -0.7260
vn -0.1980 -0.8691 -0.4533
vn -0.6342 -0.7620 0.1311
vn -0.1008 -0.8950 -0.4344
vn -0.4174 -0.8851 0.2059
vn 0.1846 -0.9167 -0.3545
vn -0.1235 -0.9363 0.3287
vn 0.3393 -0.8840 -0.3215
vn 0.5285 -0.7234 0.4443
vn 0.0861 -0.8990 0.4294
vn 0.1382 -0.0021 -0.9904
vn 0.3005 -0.4760 -0.8265
vn 0.2266 -0.5283 -0.8182
vn 0.3662 -0.5054 -0.7813
vn 0.4718 -0.4680 -0.7472
vn 0.6229 -0.1820 -0.7608
vn -0.9611 -0.0282 0.2747
vn -0.7132 -0.1188 0.6908
vn -0.5333 -0.0805 0.8421
vn -0.3245 -0.0799 0.9425
vn -0.0092 -0.1032 0.9946
vn 0.3164 -0.1662 0.9339
vn -0.9899 -0.0420 0.1357
vn -0.7420 -0.1530 0.6527
vn -0.5631 -0.1526 0.8122
vn -0.3285 -0.1686 0.9293
vn -0.0259 -0.1959 0.9803
vn 0.4161 -0.1954 0.8881
vn -0.7825 -0.2019 0.5890
vn -0.9887 -0.1061 0.1056
vn -0.9901 -0.0976 0.1005
vn -0.5938 -0.2342 0.7698
vn -0.7778 -0.2360 0.5825
vn -0.3603 -0.2517 0.8982
vn -0.5904 -0.2889 0.7537
vn -0.3957 -0.3191 0.8612
vn -0.1019 -0.3431 0.9338
vn -0.0620 -0.2501 0.9662
vn 0.4881 -0.3203 0.8119
vn -0.9809 -0.1562 0.1158
vn -0.7452 -0.3097 0.5906
vn -0.5844 -0.3459 0.7340
vn -0.3675 -0.3780 0.8497
vn -0.0845 -0.4028 0.9114
vn 0.5361 -0.3480 0.7691
vn 0.9779 0.0021 0.2090
vn 0.5129 0.2646 -0.8167
vn 0.9942 0.0449 0.0976
vn 0.5951 0.2868 -0.7507
vn 0.5137 -0.2218 0.8288
vn 0.9728 -0.0970 0.2104
vn 0.9992 0.0298 0.0263
vn 0.7788 0.2690 -0.5666
vn 0.9898 -0.0875 0.1127
vn 0.8206 0.2497 -0.5140
vn 0.8339 -0.5055 -0.2215
vn 0.3844 0.3627 -0.8489
vn 0.4102 0.4305 -0.8040
vn 0.4639 0.4502 -0.7630
vn -0.1730 0.7590 -0.6277
vn 0.4729 0.4621 -0.7502
vn 0.4625 0.3387 -0.8194
vn 0.4501 0.3664 -0.8144
vn 0.5077 0.3945 -0.7659
vn 0.4696 0.4394 -0.7658
vn 0.0024 0.4507 -0.8927
vn 0.4819 0.3318 -0.8110
vn 0.6527 0.2890 -0.7003
vn 0.5087 0.3701 -0.7774
vn 0.5064 0.4136 -0.7566
vn 0.5337 0.3962 -0.7471
vn 0.5457 0.4002 -0.7363
vn 0.5265 0.4042 -0.7480
vn 0.5577 0.3748 -0.7406
vn 0.5432 0.3611 -0.7579
vn -0.0670 0.3609 -0.9302
vn 0.4263 0.3334 -0.8409
vn 0.3716 0.2739 -0.8871
vn 0.5613 0.2521 -0.7883
vn 0.5348 0.2822 -0.7964
vn -0.1471 0.2828 -0.9478
vn 0.0306 0.4815 -0.8759
vn -0.8321 0.3017 -0.4654
vn -0.7364 0.2656 -0.6222
vn -0.7201 0.2187 -0.6585
vn 0.0864 0.4380 -0.8948
vn -0.8387 0.1030 -0.5347
vn -0.8270 0.0814 -0.5563
usemtl teeths
s 1
f 1/1/1 2/2/2 3/3/3
f 2/4/2 4/5/4 5/6/5
f 4/5/4 6/7/6 7/8/7
f 6/9/6 8/10/8 9/11/9
f 9/11/9 8/10/8 10/12/10
f 11/13/11 3/3/3 12/14/12
f 3/3/3 5/15/5 13/16/13
f 5/15/5 7/17/7 14/18/14
f 7/19/7 9/20/9 15/21/15
f 9/11/9 16/22/16 17/23/17
f 18/24/18 19/25/19 20/26/20
f 21/27/21 20/26/20 22/28/22
f 23/29/23 22/28/22 24/30/24
f 25/31/25 24/30/24 26/32/26
f 27/33/27 28/34/28 26/32/26
f 19/35/19 29/36/29 30/37/30
f 20/26/20 30/38/30 31/39/31
f 22/28/22 31/39/31 32/40/32
f 24/30/24 32/40/32 33/41/33
f 26/42/26 33/43/33 34/44/34
f 1/45/1 35/46/35 36/47/36
f 2/48/2 36/47/36 37/49/37
f 4/50/4 37/49/37 38/51/38
f 6/52/6 38/51/38 39/53/39
f 8/54/8 39/53/39 40/55/40
f 36/47/36 35/46/35 41/56/41
f 37/49/37 36/47/36 42/57/42
f 37/49/37 43/58/43 44/59/44
f 38/51/38 44/59/44 45/60/45
f 39/53/39 45/60/45 46/61/46
f 47/62/47 48/63/48 49/64/49
f 50/65/50 47/62/47 51/66/51
f 52/67/52 50/65/50 53/68/53
f 52/67/52 54/69/54 55/70/55
f 56/71/56 55/70/55 57/72/57
f 51/66/51 49/64/49 58/73/58
f 53/68/53 51/66/51 59/74/59
f 54/69/54 53/68/53 60/75/60
f 54/69/54 61/76/61 62/77/62
f 55/70/55 62/77/62 63/78/63
f 59/74/59 58/73/58 18/79/18
f 60/75/60 59/74/59 21/80/21
f 61/76/61 60/75/60 23/81/23
f 61/76/61 25/82/25 28/83/28
f 62/77/62 28/83/28 27/84/27
f 10/85/10 40/55/40 64/86/64
f 16/87/16 64/88/64 65/89/65
f 40/55/40 46/61/46 66/90/66
f 64/88/64 66/91/66 67/92/67
f 68/93/68 57/72/57 69/94/69
f 70/95/70 69/96/69 71/97/71
f 57/72/57 63/78/63 72/98/72
f 69/96/69 72/99/72 73/100/73
f 63/78/63 27/84/27 74/101/74
f 72/99/72 74/102/74 34/44/34
f 17/103/17 65/89/65 75/104/75
f 14/105/14 15/106/15 75/104/75
f 13/107/13 14/105/14 76/108/76
f 12/109/12 13/107/13 77/110/77
f 78/111/78 12/109/12 79/112/79
f 75/104/75 65/89/65 67/92/67
f 76/108/76 75/104/75 80/113/80
f 77/110/77 76/108/76 81/114/81
f 79/112/79 77/110/77 82/115/82
f 79/112/79 83/116/83 84/117/84
f 85/118/85 86/119/86 71/97/71
f 87/120/87 85/118/85 88/121/88
f 89/122/89 87/120/87 90/123/90
f 91/124/91 89/122/89 92/125/92
f 91/124/91 93/126/93 94/127/94
f 88/121/88 71/97/71 73/100/73
f 90/123/90 88/121/88 95/128/95
f 90/123/90 96/129/96 97/130/97
f 92/125/92 97/130/97 98/131/98
f 93/126/93 98/131/98 99/132/99
f 95/128/95 73/100/73 34/44/34
f 96/129/96 95/128/95 33/43/33
f 96/129/96 32/133/32 31/134/31
f 97/130/97 31/134/31 30/37/30
f 98/131/98 30/37/30 29/36/29
f 78/111/78 100/135/100 101/136/101
f 1/45/1 11/137/11 101/138/101
f 101/136/101 100/135/100 84/117/84
f 35/139/35 101/140/101 102/141/102
f 103/142/103 104/143/104 94/127/94
f 48/144/48 103/145/103 105/146/105
f 105/147/105 94/127/94 99/132/99
f 49/148/49 105/146/105 106/149/106
f 106/150/106 99/132/99 29/36/29
f 58/151/58 106/149/106 19/152/19
f 42/57/42 41/56/41 48/63/48
f 43/58/43 42/57/42 47/62/47
f 52/67/52 44/59/44 43/58/43
f 56/71/56 45/60/45 44/59/44
f 68/93/68 46/61/46 45/60/45
f 70/153/70 66/90/66 46/61/46
f 86/119/86 67/92/67 66/91/66
f 80/113/80 67/92/67 86/119/86
f 81/114/81 80/113/80 85/118/85
f 82/115/82 81/114/81 87/120/87
f 83/116/83 82/115/82 89/122/89
f 104/143/104 84/117/84 83/116/83
f 102/154/102 84/117/84 104/143/104
f 41/155/41 102/141/102 103/145/103
f 1/1/1 3/3/3 11/13/11
f 2/4/2 5/6/5 3/156/3
f 4/5/4 7/8/7 5/6/5
f 6/9/6 9/11/9 7/17/7
f 9/11/9 10/12/10 16/22/16
f 11/13/11 12/14/12 78/157/78
f 3/3/3 13/16/13 12/14/12
f 5/15/5 14/18/14 13/16/13
f 7/19/7 15/21/15 14/158/14
f 9/11/9 17/23/17 15/159/15
f 18/24/18 20/26/20 21/27/21
f 21/27/21 22/28/22 23/29/23
f 23/29/23 24/30/24 25/31/25
f 25/31/25 26/32/26 28/34/28
f 27/33/27 26/32/26 74/160/74
f 19/35/19 30/37/30 20/161/20
f 20/26/20 31/39/31 22/28/22
f 22/28/22 32/40/32 24/30/24
f 24/30/24 33/41/33 26/32/26
f 26/42/26 34/44/34 74/102/74
f 1/45/1 36/47/36 2/48/2
f 2/48/2 37/49/37 4/50/4
f 4/50/4 38/51/38 6/52/6
f 6/52/6 39/53/39 8/54/8
f 8/54/8 40/55/40 10/85/10
f 36/47/36 41/56/41 42/57/42
f 37/49/37 42/57/42 43/58/43
f 37/49/37 44/59/44 38/51/38
f 38/51/38 45/60/45 39/53/39
f 39/53/39 46/61/46 40/55/40
f 47/62/47 49/64/49 51/66/51
f 50/65/50 51/66/51 53/68/53
f 52/67/52 53/68/53 54/69/54
f 52/67/52 55/70/55 56/71/56
f 56/71/56 57/72/57 68/93/68
f 51/66/51 58/73/58 59/74/59
f 53/68/53 59/74/59 60/75/60
f 54/69/54 60/75/60 61/76/61
f 54/69/54 62/77/62 55/70/55
f 55/70/55 63/78/63 57/72/57
f 59/74/59 18/79/18 21/80/21
f 60/75/60 21/80/21 23/81/23
f 61/76/61 23/81/23 25/82/25
f 61/76/61 28/83/28 62/77/62
f 62/77/62 27/84/27 63/78/63
f 10/85/10 64/86/64 16/162/16
f 16/87/16 65/89/65 17/103/17
f 40/55/40 66/90/66 64/86/64
f 64/88/64 67/92/67 65/89/65
f 68/93/68 69/94/69 70/153/70
f 70/95/70 71/97/71 86/119/86
f 57/72/57 72/98/72 69/94/69
f 69/96/69 73/100/73 71/97/71
f 63/78/63 74/101/74 72/98/72
f 72/99/72 34/44/34 73/100/73
f 17/103/17 75/104/75 15/106/15
f 14/105/14 75/104/75 76/108/76
f 13/107/13 76/108/76 77/110/77
f 12/109/12 77/110/77 79/112/79
f 78/111/78 79/112/79 100/135/100
f 75/104/75 67/92/67 80/113/80
f 76/108/76 80/113/80 81/114/81
f 77/110/77 81/114/81 82/115/82
f 79/112/79 82/115/82 83/116/83
f 79/112/79 84/117/84 100/135/100
f 85/118/85 71/97/71 88/121/88
f 87/120/87 88/121/88 90/123/90
f 89/122/89 90/123/90 92/125/92
f 91/124/91 92/125/92 93/126/93
f 91/124/91 94/127/94 104/143/104
f 88/121/88 73/100/73 95/128/95
f 90/123/90 95/128/95 96/129/96
f 90/123/90 97/130/97 92/125/92
f 92/125/92 98/131/98 93/126/93
f 93/126/93 99/132/99 94/127/94
f 95/128/95 34/44/34 33/43/33
f 96/129/96 33/43/33 32/133/32
f 96/129/96 31/134/31 97/130/97
f 97/130/97 30/37/30 98/131/98
f 98/131/98 29/36/29 99/132/99
f 78/111/78 101/136/101 11/163/11
f 1/45/1 101/138/101 35/46/35
f 101/136/101 84/117/84 102/154/102
f 35/139/35 102/141/102 41/155/41
f 103/142/103 94/127/94 105/147/105
f 48/144/48 105/146/105 49/148/49
f 105/147/105 99/132/99 106/150/106
f 49/148/49 106/149/106 58/151/58
f 106/150/106 29/36/29 19/35/19
f 58/151/58 19/152/19 18/164/18
f 42/57/42 48/63/48 47/62/47
f 43/58/43 47/62/47 50/65/50
f 52/67/52 43/58/43 50/65/50
f 56/71/56 44/59/44 52/67/52
f 68/93/68 45/60/45 56/71/56
f 70/153/70 46/61/46 68/93/68
f 86/119/86 66/91/66 70/95/70
f 80/113/80 86/119/86 85/118/85
f 81/114/81 85/118/85 87/120/87
f 82/115/82 87/120/87 89/122/89
f 83/116/83 89/122/89 91/124/91
f 104/143/104 83/116/83 91/124/91
f 102/154/102 104/143/104 103/142/103
f 41/155/41 103/145/103 48/144/48
