# Blender v2.79 (sub 0) OBJ File: ''
# www.blender.org
mtllib teeth13.mtl
o Box13
v -0.514620 0.867612 0.446229
v -0.543875 0.852713 0.395326
v -0.606443 0.865531 0.405928
v -0.571124 0.847202 0.370282
v -0.625090 0.845393 0.345031
v -0.671957 0.861833 0.371254
v -0.591323 0.393816 0.695697
v -0.587676 0.490014 0.701536
v -0.601335 0.448422 0.733502
v -0.638611 0.484776 0.720931
v -0.674495 0.395820 0.714051
v -0.613307 0.309023 0.661440
v -0.636366 0.353701 0.727076
v -0.676938 0.352256 0.671945
v -0.644073 0.318850 0.578856
v -0.659070 0.320349 0.673788
v -0.713563 0.353351 0.602298
v -0.690536 0.277591 0.606638
v -0.702922 0.384007 0.516133
v -0.511100 0.898611 0.530448
v -0.507578 0.883138 0.490407
v -0.574079 0.901723 0.514942
v -0.556956 0.920978 0.572897
v -0.521451 0.913043 0.565116
v -0.632807 0.914573 0.521271
v -0.606879 0.889678 0.470330
v -0.686468 0.884676 0.426835
v -0.557882 0.580244 0.676714
v -0.577524 0.559844 0.722223
v -0.558962 0.635271 0.647071
v -0.561572 0.649547 0.684256
v -0.614910 0.565995 0.724868
v -0.524821 0.768101 0.592703
v -0.536430 0.783948 0.630673
v -0.582893 0.794431 0.641130
v -0.687240 0.527127 0.700214
v -0.727724 0.472883 0.646834
v -0.710177 0.421950 0.520359
v -0.732942 0.450650 0.574654
v -0.608035 0.660035 0.694712
v -0.694228 0.636277 0.672396
v -0.737860 0.586966 0.606703
v -0.710565 0.486018 0.481247
v -0.743566 0.561263 0.535821
v -0.670585 0.792034 0.601115
v -0.706434 0.774132 0.534303
v -0.728180 0.752696 0.474570
v -0.708891 0.726276 0.411226
v -0.665542 0.903284 0.478696
v -0.689545 0.481725 0.456933
v -0.647015 0.431802 0.509406
v -0.727690 0.535658 0.473367
v -0.706265 0.525210 0.434124
v -0.627155 0.528763 0.473554
v -0.672000 0.705654 0.370050
v -0.589964 0.708507 0.408717
v -0.636022 0.500309 0.483342
v -0.609999 0.444118 0.540761
v -0.577711 0.457981 0.600801
v -0.564547 0.516525 0.655335
v -0.595987 0.534849 0.501622
v -0.572808 0.553956 0.561472
v -0.556724 0.598338 0.612383
v -0.558503 0.714525 0.436709
v -0.525916 0.731379 0.494100
v -0.517714 0.749539 0.545758
vt 0.012140 0.463550
vt 0.075770 0.666060
vt 0.426940 0.685930
vt 0.175300 0.777320
vt 0.416260 0.913440
vt 0.712240 0.865080
vt 0.749150 0.116100
vt 0.867670 0.260320
vt 0.910130 0.175680
vt 0.327800 0.175680
vt 0.546960 0.230260
vt 0.612720 0.090730
vt 0.535310 0.001540
vt 0.758470 0.027270
vt 0.241530 0.027270
vt 0.279230 0.090730
vt 0.455400 0.047760
vt 0.258390 0.057010
vt 0.536900 0.001890
vt 0.463100 0.001890
vt 0.707330 0.081260
vt 0.819320 0.057010
vt 0.594200 -0.031820
vt 0.521310 0.179500
vt 0.931060 0.179500
vt 0.746020 -0.031820
vt 0.145080 0.169050
vt 0.054300 0.304380
vt 0.451450 0.279600
vt 0.464920 0.063650
vt 0.262460 0.058480
vt 0.777210 0.308590
vt 0.545210 0.463550
vt 0.889330 0.685930
vt 0.912990 0.418570
vt 1.012250 0.357240
vt 0.327280 0.357240
vt 0.875770 0.519200
vt 1.002040 0.519200
vt 0.530300 0.357040
vt 0.304620 0.519200
vt 0.877370 0.760250
vt 0.998220 0.760250
vt 0.268740 0.760250
vt 0.534170 0.760250
vt 0.830950 0.997840
vt 0.941520 0.997840
vt 0.262460 0.997840
vt 0.464920 0.997840
vt 0.820850 0.296200
vt 0.203240 0.296200
vt 0.464690 0.235160
vt 0.887480 0.233410
vt 0.715040 0.241300
vt 0.570050 0.519200
vt 0.953460 0.477090
vt 0.186610 0.477090
vt 0.484360 0.429920
vt 0.944070 0.353390
vt 0.734700 0.429920
vt 0.927760 0.760490
vt 0.225100 0.760490
vt 0.486580 0.763560
vt 0.715040 0.760250
vt 0.916720 0.760250
vt 0.007600 0.760250
vt 0.063650 0.997840
vt 0.308590 1.001160
vt 0.485440 1.001160
vt 0.685930 0.997840
vt 0.865080 0.997840
vt 0.431790 0.233410
vt 0.403580 0.353390
vt 0.549370 0.365250
vt 0.154720 0.268330
vt 0.068940 0.179500
vt -0.001370 0.365250
vt 0.265270 0.429920
vt 0.440720 0.441000
vt -0.045480 0.441000
vt 0.162410 0.441000
vt 0.211020 0.760250
vt -0.025810 0.760250
vt 0.480970 0.760250
vt 0.287760 0.997840
vt 0.182070 0.760250
vt 0.086560 0.997840
vt 0.154720 0.390090
vt 0.302490 0.277220
vt 0.535310 0.271080
vt 0.776050 0.332120
vt 0.287660 0.441000
vt 0.515640 0.441000
vt 0.734040 0.483130
vt 0.307320 0.760250
vt 0.535310 0.760250
vt 0.721400 0.760250
vt 0.222680 0.997840
vt 0.333940 0.997840
vt 0.536450 0.997840
vt 0.695620 0.997840
vt 0.382690 0.027270
vt 0.253980 -0.031820
vt 0.758660 0.268330
vt 0.874310 0.485440
vt 0.936380 0.429920
vt 0.583740 0.997840
vn 0.1314 0.9285 -0.3473
vn 0.9039 -0.2696 0.3320
vn 0.9432 -0.1389 0.3017
vn 0.4495 -0.0468 0.8921
vn -0.2692 0.0706 0.9605
vn -0.6536 -0.1746 0.7364
vn 0.5202 -0.8454 0.1215
vn 0.0117 -0.4905 0.8714
vn -0.8049 -0.3751 0.4598
vn 0.5428 -0.6672 -0.5101
vn -0.4344 -0.7658 0.4741
vn -0.9535 -0.2766 0.1198
vn -0.2997 -0.9540 0.0096
vn -0.4839 -0.4922 -0.7236
vn 0.7819 0.6159 -0.0963
vn 0.7964 0.5568 -0.2361
vn 0.1452 0.9245 -0.3525
vn 0.0137 0.9005 0.4345
vn 0.6295 0.7191 0.2943
vn 0.7710 0.5719 -0.2801
vn -0.3538 0.9228 0.1525
vn 0.1433 0.9227 -0.3579
vn -0.6105 0.7536 -0.2435
vn 0.9772 -0.0660 0.2020
vn 0.5914 0.0269 0.8059
vn 0.9896 -0.0642 0.1284
vn 0.7516 0.1541 0.6414
vn -0.1108 0.1689 0.9794
vn 0.9668 -0.0660 0.2468
vn 0.7098 0.1840 0.6799
vn -0.0528 0.4301 0.9012
vn -0.6253 0.0925 0.7749
vn -0.9266 -0.0711 0.3692
vn -0.9262 -0.1874 -0.3271
vn -0.9825 -0.1664 -0.0831
vn -0.0445 0.3546 0.9340
vn -0.6582 0.2903 0.6947
vn -0.9542 0.1054 0.2799
vn -0.8488 -0.3383 -0.4064
vn -0.9949 -0.0507 -0.0876
vn -0.6575 0.4504 0.6040
vn -0.8884 0.3483 0.2989
vn -0.9805 0.1890 -0.0538
vn -0.8743 0.0171 -0.4851
vn -0.4840 0.8751 0.0048
vn -0.7918 0.5265 -0.3096
vn -0.0919 -0.5030 -0.8594
vn 0.5225 -0.4334 -0.7343
vn -0.9370 -0.1949 -0.2900
vn -0.3663 -0.3769 -0.8508
vn 0.5609 -0.3871 -0.7318
vn -0.2152 -0.2317 -0.9487
vn 0.5432 -0.3376 -0.7687
vn -0.1141 -0.8455 -0.5217
vn 0.5804 -0.3970 -0.7110
vn 0.7893 -0.3348 -0.5147
vn 0.9445 -0.2377 -0.2268
vn 0.9818 -0.1593 0.1033
vn 0.8077 -0.3415 -0.4806
vn 0.9471 -0.2379 -0.2157
vn 0.9875 -0.1573 -0.0056
vn 0.7809 -0.3127 -0.5407
vn 0.9358 -0.2505 -0.2481
vn 0.9878 -0.1480 0.0476
vn 0.3289 -0.8792 -0.3447
vn 0.4919 -0.8541 -0.1686
usemtl teeths
s off
f 1/1/1 2/2/1 3/3/1
f 3/3/1 2/2/1 4/4/1
f 3/3/1 5/5/1 6/6/1
f 3/3/1 4/4/1 5/5/1
s 1
f 7/7/2 8/8/3 9/9/4
f 9/10/4 10/11/5 11/12/6
f 12/13/7 7/7/2 13/14/8
f 13/15/8 11/16/6 14/17/9
f 15/18/10 12/13/7 16/19/11
f 16/20/11 14/17/9 17/21/12
f 15/22/10 18/23/13 19/24/14
f 19/25/14 18/26/13 17/21/12
f 20/27/15 21/28/16 22/29/17
f 23/30/18 24/31/19 22/29/17
f 22/29/17 21/28/16 1/1/20
f 25/32/21 22/29/17 26/33/22
f 26/33/22 3/3/1 27/34/23
f 8/8/3 28/35/24 29/36/25
f 10/11/5 9/10/4 29/37/25
f 28/35/24 30/38/26 31/39/27
f 32/40/28 29/37/25 31/41/27
f 30/38/26 33/42/29 34/43/30
f 31/41/27 34/44/30 35/45/31
f 33/42/29 20/46/15 24/47/19
f 34/44/30 24/48/19 23/49/18
f 10/11/5 32/40/28 36/50/32
f 11/16/6 36/51/32 37/52/33
f 17/21/12 14/17/9 37/52/33
f 38/53/34 17/21/12 39/54/35
f 32/40/28 40/55/36 41/56/37
f 36/51/32 41/57/37 42/58/38
f 39/54/35 37/52/33 42/58/38
f 43/59/39 39/54/35 44/60/40
f 40/55/36 35/45/31 45/61/41
f 41/57/37 45/62/41 46/63/42
f 42/58/38 46/63/42 47/64/43
f 44/60/40 47/64/43 48/65/44
f 45/62/41 35/66/31 23/67/18
f 46/63/42 45/62/41 25/68/21
f 46/63/42 49/69/45 27/70/23
f 47/64/43 27/70/23 6/71/46
f 38/72/34 43/73/39 50/74/47
f 51/75/48 19/76/14 50/77/47
f 43/73/39 52/78/49 53/79/50
f 50/77/47 53/80/50 54/81/51
f 53/79/50 52/78/49 48/82/44
f 54/81/51 53/80/50 55/83/52
f 55/84/52 48/82/44 6/85/46
f 56/86/53 55/83/52 5/87/54
f 51/75/48 57/88/55 58/89/56
f 15/18/10 58/89/56 59/90/57
f 7/7/2 12/13/7 59/90/57
f 8/8/3 7/7/2 60/91/58
f 57/88/55 54/81/51 61/92/59
f 58/89/56 61/92/59 62/93/60
f 60/91/58 59/90/57 62/93/60
f 28/35/24 60/91/58 63/94/61
f 61/92/59 54/81/51 56/86/53
f 62/93/60 61/92/59 64/95/62
f 63/94/61 62/93/60 65/96/63
f 30/38/26 63/94/61 66/97/64
f 64/95/62 56/86/53 4/98/65
f 65/96/63 64/95/62 2/99/66
f 65/96/63 1/100/20 21/101/16
f 66/97/64 21/101/16 20/46/15
f 7/7/2 9/9/4 13/14/8
f 9/10/4 11/12/6 13/102/8
f 12/13/7 13/14/8 16/19/11
f 13/15/8 14/17/9 16/20/11
f 15/18/10 16/19/11 18/103/13
f 16/20/11 17/21/12 18/26/13
f 15/22/10 19/24/14 51/104/48
f 19/25/14 17/21/12 38/53/34
f 20/27/15 22/29/17 24/31/19
f 23/30/18 22/29/17 25/32/21
f 22/29/17 1/1/20 26/33/22
f 25/32/21 26/33/22 49/105/45
f 1/1/20 3/3/1 26/33/22
f 26/33/22 27/34/23 49/105/45
f 3/3/1 6/6/46 27/34/23
f 8/8/3 29/36/25 9/9/4
f 10/11/5 29/37/25 32/40/28
f 28/35/24 31/39/27 29/36/25
f 32/40/28 31/41/27 40/55/36
f 30/38/26 34/43/30 31/39/27
f 31/41/27 35/45/31 40/55/36
f 33/42/29 24/47/19 34/43/30
f 34/44/30 23/49/18 35/45/31
f 10/11/5 36/50/32 11/12/6
f 11/16/6 37/52/33 14/17/9
f 17/21/12 37/52/33 39/54/35
f 38/53/34 39/54/35 43/59/39
f 32/40/28 41/56/37 36/50/32
f 36/51/32 42/58/38 37/52/33
f 39/54/35 42/58/38 44/60/40
f 43/59/39 44/60/40 52/106/49
f 40/55/36 45/61/41 41/56/37
f 41/57/37 46/63/42 42/58/38
f 42/58/38 47/64/43 44/60/40
f 44/60/40 48/65/44 52/106/49
f 45/62/41 23/67/18 25/68/21
f 46/63/42 25/68/21 49/69/45
f 46/63/42 27/70/23 47/64/43
f 47/64/43 6/71/46 48/65/44
f 38/72/34 50/74/47 19/24/14
f 51/75/48 50/77/47 57/88/55
f 43/73/39 53/79/50 50/74/47
f 50/77/47 54/81/51 57/88/55
f 53/79/50 48/82/44 55/84/52
f 54/81/51 55/83/52 56/86/53
f 55/84/52 6/85/46 5/107/54
f 56/86/53 5/87/54 4/98/65
f 51/75/48 58/89/56 15/18/10
f 15/18/10 59/90/57 12/13/7
f 7/7/2 59/90/57 60/91/58
f 8/8/3 60/91/58 28/35/24
f 57/88/55 61/92/59 58/89/56
f 58/89/56 62/93/60 59/90/57
f 60/91/58 62/93/60 63/94/61
f 28/35/24 63/94/61 30/38/26
f 61/92/59 56/86/53 64/95/62
f 62/93/60 64/95/62 65/96/63
f 63/94/61 65/96/63 66/97/64
f 30/38/26 66/97/64 33/42/29
f 64/95/62 4/98/65 2/99/66
f 65/96/63 2/99/66 1/100/20
f 65/96/63 21/101/16 66/97/64
f 66/97/64 20/46/15 33/42/29
